<svg xmlns="http://www.w3.org/2000/svg" width="117.109" height="74.288" viewBox="0 0 117.109 74.288">
  <g id="decoration_rocket" transform="translate(-529.497 -8425.841)">
    <g id="Group_3458" data-name="Group 3458" transform="translate(18080.076 19837.135)">
      <g id="Group_1587" data-name="Group 1587" transform="translate(-17519.076 -11384.648)">
        <path id="Path_1061" data-name="Path 1061" d="M125.957,200.353l-12.643-3.834L99.043,211.238l21.023-3.614Z" transform="translate(-98.875 -196.352)"/>
        <path id="Path_1062" data-name="Path 1062" d="M98.728,211.091a.168.168,0,0,1-.12-.284l14.271-14.718a.167.167,0,0,1,.169-.043l12.643,3.833a.168.168,0,0,1,.082.266l-5.891,7.271a.17.17,0,0,1-.1.059l-21.023,3.613Zm14.321-14.7L99.206,210.671l20.455-3.516,5.694-7.028Z" transform="translate(-98.56 -196.038)" fill="#fff" stroke="#fff" stroke-width="2"/>
      </g>
      <g id="Group_1588" data-name="Group 1588" transform="translate(-17499.33 -11364.931)">
        <path id="Path_1063" data-name="Path 1063" d="M176.231,253.232l-1.321,13.145-19.073,7.517,11.417-18.019Z" transform="translate(-155.669 -253.065)" stroke="#fff" stroke-width="2"/>
        <path id="Path_1064" data-name="Path 1064" d="M155.522,273.748a.167.167,0,0,1-.142-.257L166.8,255.472a.167.167,0,0,1,.094-.071l8.976-2.643a.168.168,0,0,1,.214.178l-1.321,13.145a.168.168,0,0,1-.105.139l-19.073,7.517A.171.171,0,0,1,155.522,273.748ZM167.047,255.7l-11.108,17.531,18.5-7.291,1.286-12.8Z" transform="translate(-155.354 -252.75)" fill="#fff"/>
      </g>
      <g id="Group_1589" data-name="Group 1589" transform="translate(-17509.152 -11368.558)">
        <path id="Path_1065" data-name="Path 1065" d="M141.706,251.35a27.436,27.436,0,0,0-5.5,6.709,31.783,31.783,0,0,1-8.616-12.512,28.7,28.7,0,0,0,8.171-2.745C137.612,245.876,139.906,248.618,141.706,251.35Z" transform="translate(-127.42 -242.634)" stroke="#fff" stroke-width="2"/>
        <path id="Path_1066" data-name="Path 1066" d="M135.889,257.912a.168.168,0,0,1-.113-.044,31.9,31.9,0,0,1-8.66-12.578.167.167,0,0,1,.129-.223,28.523,28.523,0,0,0,8.127-2.732.167.167,0,0,1,.215.065c1.079,1.79,2.312,3.472,3.505,5.1.868,1.185,1.688,2.3,2.439,3.443a.168.168,0,0,1-.029.218,23.092,23.092,0,0,0-4.681,5.484c-.267.413-.518.8-.8,1.2a.167.167,0,0,1-.119.07ZM127.5,245.363a31.575,31.575,0,0,0,8.36,12.129c.232-.336.45-.674.679-1.029a23.311,23.311,0,0,1,4.632-5.457c-.724-1.091-1.514-2.169-2.349-3.308-1.169-1.594-2.376-3.241-3.443-5A28.617,28.617,0,0,1,127.5,245.363Z" transform="translate(-127.105 -242.319)" fill="#fff"/>
      </g>
      <g id="Group_1590" data-name="Group 1590" transform="translate(-17503.365 -11410.25)">
        <path id="Path_1067" data-name="Path 1067" d="M145.9,166.564A19.608,19.608,0,0,0,149.642,172a20.814,20.814,0,0,0,4.964,3.76c.492.268.462.047.98.277,6.133-1.582,31.036-17.636,38.16-22.719,14.854-10.6,19.04-30.2,19.04-30.2s-19.9-2.422-34.753,8.175c-7.432,5.3-30.359,24.373-33.8,29.842A21.289,21.289,0,0,0,145.9,166.564Z" transform="translate(-144.061 -122.715)"/>
        <path id="Path_1068" data-name="Path 1068" d="M155.271,175.9a.165.165,0,0,1-.068-.015,1.029,1.029,0,0,0-.425-.109,1.143,1.143,0,0,1-.567-.173,20.929,20.929,0,0,1-5-3.79,19.726,19.726,0,0,1-3.772-5.484,21.455,21.455,0,0,1-1.686-5.471.166.166,0,0,1,.023-.117c3.445-5.469,26.207-24.437,33.848-29.889,7.7-5.5,16.774-7.433,23.026-8.092a58.626,58.626,0,0,1,11.844-.113.167.167,0,0,1,.144.2,58.637,58.637,0,0,1-3.961,11.162c-2.657,5.7-7.441,13.645-15.144,19.14-6.822,4.867-31.923,21.122-38.216,22.744A.158.158,0,0,1,155.271,175.9Zm-11.18-15.035a21.113,21.113,0,0,0,1.648,5.322h0a19.388,19.388,0,0,0,3.708,5.391,20.594,20.594,0,0,0,4.924,3.73.833.833,0,0,0,.426.134,1.3,1.3,0,0,1,.487.114c6.083-1.626,30.81-17.514,38.05-22.678,7.641-5.451,12.391-13.341,15.031-19a59.6,59.6,0,0,0,3.9-10.917,59.624,59.624,0,0,0-11.592.135c-6.21.655-15.217,2.579-22.858,8.03C170.215,136.543,147.632,155.351,144.091,160.861Z" transform="translate(-143.747 -122.405)" fill="#fff" stroke="#fff" stroke-width="2"/>
      </g>
      <g id="Group_1591" data-name="Group 1591" transform="translate(-17503.365 -11374.269)">
        <path id="Path_1069" data-name="Path 1069" d="M154.991,240.274a23.3,23.3,0,0,1-5.942-6.584,24.32,24.32,0,0,1-2.165-4.436,21.071,21.071,0,0,1-.752-2.447c-.034-.143-.066-.287-.1-.431a18.312,18.312,0,0,0-1.806,2.271,21.289,21.289,0,0,0,1.672,5.428,19.609,19.609,0,0,0,3.741,5.438,20.814,20.814,0,0,0,4.964,3.76c.492.268.462.047.98.277a20.041,20.041,0,0,0,3.195-1.263A15.1,15.1,0,0,1,154.991,240.274Z" transform="translate(-144.061 -226.208)" fill="#fff"/>
        <path id="Path_1070" data-name="Path 1070" d="M155.271,243.4a.165.165,0,0,1-.068-.015,1.029,1.029,0,0,0-.425-.109,1.142,1.142,0,0,1-.567-.173,20.929,20.929,0,0,1-5-3.79,19.726,19.726,0,0,1-3.772-5.484,21.455,21.455,0,0,1-1.686-5.471.166.166,0,0,1,.023-.117,18.418,18.418,0,0,1,1.823-2.294.168.168,0,0,1,.289.076c.031.143.063.286.1.428a20.705,20.705,0,0,0,.746,2.427,24.292,24.292,0,0,0,2.15,4.406,22.951,22.951,0,0,0,5.9,6.537,14.934,14.934,0,0,0,3.748,1.99.168.168,0,0,1,.015.31,20.069,20.069,0,0,1-3.225,1.273A.158.158,0,0,1,155.271,243.4Zm-11.18-15.035a21.113,21.113,0,0,0,1.648,5.322,19.389,19.389,0,0,0,3.708,5.391,20.594,20.594,0,0,0,4.924,3.73.833.833,0,0,0,.426.134,1.3,1.3,0,0,1,.487.114,18.643,18.643,0,0,0,2.747-1.068,15.411,15.411,0,0,1-3.454-1.895h0a23.287,23.287,0,0,1-5.986-6.632,24.575,24.575,0,0,1-2.18-4.466,21.018,21.018,0,0,1-.758-2.466l-.027-.115A17.234,17.234,0,0,0,144.091,228.369Z" transform="translate(-143.747 -225.894)" fill="#fff"/>
      </g>
      <g id="Group_1592" data-name="Group 1592" transform="translate(-17461.855 -11410.251)">
        <path id="Path_1071" data-name="Path 1071" d="M265.937,131.5c.954,1.755,1.957,3.482,3.039,5.157a51.42,51.42,0,0,0,3.5,4.822,37.371,37.371,0,0,0,4.085,4.252q.874.771,1.808,1.475c9.423-10.64,12.293-24.084,12.293-24.084s-13.836-1.684-27.046,3.9C264.37,128.526,265.136,130.022,265.937,131.5Z" transform="translate(-263.453 -122.714)"/>
        <path id="Path_1072" data-name="Path 1072" d="M278.059,147.058a.167.167,0,0,1-.1-.034c-.644-.488-1.255-.987-1.817-1.483a37.725,37.725,0,0,1-4.1-4.271,51.212,51.212,0,0,1-3.516-4.838c-1.006-1.556-2-3.246-3.046-5.168h0c-.727-1.34-1.464-2.764-2.319-4.483a.168.168,0,0,1,.085-.229,56.484,56.484,0,0,1,18.533-4.058,54.813,54.813,0,0,1,8.6.145.167.167,0,0,1,.144.2,54.673,54.673,0,0,1-2.621,8.08,56.728,56.728,0,0,1-9.71,16.08A.166.166,0,0,1,278.059,147.058ZM265.77,131.1c1.04,1.914,2.032,3.6,3.033,5.146a50.859,50.859,0,0,0,3.493,4.806,37.352,37.352,0,0,0,4.066,4.233c.519.459,1.082.92,1.674,1.373a59.46,59.46,0,0,0,12.111-23.71,59.376,59.376,0,0,0-26.611,3.84c.819,1.644,1.531,3.018,2.234,4.312Z" transform="translate(-263.139 -122.401)" fill="#fff"/>
      </g>
      <g id="Group_1593" data-name="Group 1593" transform="translate(-17461.855 -11407.608)">
        <path id="Path_1073" data-name="Path 1073" d="M278.377,147.285q-1.748-1.869-3.315-3.9c-1.05-1.358-2.04-2.762-2.957-4.213s-1.754-2.92-2.517-4.442q-1.043-2.082-1.9-4.25c-1.35.429-2.71.924-4.063,1.5.749,1.506,1.515,3,2.316,4.477.954,1.755,1.957,3.482,3.039,5.157a51.418,51.418,0,0,0,3.5,4.822,37.37,37.37,0,0,0,4.085,4.252q.874.771,1.808,1.475c.773-.873,1.5-1.764,2.186-2.665C279.809,148.783,279.083,148.041,278.377,147.285Z" transform="translate(-263.453 -130.316)" fill="#fff"/>
        <path id="Path_1074" data-name="Path 1074" d="M278.059,152.016a.167.167,0,0,1-.1-.034c-.644-.488-1.255-.987-1.817-1.483a37.725,37.725,0,0,1-4.1-4.271,51.206,51.206,0,0,1-3.516-4.838c-1.006-1.556-2-3.246-3.046-5.168-.727-1.34-1.464-2.764-2.319-4.483a.168.168,0,0,1,.085-.229c1.3-.55,2.672-1.055,4.077-1.5a.167.167,0,0,1,.207.1c.57,1.434,1.209,2.859,1.9,4.237.734,1.465,1.578,2.955,2.509,4.428.889,1.407,1.881,2.82,2.948,4.2,1.039,1.343,2.151,2.65,3.3,3.884h0c.764.817,1.476,1.538,2.175,2.205a.169.169,0,0,1,.018.223c-.718.942-1.456,1.842-2.194,2.675A.166.166,0,0,1,278.059,152.016ZM263.536,131.75c.819,1.644,1.531,3.018,2.234,4.312,1.04,1.914,2.032,3.6,3.033,5.146a50.863,50.863,0,0,0,3.493,4.806,37.353,37.353,0,0,0,4.066,4.233c.519.459,1.082.92,1.674,1.373.667-.759,1.333-1.572,1.984-2.42-.669-.642-1.351-1.335-2.08-2.115h0c-1.161-1.242-2.28-2.557-3.325-3.908-1.073-1.388-2.071-2.81-2.966-4.226-.937-1.482-1.786-2.981-2.525-4.457-.671-1.34-1.293-2.724-1.852-4.118C265.987,130.789,264.732,131.25,263.536,131.75Z" transform="translate(-263.139 -130.001)" fill="#fff"/>
      </g>
      <g id="Group_1594" data-name="Group 1594" transform="translate(-17475.613 -11393.144)">
        <circle id="Ellipse_48" data-name="Ellipse 48" cx="6.657" cy="6.657" r="6.657" transform="matrix(0.171, -0.985, 0.985, 0.171, 0, 13.118)" fill="#fff"/>
        <path id="Path_1075" data-name="Path 1075" d="M232.907,187.754a6.915,6.915,0,0,1-1.14-.095,6.8,6.8,0,1,1,1.14.095Zm-.029-13.316a6.506,6.506,0,1,0,1.084.09A6.578,6.578,0,0,0,232.878,174.437Z" transform="translate(-225.198 -173.233)"/>
      </g>
      <g id="Group_1595" data-name="Group 1595" transform="translate(-17472.852 -11390.38)">
        <path id="Path_1076" data-name="Path 1076" d="M233.992,180.916a4.765,4.765,0,1,1-1.112,6.646A4.765,4.765,0,0,1,233.992,180.916Z" transform="translate(-231.826 -179.865)" fill="#fff"/>
        <path id="Path_1077" data-name="Path 1077" d="M236.454,189.417a4.967,4.967,0,0,1-.824-.069,4.932,4.932,0,0,1-2.051-8.88h0a4.932,4.932,0,1,1,2.875,8.948Zm-2.68-8.676h0a4.6,4.6,0,1,0,6.412,1.073A4.568,4.568,0,0,0,233.773,180.742Z" transform="translate(-231.51 -179.554)"/>
      </g>
      <g id="Group_1596" data-name="Group 1596" transform="translate(-17493.188 -11379.018)">
        <circle id="Ellipse_49" data-name="Ellipse 49" cx="5.632" cy="5.632" r="5.632" transform="translate(0 1.311) rotate(-6.682)" fill="#fff"/>
        <path id="Path_1078" data-name="Path 1078" d="M180.119,225.119a5.8,5.8,0,0,1-3.376-10.518h0a5.8,5.8,0,1,1,3.376,10.518Zm-.019-11.263a5.424,5.424,0,0,0-3.162,1.017h0a5.464,5.464,0,1,0,4.075-.941A5.559,5.559,0,0,0,180.1,213.856Zm-3.259.881h0Z" transform="translate(-173.862 -213.072)"/>
      </g>
      <g id="Group_1597" data-name="Group 1597" transform="translate(-17491.135 -11376.969)">
        <path id="Path_1079" data-name="Path 1079" d="M181.09,219.36a4.031,4.031,0,1,1-.94,5.623A4.031,4.031,0,0,1,181.09,219.36Z" transform="translate(-179.234 -218.442)" fill="#fff"/>
        <path id="Path_1080" data-name="Path 1080" d="M183.129,226.525a4.28,4.28,0,0,1-.7-.058,4.2,4.2,0,0,1-1.746-7.559h0a4.2,4.2,0,1,1,2.447,7.617Zm-.017-8.064a3.835,3.835,0,0,0-2.236.719h0a3.845,3.845,0,1,0,2.236-.719Zm-2.333.583h0Z" transform="translate(-178.923 -218.126)"/>
      </g>
      <g id="Group_1618" data-name="Group 1618" transform="translate(-17488.227 -11375.242)">
        <path id="Path_1107" data-name="Path 1107" d="M187.344,227.763h-.005a.056.056,0,0,1-.051-.061l.4-4.559a.056.056,0,0,1,.112.01l-.4,4.559A.056.056,0,0,1,187.344,227.763Z" transform="translate(-187.287 -223.093)"/>
      </g>
      <g id="Group_1619" data-name="Group 1619" transform="translate(-17486.418 -11375.742)">
        <path id="Path_1108" data-name="Path 1108" d="M192.547,227.455h0a.056.056,0,0,1-.054-.058l.19-5.689a.056.056,0,0,1,.056-.054h0a.056.056,0,0,1,.054.058l-.19,5.689A.056.056,0,0,1,192.547,227.455Z" transform="translate(-192.491 -221.654)"/>
      </g>
      <g id="Group_1620" data-name="Group 1620" transform="translate(-17469.076 -11386.827)">
        <path id="Path_1109" data-name="Path 1109" d="M242.426,192.389h0a.056.056,0,0,1-.054-.058l.1-2.506a.056.056,0,1,1,.112,0l-.1,2.506A.056.056,0,0,1,242.426,192.389Z" transform="translate(-242.37 -189.771)"/>
      </g>
      <g id="Group_1621" data-name="Group 1621" transform="translate(-17467.465 -11389.077)">
        <path id="Path_1110" data-name="Path 1110" d="M247.061,190.227h0a.055.055,0,0,1-.055-.056c.011-2.264.078-4.558.2-6.817a.056.056,0,1,1,.111.006c-.12,2.258-.186,4.55-.2,6.812A.056.056,0,0,1,247.061,190.227Z" transform="translate(-247.005 -183.301)"/>
      </g>
      <g id="Group_1653" data-name="Group 1653" transform="translate(-17460.447 -11406.056)">
        <path id="Path_1142" data-name="Path 1142" d="M267.243,135.839h-.011a.056.056,0,0,1-.043-.066l.267-1.259a.056.056,0,0,1,.109.023l-.267,1.259A.056.056,0,0,1,267.243,135.839Z" transform="translate(-267.188 -134.468)"/>
      </g>
      <g id="Group_1654" data-name="Group 1654" transform="translate(-17459.74 -11406.413)">
        <path id="Path_1143" data-name="Path 1143" d="M269.273,136.729h-.007a.056.056,0,0,1-.049-.063,29.764,29.764,0,0,1,.579-3.183.056.056,0,0,1,.108.026,29.657,29.657,0,0,0-.577,3.171A.056.056,0,0,1,269.273,136.729Z" transform="translate(-269.217 -133.44)"/>
      </g>
      <g id="Group_1655" data-name="Group 1655" transform="translate(-17459.02 -11406.761)">
        <path id="Path_1144" data-name="Path 1144" d="M271.351,137.448h-.006a.056.056,0,0,1-.049-.062c.186-1.632.417-3.28.685-4.9a.055.055,0,0,1,.064-.046.056.056,0,0,1,.046.064c-.268,1.616-.5,3.263-.684,4.893A.056.056,0,0,1,271.351,137.448Z" transform="translate(-271.295 -132.44)"/>
      </g>
      <g id="Group_1656" data-name="Group 1656" transform="translate(-17458.232 -11406.274)">
        <path id="Path_1145" data-name="Path 1145" d="M273.612,139.85h-.005a.056.056,0,0,1-.051-.061c.168-1.961.373-3.947.611-5.9a.056.056,0,1,1,.111.014c-.237,1.954-.442,3.939-.61,5.9A.056.056,0,0,1,273.612,139.85Z" transform="translate(-273.556 -133.838)"/>
      </g>
      <g id="Group_1657" data-name="Group 1657" transform="translate(-17457.471 -11404.372)">
        <path id="Path_1146" data-name="Path 1146" d="M275.8,144.465H275.8a.056.056,0,0,1-.05-.061l.494-5.044a.057.057,0,0,1,.061-.05.056.056,0,0,1,.05.061l-.494,5.045A.056.056,0,0,1,275.8,144.465Z" transform="translate(-275.747 -139.309)"/>
      </g>
      <g id="Group_1658" data-name="Group 1658" transform="translate(-17456.773 -11402.883)">
        <path id="Path_1147" data-name="Path 1147" d="M277.8,148.723H277.8a.056.056,0,0,1-.049-.062l.554-5.021a.056.056,0,0,1,.111.012l-.554,5.021A.056.056,0,0,1,277.8,148.723Z" transform="translate(-277.749 -143.591)"/>
      </g>
      <g id="Group_1659" data-name="Group 1659" transform="translate(-17455.967 -11401.511)">
        <path id="Path_1148" data-name="Path 1148" d="M280.131,152.566h-.007a.056.056,0,0,1-.049-.062c.2-1.626.365-3.278.487-4.91a.057.057,0,0,1,.06-.052.056.056,0,0,1,.051.06c-.122,1.634-.286,3.288-.488,4.916A.056.056,0,0,1,280.131,152.566Z" transform="translate(-280.075 -147.541)"/>
      </g>
      <g id="Group_1660" data-name="Group 1660" transform="translate(-17455.092 -11400.062)">
        <path id="Path_1149" data-name="Path 1149" d="M282.649,156.574h0a.056.056,0,0,1-.052-.059l.351-4.755a.056.056,0,0,1,.112.008l-.351,4.754A.056.056,0,0,1,282.649,156.574Z" transform="translate(-282.593 -151.708)"/>
      </g>
      <g id="Group_1661" data-name="Group 1661" transform="translate(-17454.195 -11398.799)">
        <path id="Path_1150" data-name="Path 1150" d="M285.224,160.179h0a.056.056,0,0,1-.055-.057c.034-1.573.109-3.164.224-4.73a.056.056,0,1,1,.112.008c-.115,1.564-.19,3.153-.224,4.724A.056.056,0,0,1,285.224,160.179Z" transform="translate(-285.168 -155.34)"/>
      </g>
      <g id="Group_1662" data-name="Group 1662" transform="translate(-17453.369 -11397.498)">
        <path id="Path_1151" data-name="Path 1151" d="M287.6,163.708h0a.056.056,0,0,1-.053-.059l.239-4.516a.057.057,0,0,1,.059-.053.056.056,0,0,1,.052.059l-.239,4.517A.056.056,0,0,1,287.6,163.708Z" transform="translate(-287.545 -159.08)"/>
      </g>
      <g id="Group_1663" data-name="Group 1663" transform="translate(-17452.662 -11396.351)">
        <path id="Path_1152" data-name="Path 1152" d="M289.634,166.7h0a.056.056,0,0,1-.051-.06l.336-4.209a.056.056,0,0,1,.06-.051.055.055,0,0,1,.051.06l-.336,4.209A.056.056,0,0,1,289.634,166.7Z" transform="translate(-289.579 -162.382)"/>
      </g>
      <g id="Group_1664" data-name="Group 1664" transform="translate(-17451.826 -11395.265)">
        <path id="Path_1153" data-name="Path 1153" d="M292.04,169.776h0a.056.056,0,0,1-.051-.06c.1-1.378.179-2.777.223-4.159a.056.056,0,0,1,.112,0c-.044,1.384-.119,2.785-.223,4.164A.056.056,0,0,1,292.04,169.776Z" transform="translate(-291.984 -165.503)"/>
      </g>
      <g id="Group_1665" data-name="Group 1665" transform="translate(-17451 -11394.325)">
        <path id="Path_1154" data-name="Path 1154" d="M294.417,172.461h0a.056.056,0,0,1-.052-.059l.285-4.142a.055.055,0,0,1,.059-.052.056.056,0,0,1,.052.06l-.285,4.142A.056.056,0,0,1,294.417,172.461Z" transform="translate(-294.362 -168.207)"/>
      </g>
      <g id="Group_1666" data-name="Group 1666" transform="translate(-17450.256 -11393.204)">
        <path id="Path_1155" data-name="Path 1155" d="M296.557,175.335h-.008a.055.055,0,0,1-.047-.063c.178-1.251.307-2.525.383-3.787a.053.053,0,0,1,.059-.053.056.056,0,0,1,.052.059c-.076,1.265-.205,2.542-.384,3.8A.056.056,0,0,1,296.557,175.335Z" transform="translate(-296.501 -171.432)"/>
      </g>
      <g id="Group_1667" data-name="Group 1667" transform="translate(-17449.24 -11392.197)">
        <path id="Path_1156" data-name="Path 1156" d="M299.476,178.424h0a.056.056,0,0,1-.053-.058l.2-3.987a.054.054,0,0,1,.058-.053.056.056,0,0,1,.053.059l-.2,3.987A.056.056,0,0,1,299.476,178.424Z" transform="translate(-299.42 -174.325)"/>
      </g>
      <g id="Group_1668" data-name="Group 1668" transform="translate(-17448.207 -11391.288)">
        <path id="Path_1157" data-name="Path 1157" d="M302.461,180.975a.056.056,0,0,1-.056-.056L302.392,177a.056.056,0,0,1,.056-.056h0a.056.056,0,0,1,.056.056l.013,3.922a.056.056,0,0,1-.056.056Z" transform="translate(-302.392 -176.942)"/>
      </g>
      <g id="Group_1669" data-name="Group 1669" transform="translate(-17447.344 -11390.344)">
        <path id="Path_1158" data-name="Path 1158" d="M305.011,183.339a.056.056,0,0,1-.056-.055l-.081-3.568a.056.056,0,0,1,.055-.057.057.057,0,0,1,.057.055l.081,3.568a.056.056,0,0,1-.055.057Z" transform="translate(-304.874 -179.659)"/>
      </g>
      <g id="Group_1670" data-name="Group 1670" transform="translate(-17446.455 -11389.429)">
        <path id="Path_1159" data-name="Path 1159" d="M307.548,184.322a.056.056,0,0,1-.055-.05,11.019,11.019,0,0,1-.036-1.931.055.055,0,0,1,.06-.052.056.056,0,0,1,.052.06,10.934,10.934,0,0,0,.035,1.912.056.056,0,0,1-.05.062Z" transform="translate(-307.43 -182.289)"/>
      </g>
      <g id="Group_1671" data-name="Group 1671" transform="translate(-17502.822 -11372.291)">
        <path id="Path_1160" data-name="Path 1160" d="M145.366,232.806l-.016,0a.055.055,0,0,1-.038-.069l.326-1.113a.056.056,0,1,1,.107.031l-.326,1.113A.056.056,0,0,1,145.366,232.806Z" transform="translate(-145.31 -231.58)"/>
      </g>
      <g id="Group_1672" data-name="Group 1672" transform="translate(-17502.344 -11372.78)">
        <path id="Path_1161" data-name="Path 1161" d="M146.738,233.219h-.01a.056.056,0,0,1-.045-.065c.188-.985.421-1.974.691-2.938a.056.056,0,0,1,.107.03c-.269.961-.5,1.946-.688,2.929A.056.056,0,0,1,146.738,233.219Z" transform="translate(-146.682 -230.174)"/>
      </g>
      <g id="Group_1673" data-name="Group 1673" transform="translate(-17501.76 -11371.465)">
        <path id="Path_1162" data-name="Path 1162" d="M148.425,237.323h-.008a.055.055,0,0,1-.048-.063c.143-1.09.335-2.187.569-3.26a.056.056,0,1,1,.109.024c-.234,1.071-.425,2.164-.567,3.251A.056.056,0,0,1,148.425,237.323Z" transform="translate(-148.368 -233.956)"/>
      </g>
      <g id="Group_1674" data-name="Group 1674" transform="translate(-17501.088 -11370.032)">
        <path id="Path_1163" data-name="Path 1163" d="M150.356,241.406h-.006a.056.056,0,0,1-.05-.062c.114-1.073.256-2.157.42-3.221a.057.057,0,0,1,.064-.047.056.056,0,0,1,.047.064c-.164,1.063-.305,2.145-.419,3.216A.056.056,0,0,1,150.356,241.406Z" transform="translate(-150.3 -238.077)"/>
      </g>
      <g id="Group_1675" data-name="Group 1675" transform="translate(-17500.441 -11368.811)">
        <path id="Path_1164" data-name="Path 1164" d="M152.212,245.125h-.006a.056.056,0,0,1-.05-.061l.335-3.42a.057.057,0,0,1,.061-.05.056.056,0,0,1,.05.061l-.335,3.42A.056.056,0,0,1,152.212,245.125Z" transform="translate(-152.156 -241.593)"/>
      </g>
      <g id="Group_1676" data-name="Group 1676" transform="translate(-17499.699 -11367.384)">
        <path id="Path_1165" data-name="Path 1165" d="M154.348,249.064h-.006a.056.056,0,0,1-.05-.061l.344-3.257a.054.054,0,0,1,.061-.049.055.055,0,0,1,.05.061l-.343,3.256A.056.056,0,0,1,154.348,249.064Z" transform="translate(-154.292 -245.696)"/>
      </g>
      <g id="Group_1677" data-name="Group 1677" transform="translate(-17498.799 -11366.006)">
        <path id="Path_1166" data-name="Path 1166" d="M156.94,252.861h0a.056.056,0,0,1-.051-.06l.235-3.093a.059.059,0,0,1,.06-.051.056.056,0,0,1,.052.06L157,252.81A.056.056,0,0,1,156.94,252.861Z" transform="translate(-156.884 -249.657)"/>
      </g>
      <g id="Group_1678" data-name="Group 1678" transform="translate(-17497.855 -11364.787)">
        <path id="Path_1167" data-name="Path 1167" d="M159.65,256.329h0a.056.056,0,0,1-.055-.056c.01-1.013.046-2.041.107-3.054a.053.053,0,0,1,.059-.053.056.056,0,0,1,.052.059c-.061,1.011-.1,2.037-.107,3.049A.056.056,0,0,1,159.65,256.329Z" transform="translate(-159.594 -253.166)"/>
      </g>
      <g id="Group_1679" data-name="Group 1679" transform="translate(-17496.873 -11363.704)">
        <path id="Path_1168" data-name="Path 1168" d="M162.534,259.32a.056.056,0,0,1-.056-.053c-.044-.973-.064-1.959-.057-2.933a.056.056,0,0,1,.056-.056h0a.056.056,0,0,1,.055.056c-.006.972.013,1.956.057,2.927a.056.056,0,0,1-.053.058Z" transform="translate(-162.42 -256.278)"/>
      </g>
      <g id="Group_1680" data-name="Group 1680" transform="translate(-17495.943 -11362.561)">
        <path id="Path_1169" data-name="Path 1169" d="M165.293,262.481a.055.055,0,0,1-.055-.05,25.4,25.4,0,0,1-.145-2.808.056.056,0,0,1,.056-.056.06.06,0,0,1,.056.056,25.444,25.444,0,0,0,.144,2.8.055.055,0,0,1-.049.062Z" transform="translate(-165.092 -259.568)"/>
      </g>
      <g id="Group_1681" data-name="Group 1681" transform="translate(-17495.023 -11361.502)">
        <path id="Path_1170" data-name="Path 1170" d="M168.076,265.236a.055.055,0,0,1-.055-.048c-.121-.831-.213-1.677-.276-2.517a.056.056,0,0,1,.111-.008c.062.837.155,1.681.275,2.509a.056.056,0,0,1-.047.063Z" transform="translate(-167.744 -262.611)"/>
      </g>
      <g id="Group_1682" data-name="Group 1682" transform="translate(-17494.08 -11360.798)">
        <path id="Path_1171" data-name="Path 1171" d="M170.963,267.359a.055.055,0,0,1-.054-.044c-.19-.862-.343-1.742-.454-2.616a.056.056,0,0,1,.111-.014c.111.871.263,1.747.452,2.606a.056.056,0,0,1-.042.067Z" transform="translate(-170.454 -264.636)"/>
      </g>
      <g id="Group_1683" data-name="Group 1683" transform="translate(-17493.09 -11360.016)">
        <path id="Path_1172" data-name="Path 1172" d="M173.856,269.383a.056.056,0,0,1-.054-.043c-.187-.787-.356-1.591-.5-2.388a.056.056,0,0,1,.045-.065.057.057,0,0,1,.065.045c.144.795.312,1.6.5,2.382a.056.056,0,0,1-.041.067Z" transform="translate(-173.3 -266.887)"/>
      </g>
      <g id="Group_1684" data-name="Group 1684" transform="translate(-17492.09 -11359.365)">
        <path id="Path_1173" data-name="Path 1173" d="M176.64,270.628a.056.056,0,0,1-.055-.043l-.4-1.759a.056.056,0,0,1,.042-.067.056.056,0,0,1,.067.042l.4,1.759a.056.056,0,0,1-.042.067Z" transform="translate(-176.179 -268.758)"/>
      </g>
      <g id="Group_1685" data-name="Group 1685" transform="translate(-17491.068 -11358.743)">
        <path id="Path_1174" data-name="Path 1174" d="M179.446,271.517h0a.078.078,0,0,1-.068-.062l-.259-.836a.056.056,0,0,1,.107-.033l.25.807a.051.051,0,0,1,.022.014.066.066,0,0,1,.011.074A.071.071,0,0,1,179.446,271.517Z" transform="translate(-179.113 -270.547)"/>
      </g>
      <g id="Group_1691" data-name="Group 1691" transform="translate(-17471.744 -11370.815)">
        <g id="Group_1689" data-name="Group 1689" transform="translate(0 0)" opacity="0.129">
          <path id="Path_1178" data-name="Path 1178" d="M234.7,235.823a.285.285,0,0,1,.013.032C234.724,235.891,234.732,235.909,234.7,235.823Z" transform="translate(-234.695 -235.823)"/>
        </g>
      </g>
      <g id="Group_1695" data-name="Group 1695" transform="translate(-17485.521 -11369.114)">
        <g id="Group_1693" data-name="Group 1693" transform="translate(0 0)" opacity="0.129">
          <path id="Path_1181" data-name="Path 1181" d="M195.094,240.74l-.023.011C195.186,240.7,195.155,240.715,195.094,240.74Z" transform="translate(-195.071 -240.718)"/>
        </g>
      </g>
    </g>
    <g id="Group_3514" data-name="Group 3514" transform="translate(63.803 8404.761)">
      <path id="Path_2055" data-name="Path 2055" d="M467.228,93.745a11.62,11.62,0,0,0,9.064-4.1c2.359-2.6,3.958-6.09,7.464-7.31.224-.078.1-.464-.127-.4-2.576.707-4.209,2.8-5.795,4.808-2.91,3.688-5.683,6.286-10.624,6.561C466.96,93.316,466.976,93.745,467.228,93.745Z" fill="#fff" stroke="#fff" stroke-width="1"/>
      <path id="Path_2056" data-name="Path 2056" d="M466.417,94.194c4.359.508,8.764,1.774,12.793-.609,3.43-2.029,5.618-5.323,9.537-6.6.3-.1.129-.56-.162-.51-2.736.467-4.563,2.269-6.587,4.042-1.817,1.592-3.7,3.174-6.141,3.683-3.049.636-6.33-.363-9.392-.513A.253.253,0,0,0,466.417,94.194Z" fill="#fff" stroke="#fff" stroke-width="1"/>
      <path id="Path_2057" data-name="Path 2057" d="M487.653,86.761a30.075,30.075,0,0,0-1.184,3.279,9.8,9.8,0,0,1-1.81,3.14c-.158.193.1.519.323.382,2.081-1.3,2.32-4.528,3.205-6.6C488.333,86.616,487.81,86.436,487.653,86.761Z" fill="#fff" stroke="#fff" stroke-width="1"/>
      <path id="Path_2058" data-name="Path 2058" d="M484.915,93.577c5.772-1.012,8.545-7.04,13.753-9.243.267-.113.073-.488-.19-.4-5.4,1.832-8.027,7.838-13.651,9.144A.253.253,0,0,0,484.915,93.577Z" fill="#fff" stroke="#fff" stroke-width="1"/>
      <path id="Path_2059" data-name="Path 2059" d="M498.217,84.26c-.989,1.235-2.2,3.071-1.751,4.738.07.259.5.288.507-.021a7.232,7.232,0,0,1,1.763-4.354C498.989,84.3,498.471,83.943,498.217,84.26Z" fill="#fff" stroke="#fff" stroke-width="1"/>
      <path id="Path_2060" data-name="Path 2060" d="M496.794,89.464c3.977-3.254,16.3-7.217,15.387-13.935-.5-3.656-5.709-5.375-8.777-5.286-7.266.209-14.825.727-20.632,5.386-.28.225.068.61.353.417,5.84-3.97,11.577-4.032,18.374-4.76,5.367-.574,13.088,2.888,7.774,8.565-3.649,3.9-9.177,5.446-12.824,9.205C496.213,89.3,496.523,89.687,496.794,89.464Z" fill="#fff" stroke="#fff" stroke-width="1"/>
      <path id="Path_2061" data-name="Path 2061" d="M482.97,76.395c2.576-.923,4.92-.336,7.446.352.243.066.456-.258.217-.413-2.192-1.416-5.543-1.337-7.9-.438C482.4,76.023,482.639,76.513,482.97,76.395Z" fill="#fff" stroke="#fff" stroke-width="1"/>
      <path id="Path_2062" data-name="Path 2062" d="M489.813,76.371c-2.92-.284-6.282,1.449-8.818,2.655s-6.08,2.725-7.7,5.171a.267.267,0,0,0,.437.306c1.964-2.219,4.906-3.642,7.542-4.888,2.573-1.216,5.582-2.689,8.487-2.706A.27.27,0,0,0,489.813,76.371Z" fill="#fff" stroke="#fff" stroke-width="1"/>
      <path id="Path_2063" data-name="Path 2063" d="M474.03,84.373c3.389-1.671,6.272-2.754,10.109-2.482.293.021.417-.425.118-.517-3.648-1.118-7.33.823-10.449,2.532C473.518,84.064,473.728,84.521,474.03,84.373Z" fill="#fff" stroke="#fff" stroke-width="1"/>
    </g>
  </g>
</svg>
