<svg xmlns="http://www.w3.org/2000/svg" width="943.507" height="776.89" viewBox="0 0 943.507 776.89">
  <g id="hero" transform="translate(-892.944 -165.001)">
    <g id="Group_35" data-name="Group 35" transform="translate(1092.42 -367.434)" opacity="0.4">
      <g id="Group_29" data-name="Group 29">
        <path id="Path_99" data-name="Path 99" d="M722.15,835.791,711,837.823l-3.342-18.338,11.151-2.032.542,2.974-8.177,1.49,2.258,12.39,8.177-1.49Z" fill="#193149"/>
        <rect id="Rectangle_31" data-name="Rectangle 31" width="3.023" height="11.21" transform="translate(722.324 820.589) rotate(-10.329)" fill="#193149"/>
        <rect id="Rectangle_32" data-name="Rectangle 32" width="11.21" height="3.023" transform="translate(719.031 825.35) rotate(-10.328)" fill="#193149"/>
        <rect id="Rectangle_33" data-name="Rectangle 33" width="3.023" height="11.21" transform="matrix(0.984, -0.179, 0.179, 0.984, 735.754, 818.141)" fill="#193149"/>
        <rect id="Rectangle_34" data-name="Rectangle 34" width="11.21" height="3.023" transform="translate(732.461 822.902) rotate(-10.328)" fill="#193149"/>
      </g>
      <g id="Group_30" data-name="Group 30">
        <path id="Path_100" data-name="Path 100" d="M164.072,546.693H155.4V544.38h6.358V532.434h2.312Z" fill="#193149"/>
        <path id="Path_101" data-name="Path 101" d="M174.388,546.693h-8.671V544.38h6.452V540.72h-6.452v-8.285h8.671v2.312H168.03v3.661h6.358Z" fill="#193149"/>
      </g>
      <g id="Group_31" data-name="Group 31">
        <rect id="Rectangle_35" data-name="Rectangle 35" width="2.483" height="15.308" transform="translate(441.205 546.517) rotate(-15.223)" fill="#193149"/>
        <rect id="Rectangle_36" data-name="Rectangle 36" width="2.483" height="15.308" transform="translate(462.579 540.7) rotate(-15.223)" fill="#193149"/>
        <rect id="Rectangle_37" data-name="Rectangle 37" width="2.483" height="15.308" transform="translate(447.792 544.725) rotate(-15.224)" fill="#193149"/>
        <path id="Path_102" data-name="Path 102" d="M471.808,554.054l2.4-.652,1.189-16.189-2.4.652Z" fill="#193149"/>
        <path id="Path_103" data-name="Path 103" d="M474.2,553.4l-2.4.652L462.579,540.7l2.4-.652Z" fill="#193149"/>
        <rect id="Rectangle_38" data-name="Rectangle 38" width="2.483" height="15.308" transform="translate(472.997 537.865) rotate(-15.223)" fill="#193149"/>
        <rect id="Rectangle_39" data-name="Rectangle 39" width="2.483" height="9.309" transform="translate(451.871 550.261) rotate(74.777)" fill="#193149"/>
        <rect id="Rectangle_40" data-name="Rectangle 40" width="2.483" height="15.308" transform="translate(455.185 542.713) rotate(-15.223)" fill="#193149"/>
        <rect id="Rectangle_41" data-name="Rectangle 41" width="2.483" height="9.309" transform="translate(460.874 541.164) rotate(74.776)" fill="#193149"/>
        <rect id="Rectangle_42" data-name="Rectangle 42" width="2.483" height="15.308" transform="translate(477.098 536.749) rotate(-15.224)" fill="#193149"/>
        <rect id="Rectangle_43" data-name="Rectangle 43" width="2.483" height="9.309" transform="matrix(0.263, 0.965, -0.965, 0.263, 489.448, 546.68)" fill="#193149"/>
      </g>
      <g id="Group_32" data-name="Group 32">
        <rect id="Rectangle_44" data-name="Rectangle 44" width="2.575" height="15.875" transform="translate(680.358 557.505) rotate(23.076)" fill="#193149"/>
        <path id="Path_104" data-name="Path 104" d="M679.286,574.3l2.369,1.009,11.373-12.41-2.369-1.009Z" fill="#193149"/>
        <path id="Path_105" data-name="Path 105" d="M681.655,575.313l-2.369-1.009,1.072-16.8,2.369,1.009Z" fill="#193149"/>
        <rect id="Rectangle_45" data-name="Rectangle 45" width="2.575" height="15.875" transform="translate(690.659 561.894) rotate(23.078)" fill="#193149"/>
        <path id="Path_106" data-name="Path 106" d="M697.372,582.01l-8.881-3.784,1.009-2.369,6.608,2.816,1.6-3.75-6.608-2.816,3.616-8.487,8.881,3.784-1.009,2.368L696.073,567l-1.6,3.75,6.513,2.775Z" fill="#193149"/>
        <path id="Path_107" data-name="Path 107" d="M672.45,571.391l-8.881-3.784,6.223-14.6,8.881,3.784-1.009,2.369-6.513-2.775-4.2,9.868,6.513,2.775Z" fill="#193149"/>
      </g>
      <g id="Group_34" data-name="Group 34">
        <rect id="Rectangle_46" data-name="Rectangle 46" width="2.633" height="16.236" transform="translate(57.836 605.093) rotate(9.595)" fill="#193149"/>
        <rect id="Rectangle_47" data-name="Rectangle 47" width="2.633" height="16.236" transform="translate(78.405 608.57) rotate(9.597)" fill="#193149"/>
        <rect id="Rectangle_48" data-name="Rectangle 48" width="2.633" height="7.24" transform="translate(63.841 613.005) rotate(99.595)" fill="#193149"/>
        <rect id="Rectangle_49" data-name="Rectangle 49" width="2.633" height="9.873" transform="translate(67.571 606.738) rotate(99.595)" fill="#193149"/>
        <rect id="Rectangle_50" data-name="Rectangle 50" width="2.633" height="16.235" transform="translate(85.433 626.224) rotate(-170.405)" fill="#193149"/>
        <rect id="Rectangle_51" data-name="Rectangle 51" width="2.633" height="9.873" transform="translate(88.139 610.216) rotate(99.595)" fill="#193149"/>
        <rect id="Rectangle_52" data-name="Rectangle 52" width="2.633" height="2.87" transform="matrix(-0.167, 0.986, -0.986, -0.167, 83.553, 616.338)" fill="#193149"/>
        <rect id="Rectangle_53" data-name="Rectangle 53" width="2.633" height="16.236" transform="matrix(0.986, 0.167, -0.167, 0.986, 69.418, 607.051)" fill="#193149"/>
        <rect id="Rectangle_54" data-name="Rectangle 54" width="2.633" height="7.24" transform="translate(74.289 621.67) rotate(99.595)" fill="#193149"/>
        <path id="Path_108" data-name="Path 108" d="M97.015,628.182l-9.735-1.646.439-2.6,7.244,1.225.695-4.11-7.244-1.225,1.573-9.3,9.735,1.646-.439,2.6-7.139-1.207-.695,4.11,7.139,1.207Z" fill="#193149"/>
        <g id="Group_33" data-name="Group 33">
          <rect id="Rectangle_55" data-name="Rectangle 55" width="2.633" height="16.236" transform="matrix(0.986, 0.167, -0.167, 0.986, 101.569, 612.486)" fill="#193149"/>
          <rect id="Rectangle_56" data-name="Rectangle 56" width="2.633" height="16.236" transform="translate(108.708 613.693) rotate(9.595)" fill="#193149"/>
          <rect id="Rectangle_57" data-name="Rectangle 57" width="2.633" height="9.873" transform="matrix(-0.167, 0.986, -0.986, -0.167, 110.17, 620.838)" fill="#193149"/>
        </g>
      </g>
    </g>
    <g id="Group_36" data-name="Group 36" transform="translate(1692.129 1403.129) rotate(180)" opacity="0.4">
      <g id="Group_29-2" data-name="Group 29">
        <path id="Path_99-2" data-name="Path 99" d="M722.15,835.791,711,837.823l-3.342-18.338,11.151-2.032.542,2.974-8.177,1.49,2.258,12.39,8.177-1.49Z" fill="#193149"/>
        <rect id="Rectangle_31-2" data-name="Rectangle 31" width="3.023" height="11.21" transform="translate(722.324 820.589) rotate(-10.329)" fill="#193149"/>
        <rect id="Rectangle_32-2" data-name="Rectangle 32" width="11.21" height="3.023" transform="translate(719.031 825.35) rotate(-10.328)" fill="#193149"/>
        <rect id="Rectangle_33-2" data-name="Rectangle 33" width="3.023" height="11.21" transform="matrix(0.984, -0.179, 0.179, 0.984, 735.754, 818.141)" fill="#193149"/>
        <rect id="Rectangle_34-2" data-name="Rectangle 34" width="11.21" height="3.023" transform="translate(732.461 822.902) rotate(-10.328)" fill="#193149"/>
      </g>
      <g id="Group_30-2" data-name="Group 30">
        <path id="Path_100-2" data-name="Path 100" d="M164.072,546.693H155.4V544.38h6.358V532.434h2.312Z" fill="#193149"/>
        <path id="Path_101-2" data-name="Path 101" d="M174.388,546.693h-8.671V544.38h6.452V540.72h-6.452v-8.285h8.671v2.312H168.03v3.661h6.358Z" fill="#193149"/>
      </g>
      <g id="Group_31-2" data-name="Group 31">
        <rect id="Rectangle_35-2" data-name="Rectangle 35" width="2.483" height="15.308" transform="translate(441.205 546.517) rotate(-15.223)" fill="#193149"/>
        <rect id="Rectangle_36-2" data-name="Rectangle 36" width="2.483" height="15.308" transform="translate(462.579 540.7) rotate(-15.223)" fill="#193149"/>
        <rect id="Rectangle_37-2" data-name="Rectangle 37" width="2.483" height="15.308" transform="translate(447.792 544.725) rotate(-15.224)" fill="#193149"/>
        <path id="Path_102-2" data-name="Path 102" d="M471.808,554.054l2.4-.652,1.189-16.189-2.4.652Z" fill="#193149"/>
        <path id="Path_103-2" data-name="Path 103" d="M474.2,553.4l-2.4.652L462.579,540.7l2.4-.652Z" fill="#193149"/>
        <rect id="Rectangle_38-2" data-name="Rectangle 38" width="2.483" height="15.308" transform="translate(472.997 537.865) rotate(-15.223)" fill="#193149"/>
        <rect id="Rectangle_39-2" data-name="Rectangle 39" width="2.483" height="9.309" transform="translate(451.871 550.261) rotate(74.777)" fill="#193149"/>
        <rect id="Rectangle_40-2" data-name="Rectangle 40" width="2.483" height="15.308" transform="translate(455.185 542.713) rotate(-15.223)" fill="#193149"/>
        <rect id="Rectangle_41-2" data-name="Rectangle 41" width="2.483" height="9.309" transform="translate(460.874 541.164) rotate(74.776)" fill="#193149"/>
        <rect id="Rectangle_42-2" data-name="Rectangle 42" width="2.483" height="15.308" transform="translate(477.098 536.749) rotate(-15.224)" fill="#193149"/>
        <rect id="Rectangle_43-2" data-name="Rectangle 43" width="2.483" height="9.309" transform="matrix(0.263, 0.965, -0.965, 0.263, 489.448, 546.68)" fill="#193149"/>
      </g>
      <g id="Group_32-2" data-name="Group 32">
        <rect id="Rectangle_44-2" data-name="Rectangle 44" width="2.575" height="15.875" transform="translate(680.358 557.505) rotate(23.076)" fill="#193149"/>
        <path id="Path_104-2" data-name="Path 104" d="M679.286,574.3l2.369,1.009,11.373-12.41-2.369-1.009Z" fill="#193149"/>
        <path id="Path_105-2" data-name="Path 105" d="M681.655,575.313l-2.369-1.009,1.072-16.8,2.369,1.009Z" fill="#193149"/>
        <rect id="Rectangle_45-2" data-name="Rectangle 45" width="2.575" height="15.875" transform="translate(690.659 561.894) rotate(23.078)" fill="#193149"/>
        <path id="Path_106-2" data-name="Path 106" d="M697.372,582.01l-8.881-3.784,1.009-2.369,6.608,2.816,1.6-3.75-6.608-2.816,3.616-8.487,8.881,3.784-1.009,2.368L696.073,567l-1.6,3.75,6.513,2.775Z" fill="#193149"/>
        <path id="Path_107-2" data-name="Path 107" d="M672.45,571.391l-8.881-3.784,6.223-14.6,8.881,3.784-1.009,2.369-6.513-2.775-4.2,9.868,6.513,2.775Z" fill="#193149"/>
      </g>
      <g id="Group_34-2" data-name="Group 34">
        <rect id="Rectangle_46-2" data-name="Rectangle 46" width="2.633" height="16.236" transform="translate(57.836 605.093) rotate(9.595)" fill="#193149"/>
        <rect id="Rectangle_47-2" data-name="Rectangle 47" width="2.633" height="16.236" transform="translate(78.405 608.57) rotate(9.597)" fill="#193149"/>
        <rect id="Rectangle_48-2" data-name="Rectangle 48" width="2.633" height="7.24" transform="translate(63.841 613.005) rotate(99.595)" fill="#193149"/>
        <rect id="Rectangle_49-2" data-name="Rectangle 49" width="2.633" height="9.873" transform="translate(67.571 606.738) rotate(99.595)" fill="#193149"/>
        <rect id="Rectangle_50-2" data-name="Rectangle 50" width="2.633" height="16.235" transform="translate(85.433 626.224) rotate(-170.405)" fill="#193149"/>
        <rect id="Rectangle_51-2" data-name="Rectangle 51" width="2.633" height="9.873" transform="translate(88.139 610.216) rotate(99.595)" fill="#193149"/>
        <rect id="Rectangle_52-2" data-name="Rectangle 52" width="2.633" height="2.87" transform="matrix(-0.167, 0.986, -0.986, -0.167, 83.553, 616.338)" fill="#193149"/>
        <rect id="Rectangle_53-2" data-name="Rectangle 53" width="2.633" height="16.236" transform="matrix(0.986, 0.167, -0.167, 0.986, 69.418, 607.051)" fill="#193149"/>
        <rect id="Rectangle_54-2" data-name="Rectangle 54" width="2.633" height="7.24" transform="translate(74.289 621.67) rotate(99.595)" fill="#193149"/>
        <path id="Path_108-2" data-name="Path 108" d="M97.015,628.182l-9.735-1.646.439-2.6,7.244,1.225.695-4.11-7.244-1.225,1.573-9.3,9.735,1.646-.439,2.6-7.139-1.207-.695,4.11,7.139,1.207Z" fill="#193149"/>
        <g id="Group_33-2" data-name="Group 33">
          <rect id="Rectangle_55-2" data-name="Rectangle 55" width="2.633" height="16.236" transform="matrix(0.986, 0.167, -0.167, 0.986, 101.569, 612.486)" fill="#193149"/>
          <rect id="Rectangle_56-2" data-name="Rectangle 56" width="2.633" height="16.236" transform="translate(108.708 613.693) rotate(9.595)" fill="#193149"/>
          <rect id="Rectangle_57-2" data-name="Rectangle 57" width="2.633" height="9.873" transform="matrix(-0.167, 0.986, -0.986, -0.167, 110.17, 620.838)" fill="#193149"/>
        </g>
      </g>
    </g>
    <g id="Group_2297" data-name="Group 2297" transform="translate(19381 11002.697)">
      <g id="Group_1577" data-name="Group 1577" transform="translate(-19366.209 -11028.493)">
        <g id="Path_2" data-name="Path 2" transform="translate(703.857 132.694)" fill="#fff" stroke-miterlimit="10">
          <path d="M 813.7471923828125 315.8544921875 C 804.6714477539062 307.2129211425781 794.947998046875 299.0191650390625 784.819091796875 291.4789428710938 C 775.0765991210938 284.2263793945312 764.7396240234375 277.4146118164062 754.0952758789062 271.2328186035156 C 736.1715698242188 260.8234558105469 717.0556030273438 251.9847106933594 697.2785034179688 244.9620819091797 C 679.6788330078125 238.7126159667969 664.79736328125 235.0868530273438 655.4125366210938 233.1456451416016 C 648.9873046875 231.8166351318359 644.245849609375 231.0787353515625 641.5540161132812 230.7082214355469 C 644.1727905273438 223.6436614990234 652.2955932617188 201.8202972412109 660.8436279296875 179.7645721435547 C 666.9153442382812 164.0982055664062 672.0093383789062 151.3844146728516 675.9840698242188 141.9763488769531 C 678.3356323242188 136.4101867675781 680.3129272460938 131.9625396728516 681.8609619140625 128.7570190429688 C 683.7045288085938 124.9396209716797 684.58349609375 123.623908996582 684.9313354492188 123.1864318847656 C 686.2254638671875 122.975212097168 690.2625732421875 122.4181137084961 696.8333740234375 122.4181137084961 C 701.678955078125 122.4181137084961 706.9092407226562 122.7163772583008 712.3789672851562 123.3046112060547 C 719.238037109375 124.0422439575195 726.4898681640625 125.2401123046875 733.9330444335938 126.864875793457 C 752.93212890625 131.0122528076172 773.261474609375 137.9282836914062 794.356201171875 147.4208831787109 C 812.907470703125 155.7691802978516 829.3786010742188 165.1055755615234 843.3120727539062 175.1707153320312 C 854.4251098632812 183.1984100341797 863.9528198242188 191.7011871337891 871.6304931640625 200.4428100585938 C 882.3176879882812 212.6110229492188 886.3347778320312 221.7453308105469 887.4304809570312 224.6269378662109 L 813.7471923828125 315.8544921875 Z" stroke="none"/>
          <path d="M 696.8333129882812 124.4180908203125 C 691.4625854492188 124.4180908203125 687.84130859375 124.7966918945312 686.0885009765625 125.0360717773438 C 685.6190795898438 125.7876281738281 684.7459716796875 127.3372497558594 683.2800903320312 130.4244384765625 C 681.7073364257812 133.7364196777344 679.7203369140625 138.2459716796875 677.3741455078125 143.8278198242188 C 673.3978881835938 153.2877502441406 668.3463745117188 165.924560546875 662.35986328125 181.3871765136719 C 654.7321166992188 201.0888061523438 647.4971923828125 220.4532318115234 644.2888793945312 229.0873413085938 C 647.0914916992188 229.5189666748047 650.9878540039062 230.1880798339844 655.817626953125 231.1871032714844 C 665.263916015625 233.1409759521484 680.240966796875 236.7898864746094 697.9476928710938 243.0773468017578 C 717.8408203125 250.1411743164062 737.0695190429688 259.0321350097656 755.0996704101562 269.5032958984375 C 765.8093872070312 275.7230529785156 776.2102661132812 282.5769653320312 786.0133666992188 289.8746337890625 C 795.6228637695312 297.0281982421875 804.86962890625 304.7661743164062 813.5499877929688 312.9156188964844 L 885.1380004882812 224.2821807861328 C 884.67626953125 223.1860046386719 883.9615478515625 221.6330413818359 882.9120483398438 219.6877593994141 C 880.7620849609375 215.7028503417969 876.7989501953125 209.3582611083984 870.1277465820312 201.7626037597656 C 862.548828125 193.1333923339844 853.1326904296875 184.7320556640625 842.1409301757812 176.7919769287109 C 828.3168334960938 166.8058471679688 811.963623046875 157.5376281738281 793.5354614257812 149.2447509765625 C 772.5669555664062 139.8089294433594 752.3703002929688 132.9366760253906 733.5064697265625 128.81884765625 C 726.1332397460938 127.2093505859375 718.9529418945312 126.0231018066406 712.1650390625 125.2931518554688 C 706.7660522460938 124.7125244140625 701.6077270507812 124.4180908203125 696.8333129882812 124.4180908203125 M 696.8333129882812 120.4180908203125 C 713.7589111328125 120.4181213378906 747.1964111328125 124.0058898925781 795.1769409179688 145.5970458984375 C 877.0475463867188 182.4398803710938 889.6864624023438 225.0167999267578 889.6864624023438 225.0167999267578 L 813.9346923828125 318.8053588867188 C 734.5758666992188 242.1497192382812 638.8029174804688 232.3798828125 638.8029174804688 232.3798828125 C 638.8029174804688 232.3798828125 679.1519165039062 122.9486389160156 684.0746459960938 121.3070068359375 C 684.0746459960938 121.3070068359375 688.4083862304688 120.4180908203125 696.8333129882812 120.4180908203125 Z" stroke="none" fill="#a0c6f4"/>
        </g>
        <path id="Path_3" data-name="Path 3" d="M645.493,177.728s94.171,9.513,152.2,62.781" transform="translate(711.229 195.846)" fill="none" stroke="#2a1e17" stroke-linecap="round" stroke-linejoin="round" stroke-width="1"/>
        <path id="Path_4" data-name="Path 4" d="M684.18,211.355l35.132-68.311,36.107,71.239Z" transform="translate(753.86 157.626)" fill="#a0c6f4"/>
        <path id="Path_5" data-name="Path 5" d="M687.43,210.891l35.132-68.311,36.107,71.239Z" transform="translate(757.441 157.114)" fill="none" stroke="#2a1e17" stroke-linecap="round" stroke-linejoin="round" stroke-width="1"/>
        <path id="Path_6" data-name="Path 6" d="M671.74,118.444s105.589,9.511,171.224,87.514" transform="translate(740.151 130.518)" fill="none" stroke="#2a1e17" stroke-linecap="round" stroke-linejoin="round" stroke-width="1"/>
        <path id="Path_7" data-name="Path 7" d="M702.441,292.946c-5.8-4.263-9.6-7.121-9.6-7.121,1.608-2.144,27.018-29.213,41.73-51.027C734.567,234.8,704.814,294.691,702.441,292.946Z" transform="translate(763.399 258.734)" fill="#2a1e17"/>
        <path id="Path_8" data-name="Path 8" d="M526.12,168.592c2.831,4.717,4.088,2.829,12.263,2.2s19.809,5.345,23.895,15.407,2.831,11.632.631,12.891-17.923,3.142-18.552,6.287" transform="translate(579.687 185.778)" fill="none" stroke="#2a1e17" stroke-linecap="round" stroke-linejoin="round" stroke-width="1"/>
        <path id="Path_9" data-name="Path 9" d="M557.524,422.006" transform="translate(614.292 465.026)" fill="#eaecec"/>
        <path id="Path_10" data-name="Path 10" d="M644.356,418.543l-7.324-12.38-25.988,43.313,6.822,5.247Z" transform="translate(673.268 447.568)" fill="#fff" stroke="#000" stroke-width="1"/>
        <path id="Path_11" data-name="Path 11" d="M549.584,378.055s-13.465-21.894-7.689-32.622l42.959,4.6Z" transform="translate(595.483 380.647)" fill="#fff" stroke="#000" stroke-width="1"/>
        <path id="Path_12" data-name="Path 12" d="M547.783,379.921l2.573,5.913-7.935,30.951a10.594,10.594,0,0,0,3.34,10.651h0l39.287-58.077a13.508,13.508,0,0,0-1.995-17.463l-8.78-8.156Z" transform="translate(597.284 378.781)"/>
        <path id="Path_13" data-name="Path 13" d="M545.323,205.722c12.3-.292,27.893-1.072,24.775-10.426s-14.81-32.74-41.314-25.724c0,0-9.354,7.794,2.337,21.827S545.323,205.722,545.323,205.722Z" transform="translate(578.72 185.434)" fill="#2a1e33"/>
        <path id="Path_14" data-name="Path 14" d="M603.16,438.444s-21-62-3.231-89.227c14.667-22.468,62.581,14.079,69.148,19L703.359,306.3s-7.914-11.1-27.344-21.961-99.7-43.4-137.427,16.12c-13.942,22-14.154,116.389,12.584,152.565Z" transform="translate(583.153 292.75)" fill="#acd4f7" stroke="#000" stroke-width="1"/>
        <path id="Path_15" data-name="Path 15" d="M569.857,398.439s-21-62-3.231-89.227c14.667-22.468,62.581,14.079,69.148,19" transform="translate(616.456 332.755)" fill="none" stroke="#2a1e17" stroke-linecap="round" stroke-linejoin="round" stroke-width="1"/>
        <path id="Path_16" data-name="Path 16" d="M653.124,285c-15.592,16.414-61.82,96.37-72.216,134.585C567,470.7,572.233,513.1,648.658,596.107L685.6,542.3s-25.974-39.443-21.124-76.622c7.014-53.787,45.292-105.94,64.66-139.02Z" transform="translate(633.388 314.052)" fill="#acd4f7" stroke="#000" stroke-width="1"/>
        <path id="Path_17" data-name="Path 17" d="M614.883,288.305l61.453,48.229L694.7,308.613Z" transform="translate(677.498 317.695)" fill="#2a1e17"/>
        <path id="Path_18" data-name="Path 18" d="M782.8,264.18q14.374,3.08,21.9,10.951c5.019,5.249,2.737,7.987.912,9.583s-8.9-.227-15.058-5.7S782.8,264.18,782.8,264.18Z" transform="translate(862.535 291.111)" fill="#ff8a66"/>
        <path id="Path_19" data-name="Path 19" d="M692.837,285.825c1.608-2.144,27.018-29.213,41.73-51.027,0,0,44.464,49.822,49.286,51.43,1.793.6,12.694.454,26.232.315,22.878-.237,53.288-.467,60.019,2.9,10.714,5.358,17.143,8.036,19.821,15.535s3.735,12.4-2.678,12.858c-7.5.536-12.322-9.106-12.322-9.106s-6.129,3.7-21.965,9.642c0,0-56.977,22.121-95.065,11.424C747.5,326.874,692.837,285.825,692.837,285.825Z" transform="translate(763.399 258.734)" fill="#fff" stroke="#000" stroke-width="1"/>
        <path id="Path_20" data-name="Path 20" d="M531.729,164.942c-4.891,1.862-7.861,4.086-5.032,8.8s4.089,2.829,12.263,2.2,19.809,5.345,23.895,15.407,2.831,11.632.631,12.891-17.923,3.142-18.552,6.287,6.371,12.425,20.834,11.8l3.458-.628s30.417,29.707,34.819,34.108,36.75,26.318,54.57,30.772c13.545,3.388,40.986-.982,57.476-4.2,8.008-1.562,13.435-2.854,13.435-2.854s-12.376-22.291-14.89-56.561c0,0-29.606,4.757-49.278,9.072,0,0-45.909-25.593-68.231-36.912,0,0-19.493-23.9-28.612-27.041S538.331,162.426,531.729,164.942Z" transform="translate(579.11 180.625)" fill="#fff" stroke="#000" stroke-width="1"/>
        <path id="Path_21" data-name="Path 21" d="M621,249.631c8.008-1.562,13.436-2.854,13.436-2.854s-14.97-18.867-17.484-53.139c0,0-6.768,7.294-4.664,26.7C614.938,244.735,621,249.631,621,249.631Z" transform="translate(674.196 213.377)" fill="#2a1e17"/>
        <path id="Path_22" data-name="Path 22" d="M642.455,194.976s.414,41.879,11.634,59.35l4.025-1.61s-52.876,61.856-69.976,102.274c-2.8,6.615,109.78,78.526,126.413,77.517,0,0,54.85-83.716,73.61-108.532L808.323,339.6s39.546-40.046,41.671-54.27c0,0-38.2-46.478-69.446-60.088s-59.174-36.921-92.742-36.288C658.749,189.5,642.455,194.976,642.455,194.976Z" transform="translate(647.971 208.202)" fill="#fff" stroke="#000" stroke-width="1"/>
        <path id="Path_23" data-name="Path 23" d="M703.434,273.4l-20.161-15.625,3.211-8.751Z" transform="translate(752.86 274.406)" fill="#2a1e17"/>
        <path id="Path_24" data-name="Path 24" d="M757.975,200.926c-3.529,10.981-13.726,42.743-25.1,46.663s-23.21-1-23.21-1l-12.113,6.2c-1.352,4.055-10.911,7.546-23.256,8.021-9.141.353-14.707-11.384-12-19.882,1.242-3.9,5.883-23.136,5.883-23.136s9.8-36.074,18.821-43.525,17.494-14.827,41.564-5.1C765.424,184.066,757.975,200.926,757.975,200.926Z" transform="translate(728.989 181.274)" fill="#fff" stroke="#000" stroke-width="1"/>
        <path id="Path_25" data-name="Path 25" d="M682.064,218.25c-1.618,6.743-8.631,20.227-13.215,17.8s-6.2-8.631-2.966-20.5,5.932-38.833,15.1-43.687,13.215.807,13.215.807-4.044-19.685,7.821-22.381c0,0,4.044-1.89,2.426,11.594,0,0,4.586-12.4,19.418-10.787s19.956,22.384,19.956,22.384,1.078-5.663,7.821-5.663,16.99,9.978,14.562,21.034c0,0,17.255-5.4,26.43,8.362s8.09,28.855-14.024,34.787c-23.121,6.2-22.922-20.765-26.428-24.271s-7.283-7.55-20.227-2.7-26.428-9.438-26.428-9.438-2.159,17.259-4.315,18.878-6.472,3.775-5.394-4.315,2.428-7.281,1.619-9.438-4.46-8.965-12.137-2.968C676.67,204.5,682.064,218.25,682.064,218.25Z" transform="translate(731.828 165.514)" fill="#263238"/>
        <path id="Path_26" data-name="Path 26" d="M677.718,198.056c-5.143-4.319-8.711-11.935-4.183-19.548s11.933-8.641,14.2-5.761,3.138,7.737,1.011,13.5" transform="translate(739.844 188.728)" fill="none" stroke="#2a1e33" stroke-linecap="round" stroke-linejoin="round" stroke-width="1"/>
        <path id="Path_27" data-name="Path 27" d="M617.275,448.234l2.573,5.913L611.912,485.1a10.59,10.59,0,0,0,3.34,10.651h0l39.287-58.077a13.505,13.505,0,0,0-2-17.463l-8.778-8.156Z" transform="translate(673.858 454.058)"/>
        <path id="Path_28" data-name="Path 28" d="M684.769,167.374s-3.008-9.785-12.025-12.362" transform="translate(741.258 170.814)" fill="none" stroke="#2a1e33" stroke-linecap="round" stroke-linejoin="round" stroke-width="1"/>
        <line id="Line_1" data-name="Line 1" y1="152.04" x2="108.842" transform="translate(1234.877 408.198)" fill="none" stroke="#2a1e17" stroke-linecap="round" stroke-linejoin="round" stroke-width="1"/>
        <path id="Path_29" data-name="Path 29" d="M662,199.261c-3.92,5.1-5.707,27.039,12.334,28.464s29.576-6.5,29.576-6.5" transform="translate(726.578 219.574)" fill="none" stroke="#2a1e17" stroke-linecap="round" stroke-linejoin="round" stroke-width="1"/>
        <path id="Path_30" data-name="Path 30" d="M546.015,165.9s12.441,16.469,14.4,22.333" transform="translate(601.61 182.811)" fill="none" stroke="#2a1e17" stroke-linecap="round" stroke-linejoin="round" stroke-width="1"/>
        <path id="Path_31" data-name="Path 31" d="M767.636,277.152S775.947,284,792.5,275.14c6-3.212,1.728-10.81-5.871-8.912s-16.62-.948-16.62-.948" transform="translate(845.823 292.323)" fill="none" stroke="#2a1e17" stroke-linecap="round" stroke-linejoin="round" stroke-width="1"/>
        <path id="Path_32" data-name="Path 32" d="M784.158,264.632s7.975,9.3,7.756,14.831" transform="translate(864.029 291.609)" fill="none" stroke="#2a1e17" stroke-linecap="round" stroke-linejoin="round" stroke-width="1"/>
        <path id="Path_33" data-name="Path 33" d="M728.323,269.532s7.21-9.608,16.427-10.266" transform="translate(802.503 285.696)" fill="none" stroke="#2a1e17" stroke-linecap="round" stroke-linejoin="round" stroke-width="1"/>
        <path id="Path_34" data-name="Path 34" d="M583.668,211.848s4.21-13.112,17.7-15.523" transform="translate(643.101 216.339)" fill="none" stroke="#2a1e17" stroke-linecap="round" stroke-linejoin="round" stroke-width="1"/>
        <path id="Path_35" data-name="Path 35" d="M629.821,298.385l-16.088,30.781s-53.055,89.784-35.054,147.79" transform="translate(633.497 328.803)" fill="none" stroke="#2a1e17" stroke-linecap="round" stroke-linejoin="round" stroke-width="1"/>
        <path id="Path_36" data-name="Path 36" d="M623.418,477.083l52.2-89.486s68.418-99.23,75.42-113.232L775.184,229.7" transform="translate(686.903 253.113)" fill="none" stroke="#2a1e17" stroke-linecap="round" stroke-linejoin="round" stroke-width="1"/>
        <path id="Path_37" data-name="Path 37" d="M590.993,271.068s92.828,67.68,120.357,70.941" transform="translate(651.173 298.701)" fill="none" stroke="#2a1e17" stroke-linecap="round" stroke-linejoin="round" stroke-width="1"/>
        <path id="Path_38" data-name="Path 38" d="M613.953,191.812s-.084,42.472,11.365,59.886" transform="translate(676.473 211.366)" fill="none" stroke="#2a1e17" stroke-linecap="round" stroke-linejoin="round" stroke-width="1"/>
        <path id="Path_39" data-name="Path 39" d="M733.118,231.6c-2.915,17.507-41.671,54.27-41.671,54.27" transform="translate(761.867 255.205)" fill="none" stroke="#2a1e17" stroke-linecap="round" stroke-linejoin="round" stroke-width="1"/>
        <path id="Path_40" data-name="Path 40" d="M706.911,256.121" transform="translate(778.908 282.23)" fill="#2a1e17"/>
        <path id="Path_41" data-name="Path 41" d="M789.613,315.892" transform="translate(870.04 348.094)" fill="#f9865f"/>
        <circle id="Ellipse_6" data-name="Ellipse 6" cx="5.512" cy="5.512" r="5.512" transform="translate(1200.329 693.803)" fill="#2a1e17"/>
        <path id="Path_42" data-name="Path 42" d="M821.35,400.105,818.3,379.021l17.984,11.956-9.411,2.052Z" transform="translate(901.656 417.659)" fill="none" stroke="#2a1e17" stroke-linecap="round" stroke-linejoin="round" stroke-width="1"/>
        <path id="Path_43" data-name="Path 43" d="M553.663,221.116c-34.079-30.068-90.39,44.91,115.67,283.56C788.2,642.343,881.595,654.69,894.244,606.795c22.7-85.927-59.273-107.649-28.773-73.993,44.353,48.937,170.507,59.277,264.513,13.608,92.759-45.061,35.744-115.041,29.984-119.123" transform="translate(572.936 236.723)" fill="none" stroke="#2a1e17" stroke-linecap="round" stroke-linejoin="round" stroke-width="1"/>
        <circle id="Ellipse_7" data-name="Ellipse 7" cx="5.512" cy="5.512" r="5.512" transform="translate(1698.893 777.192)" fill="#2a1e17"/>
        <line id="Line_2" data-name="Line 2" y1="92.093" x2="163.39" transform="translate(1624.196 735.602)" fill="none" stroke="#2a1e17" stroke-linecap="round" stroke-linejoin="round" stroke-width="1"/>
        <circle id="Ellipse_8" data-name="Ellipse 8" cx="5.512" cy="5.512" r="5.512" transform="translate(1124.486 456.782)" fill="#2a1e17"/>
        <circle id="Ellipse_9" data-name="Ellipse 9" cx="11.826" cy="11.826" r="11.826" transform="translate(1258.723 336.667)" fill="#ff6d66"/>
        <g id="Ellipse_10" data-name="Ellipse 10" transform="translate(1050.761 258.294)" fill="none" stroke="#a0c6f4" stroke-miterlimit="10" stroke-width="4">
          <circle cx="5.199" cy="5.199" r="5.199" stroke="none"/>
          <circle cx="5.199" cy="5.199" r="3.199" fill="none"/>
        </g>
        <circle id="Ellipse_11" data-name="Ellipse 11" cx="5.199" cy="5.199" r="5.199" transform="translate(1747.34 893.57)" fill="#fad8b0"/>
        <path id="Path_44" data-name="Path 44" d="M820.661,359.419l-55.886-26.226a5.8,5.8,0,0,1,.128-10.562l103.973-45.749a5.808,5.808,0,0,1,4.624-.021l71.416,30.655Z" transform="translate(838.993 304.567)" fill="#2a1e33"/>
        <path id="Path_45" data-name="Path 45" d="M787.966,306.754c.143,23.126,3.462,86.192,3.462,86.192l124.254-51.9-2.787-87.762a7.546,7.546,0,0,0-10.672-6.627L795.239,295.406A12.388,12.388,0,0,0,787.966,306.754Z" transform="translate(868.225 271.04)" fill="#c6cbcb"/>
        <path id="Path_46" data-name="Path 46" d="M789.613,392.882l124.254-51.9-2.787-87.762s-.828-9.581-10.672-6.627" transform="translate(870.04 271.104)" fill="none" stroke="#2a1e17" stroke-linecap="round" stroke-linejoin="round" stroke-width="1"/>
        <line id="Line_3" data-name="Line 3" y1="19.829" x2="8.389" transform="translate(1719.794 581.081)" fill="none" stroke="#2a1e17" stroke-linecap="round" stroke-linejoin="round" stroke-width="1"/>
        <line id="Line_4" data-name="Line 4" y1="19.829" x2="8.389" transform="translate(1728.183 581.081)" fill="none" stroke="#2a1e17" stroke-linecap="round" stroke-linejoin="round" stroke-width="1"/>
        <circle id="Ellipse_12" data-name="Ellipse 12" cx="5.199" cy="5.199" r="5.199" transform="translate(1073.173 806.81)" fill="#ff6d66"/>
        <circle id="Ellipse_13" data-name="Ellipse 13" cx="7.223" cy="7.223" r="7.223" transform="translate(1509.468 830.541)" fill="#ff6d66"/>
        <path id="Path_47" data-name="Path 47" d="M545.726,423.138c8.458,4.055,33.068,14.289,65.644,14.075a2.956,2.956,0,0,1,2.936,3.334l-4.536,36a2.959,2.959,0,0,1-2.4,2.543c-9.2,1.728-46.287,6.817-74.026-16.706a2.954,2.954,0,0,1-.923-3.014l9.167-34.316A2.957,2.957,0,0,1,545.726,423.138Z" transform="translate(586.521 465.951)" fill="#fff7dc"/>
        <path id="Path_48" data-name="Path 48" d="M540.25,428.018s16.025,22.518,21.74,25.742S598.556,438.6,598.556,438.6" transform="translate(595.257 471.651)" fill="none" stroke="#2a1e17" stroke-linecap="round" stroke-linejoin="round" stroke-width="1"/>
        <line id="Line_5" data-name="Line 5" x2="16.835" y2="17.305" transform="translate(1172.355 922.272)" fill="none" stroke="#2a1e17" stroke-linecap="round" stroke-linejoin="round" stroke-width="1"/>
        <line id="Line_6" data-name="Line 6" x1="19.692" y2="5.353" transform="translate(1129.275 918.937)" fill="none" stroke="#2a1e17" stroke-linecap="round" stroke-linejoin="round" stroke-width="1"/>
        <rect id="Rectangle_23" data-name="Rectangle 23" width="18.808" height="18.808" transform="translate(1628.93 463.241)" fill="#ffe1c0"/>
        <path id="Path_49" data-name="Path 49" d="M782.07,341.086l5.59,9.683,5.59,9.683H770.89l5.59-9.683Z" transform="translate(849.409 375.856)" fill="#a0c6f4"/>
        <path id="Path_50" data-name="Path 50" d="M561.156,165.907l1.457-43.958c-.154-4.105,1.517-5.413,4.046-5.972,11.941-2.64,48.239-10.733,87.72.937,5.1,1.509,4.938,4.208,4.856,6.64l-1.411,41.909c-.1,3.077-3.319,5.305-6.907,4.78-11.527-1.688-27.205-2.209-43.125-2.075-16.45.139-31.109,1.362-41.366,3.336C562.51,172.259,561.041,169.342,561.156,165.907Z" transform="translate(618.288 122.076)" fill="none" stroke="#2a1e17" stroke-linecap="round" stroke-linejoin="round" stroke-width="1"/>
        <path id="Path_51" data-name="Path 51" d="M567.473,148.052l22.978-26.9,25.438,25.1C607.12,143.4,567.473,148.052,567.473,148.052Z" transform="translate(625.255 133.503)" fill="none" stroke="#2a1e17" stroke-linecap="round" stroke-linejoin="round" stroke-width="1"/>
        <path id="Path_52" data-name="Path 52" d="M585.106,134.871,603.684,120l15.654,11.173.588,17.468-23.468-1.123" transform="translate(644.686 132.237)" fill="none" stroke="#2a1e17" stroke-linecap="round" stroke-linejoin="round" stroke-width="1"/>
        <ellipse id="Ellipse_14" data-name="Ellipse 14" cx="3.837" cy="4.524" rx="3.837" ry="4.524" transform="matrix(0.101, -0.995, 0.995, 0.101, 1193.347, 255.583)" fill="none" stroke="#2a1e17" stroke-linecap="round" stroke-linejoin="round" stroke-width="1"/>
        <path id="Path_53" data-name="Path 53" d="M804.859,410.038,820.275,438.5c1.623,2.55,1.049,4-.351,5.295-6.6,6.119-26.653,24.752-56.069,32.015-3.8.938-4.7-.837-5.553-2.411l-14.682-27.147c-1.078-1.993.137-4.6,2.611-5.6,7.949-3.212,18.1-8.711,28.166-14.714,10.4-6.2,19.254-12.429,25.036-17.5C801.639,406.507,803.655,407.814,804.859,410.038Z" transform="translate(818.923 449.042)" fill="none" stroke="#2a1e17" stroke-linecap="round" stroke-linejoin="round" stroke-width="1"/>
        <path id="Path_54" data-name="Path 54" d="M785.442,413l-4.6,25.629-25.49-6.489C761.989,430.693,785.442,413,785.442,413Z" transform="translate(832.29 455.101)" fill="none" stroke="#2a1e17" stroke-linecap="round" stroke-linejoin="round" stroke-width="1"/>
        <path id="Path_55" data-name="Path 55" d="M775.3,425.921l-6.274,16.35-14.1-1.278-6.867-10.877,15.324-8.011" transform="translate(824.257 465.134)" fill="none" stroke="#2a1e17" stroke-linecap="round" stroke-linejoin="round" stroke-width="1"/>
        <ellipse id="Ellipse_15" data-name="Ellipse 15" cx="3.33" cy="2.824" rx="3.33" ry="2.824" transform="translate(1620.938 887.597) rotate(-24.564)" fill="none" stroke="#2a1e17" stroke-linecap="round" stroke-linejoin="round" stroke-width="1"/>
        <path id="Path_56" data-name="Path 56" d="M737.483,187.927l62.627,47.935a3.094,3.094,0,0,0,4.37-.62l9.456-12.816a3.094,3.094,0,0,0-.557-4.252l-61.745-49.4a3.092,3.092,0,0,0-4.437.6l-10.339,14.287A3.091,3.091,0,0,0,737.483,187.927Z" transform="translate(811.26 185.227)" fill="#fff" stroke="#2a1e17" stroke-linecap="round" stroke-linejoin="round" stroke-width="1"/>
        <path id="Path_57" data-name="Path 57" d="M739.053,183.173l15.188,10.657,8.962-10.7-15.191-12.67Z" transform="translate(814.326 187.842)"/>
        <path id="Path_58" data-name="Path 58" d="M749,189l15.207,12.066,8.152-10.028-15.309-12.422Z" transform="translate(825.286 196.826)" fill="#acd4f7"/>
        <path id="Path_59" data-name="Path 59" d="M758.667,197.1l15.188,10.657,7.234-9.3L766.7,186.424Z" transform="translate(835.94 205.428)"/>
        <path id="Path_60" data-name="Path 60" d="M796.316,150.472,810.586,270.4a4.738,4.738,0,0,0,5.347,4.135l24.164-3.308a4.737,4.737,0,0,0,4.072-5.152L832.456,145.547a4.737,4.737,0,0,0-5.4-4.229l-26.72,3.908A4.736,4.736,0,0,0,796.316,150.472Z" transform="translate(877.389 155.668)" fill="#fff" stroke="#2a1e17" stroke-linecap="round" stroke-linejoin="round" stroke-width="1"/>
        <path id="Path_61" data-name="Path 61" d="M799.77,148.94l4.522,28.051,21.31-1.586-2.317-30.2Z" transform="translate(881.233 160.003)" fill="#acd4f7"/>
        <path id="Path_62" data-name="Path 62" d="M802.656,166.6l3,29.576,19.713-1.763-2.715-30.068Z" transform="translate(884.414 181.104)"/>
        <path id="Path_63" data-name="Path 63" d="M804.261,185.874l4.522,28.051,17.928-1.987-2.15-28.647Z" transform="translate(886.182 201.976)" fill="#acd4f7"/>
        <path id="Path_64" data-name="Path 64" d="M781.582,165.681,821.1,281.847a3.766,3.766,0,0,0,4.843,2.331l24.755-8.91a3.772,3.772,0,0,0,2.316-4.683l-37.11-117.313a3.768,3.768,0,0,0-4.9-2.4l-27.163,10.06A3.77,3.77,0,0,0,781.582,165.681Z" transform="translate(860.968 165.993)" fill="#fff" stroke="#2a1e17" stroke-linecap="round" stroke-linejoin="round" stroke-width="1"/>
        <path id="Path_65" data-name="Path 65" d="M785.295,163.282l10.257,26.5,20.514-5.983-8.548-29.062Z" transform="translate(865.282 170.508)"/>
        <path id="Path_66" data-name="Path 66" d="M791.953,179.576l9.083,28.306,18.915-5.823-8.908-28.846Z" transform="translate(872.619 190.87)" fill="#acd4f7"/>
        <path id="Path_67" data-name="Path 67" d="M797.494,198.124l10.257,26.5,17.123-5.672-8.06-27.573Z" transform="translate(878.725 210.885)"/>
        <rect id="Rectangle_24" data-name="Rectangle 24" width="222.62" height="50.046" rx="5.484" transform="translate(1133.616 478.404)" fill="#7595ec"/>
        <rect id="Rectangle_25" data-name="Rectangle 25" width="116.412" height="7.616" rx="1.812" transform="translate(1157.335 493.138)" fill="#fff"/>
        <line id="Line_7" data-name="Line 7" x2="184.953" transform="translate(1158.423 510.619)" fill="none" stroke="#2a1e17" stroke-linecap="round" stroke-linejoin="round" stroke-width="1"/>
        <path id="Rectangle_26" data-name="Rectangle 26" d="M0,0H6.541a1.7,1.7,0,0,1,1.7,1.7V12.422a1.7,1.7,0,0,1-1.7,1.7H0a0,0,0,0,1,0,0V0A0,0,0,0,1,0,0Z" transform="matrix(0.674, 0.738, -0.738, 0.674, 1063.796, 384.263)"/>
        <rect id="Rectangle_27" data-name="Rectangle 27" width="26.126" height="18.009" rx="0.98" transform="matrix(-0.674, -0.738, 0.738, -0.674, 1051.702, 395.31)" fill="none" stroke="#2a1e17" stroke-linecap="round" stroke-linejoin="round" stroke-width="1"/>
        <rect id="Rectangle_28" data-name="Rectangle 28" width="18.647" height="17.026" transform="translate(1001.318 451.375)" fill="#ff6d66"/>
        <path id="Path_68" data-name="Path 68" d="M482.257,209.53v10.956H471.1" transform="translate(519.061 230.89)" fill="none" stroke="#2a1e17" stroke-linecap="round" stroke-linejoin="round" stroke-width="1"/>
        <rect id="Rectangle_29" data-name="Rectangle 29" width="18.647" height="17.026" transform="translate(1615.609 259.112)" fill="#fad8b0"/>
        <path id="Path_69" data-name="Path 69" d="M774.506,118.06v10.956H763.352" transform="translate(841.103 130.095)" fill="none" stroke="#2a1e17" stroke-linecap="round" stroke-linejoin="round" stroke-width="1"/>
        <path id="Path_70" data-name="Path 70" d="M633.741,184.543c-193.3-80.13-342.116,74.194,22.266,310.509C684.7,513.661,728.7,520.19,728.7,520.19" transform="translate(477.217 179.805)" fill="none" stroke="#2a1e17" stroke-linecap="round" stroke-linejoin="round" stroke-width="1"/>
        <circle id="Ellipse_16" data-name="Ellipse 16" cx="5.512" cy="5.512" r="5.512" transform="translate(927.659 364.225)" fill="#2a1e17"/>
        <path id="Path_71" data-name="Path 71" d="M427.3,164.546l6.032-5.791,13.868,7.935,6.97,21.507-21.286-8.908Z" transform="translate(470.794 174.938)" fill="none" stroke="#2a1e17" stroke-linecap="round" stroke-linejoin="round" stroke-width="1"/>
        <path id="Path_72" data-name="Path 72" d="M435.1,160.779l-6.032,5.791-3.378-4.1,5.791-5.55Z" transform="translate(469.023 172.914)" fill="none" stroke="#2a1e17" stroke-linecap="round" stroke-linejoin="round" stroke-width="1"/>
        <line id="Line_8" data-name="Line 8" x1="13.842" y1="15.208" transform="translate(911.124 347.927)" fill="none" stroke="#2a1e17" stroke-linecap="round" stroke-linejoin="round" stroke-width="1"/>
        <path id="Path_73" data-name="Path 73" d="M456.055,360.276,471.081,437.7a3.091,3.091,0,0,0,3.678,2.436l15.58-3.308a3.1,3.1,0,0,0,2.407-3.55l-13.389-77.934a3.093,3.093,0,0,0-3.718-2.5l-17.217,3.821A3.1,3.1,0,0,0,456.055,360.276Z" transform="translate(502.416 388.734)" fill="#fff" stroke="#2a1e17" stroke-linecap="round" stroke-linejoin="round" stroke-width="1"/>
        <path id="Path_74" data-name="Path 74" d="M458.351,358.911l4.286,18.052,13.8-2.052-2.952-19.56Z" transform="translate(505.009 391.577)" fill="#acd4f7"/>
        <path id="Path_75" data-name="Path 75" d="M461.112,370.188l3.366,19.118,12.753-2.09-3.2-19.452Z" transform="translate(508.051 405.255)"/>
        <path id="Path_76" data-name="Path 76" d="M463.069,382.669l4.286,18.052,11.581-2.151-2.769-18.553Z" transform="translate(510.209 418.756)" fill="#acd4f7"/>
        <path id="Path_77" data-name="Path 77" d="M660.71,457.567l63.5-17,2.422,6.881-64.211,16.669Z" transform="translate(727.997 485.481)" fill="none" stroke="#2a1e17" stroke-linecap="round" stroke-linejoin="round" stroke-width="1"/>
        <line id="Line_9" data-name="Line 9" x2="1.832" y2="5.765" transform="translate(1379.897 934.168)" fill="none" stroke="#2a1e17" stroke-linecap="round" stroke-linejoin="round" stroke-width="1"/>
        <line id="Line_10" data-name="Line 10" y1="1.84" x2="5.358" transform="translate(1378.108 936.088)" fill="none" stroke="#2a1e17" stroke-linecap="round" stroke-linejoin="round" stroke-width="1"/>
        <line id="Line_11" data-name="Line 11" x2="3.455" y2="10.876" transform="translate(1376.815 956.183)" fill="none" stroke="#2a1e17" stroke-linecap="round" stroke-linejoin="round" stroke-width="1"/>
        <line id="Line_12" data-name="Line 12" y1="3.031" x2="9.54" transform="translate(1373.873 960.048)" fill="none" stroke="#2a1e17" stroke-linecap="round" stroke-linejoin="round" stroke-width="1"/>
        <line id="Line_13" data-name="Line 13" x2="4.507" y2="14.403" transform="translate(1362.305 938.235)" fill="none" stroke="#2a1e17" stroke-linecap="round" stroke-linejoin="round" stroke-width="1"/>
        <line id="Line_14" data-name="Line 14" y1="4.268" x2="13.371" transform="translate(1357.826 942.936)" fill="none" stroke="#2a1e17" stroke-linecap="round" stroke-linejoin="round" stroke-width="1"/>
        <path id="Path_78" data-name="Path 78" d="M461.514,132.416l-40.182-18.138,1.665-4.6,40.413,18.613Z" transform="translate(464.216 120.857)" fill="none" stroke="#2a1e17" stroke-linecap="round" stroke-linejoin="round" stroke-width="0.671"/>
        <line id="Line_15" data-name="Line 15" y1="3.771" x2="1.497" transform="translate(926.532 257.852)" fill="none" stroke="#2a1e17" stroke-linecap="round" stroke-linejoin="round" stroke-width="0.671"/>
        <line id="Line_16" data-name="Line 16" x1="3.563" y1="1.32" transform="translate(925.494 259.112)" fill="none" stroke="#2a1e17" stroke-linecap="round" stroke-linejoin="round" stroke-width="0.671"/>
        <line id="Line_17" data-name="Line 17" y1="7.113" x2="2.824" transform="translate(937.48 244.39)" fill="none" stroke="#2a1e17" stroke-linecap="round" stroke-linejoin="round" stroke-width="0.671"/>
        <line id="Line_18" data-name="Line 18" x1="6.24" y1="2.478" transform="translate(935.696 246.695)" fill="none" stroke="#2a1e17" stroke-linecap="round" stroke-linejoin="round" stroke-width="0.671"/>
        <line id="Line_19" data-name="Line 19" y1="9.391" x2="3.776" transform="translate(937.392 257.591)" fill="none" stroke="#2a1e17" stroke-linecap="round" stroke-linejoin="round" stroke-width="0.671"/>
        <line id="Line_20" data-name="Line 20" x1="8.754" y1="3.462" transform="translate(934.772 260.766)" fill="none" stroke="#2a1e17" stroke-linecap="round" stroke-linejoin="round" stroke-width="0.671"/>
        <path id="Path_79" data-name="Path 79" d="M536.47,328.888c-28.322-20.391-56.149-52.08-43.943-84.63,0,0,19.531-13.019,50.455,3.256L573.9,263.789Z" transform="translate(539.418 263.725)" fill="#acd4f7"/>
        <g id="Path_80" data-name="Path 80" transform="translate(514.617 266.309)" fill="#fff" stroke-miterlimit="10">
          <path d="M 549.1830444335938 464.326416015625 C 547.4215698242188 463.5307922363281 543.9418334960938 461.89501953125 539.4149780273438 459.4499206542969 C 533.3133544921875 456.1541137695312 524.0056762695312 450.6709594726562 514.3146362304688 443.2656860351562 C 503.4501037597656 434.9636840820312 494.3255310058594 425.9857482910156 487.1944885253906 416.581298828125 C 482.9737548828125 411.0149536132812 479.4139709472656 405.2358093261719 476.6141662597656 399.4043579101562 C 473.5410461425781 393.0036926269531 471.3072204589844 386.3802795410156 469.9747924804688 379.7180786132812 C 468.6435852050781 373.0621032714844 468.2571105957031 365.69921875 468.8261108398438 357.8338317871094 C 469.3457946777344 350.6505737304688 470.6734924316406 342.8892822265625 472.7723693847656 334.7655334472656 C 476.3197631835938 321.0351867675781 482.1045227050781 306.038330078125 489.9658813476562 290.1915893554688 C 493.833740234375 282.3948974609375 500.3335266113281 270.1564025878906 509.3335876464844 256.1285095214844 C 510.9086303710938 253.6735534667969 512.3458862304688 251.4990997314453 513.5923461914062 249.6494750976562 C 512.6487426757812 255.0008697509766 512.6435546875 260.4765014648438 513.5828857421875 266.0123291015625 C 514.87890625 273.6499633789062 517.9883422851562 281.4971008300781 522.824951171875 289.3357849121094 C 533.0430908203125 305.8964538574219 548.8953857421875 319.2416687011719 560.39453125 327.520751953125 C 568.7178955078125 333.513427734375 576.1234741210938 338.0888366699219 583.7001953125 341.9197692871094 C 590.0701904296875 345.1405334472656 596.7222900390625 347.9673767089844 606.3701782226562 351.5421447753906 L 549.1830444335938 464.326416015625 Z" stroke="none"/>
          <path d="M 511.4280395507812 255.6478576660156 C 511.1636962890625 256.0559997558594 510.8948364257812 256.4730224609375 510.6217651367188 256.8984985351562 C 501.6578979492188 270.8659362792969 495.1837158203125 283.052001953125 491.3309326171875 290.8152770996094 C 483.5094604492188 306.5755615234375 477.7562255859375 321.4806518554688 474.23095703125 335.1165771484375 C 469.8736572265625 351.9710083007812 468.9365234375 366.8781433105469 471.4456787109375 379.4239196777344 C 472.752197265625 385.956787109375 474.9429931640625 392.4543151855469 477.9571533203125 398.7359924316406 C 480.70947265625 404.4720153808594 484.2110595703125 410.1599731445312 488.3645629882812 415.6418762207031 C 495.40478515625 424.9336853027344 504.4223022460938 433.8115234375 515.1665649414062 442.0289001464844 C 524.7753295898438 449.3777770996094 534.0098876953125 454.822509765625 540.0648193359375 458.0960083007812 C 543.6488037109375 460.0337219238281 546.572509765625 461.4603881835938 548.4981079101562 462.3604736328125 L 604.2730102539062 352.3613891601562 C 595.4078369140625 349.0382690429688 589.0933227539062 346.3274536132812 583.0233764648438 343.2583923339844 C 575.3753051757812 339.3913879394531 567.9063720703125 334.7774353027344 559.51806640625 328.7380676269531 C 547.9081420898438 320.3791809082031 531.8964233398438 306.8946228027344 521.5484008789062 290.1234130859375 C 516.6100463867188 282.1197814941406 513.4324951171875 274.092041015625 512.1040649414062 266.2632446289062 C 511.4986572265625 262.6954650878906 511.2738647460938 259.1514587402344 511.4280395507812 255.6478576660156 M 517.3277587890625 241.6730346679688 C 505.121826171875 274.2236633300781 532.9492797851562 305.9125061035156 561.2709350585938 326.3034362792969 C 578.2650146484375 338.5388488769531 590.1600341796875 344.0038757324219 608.4701538085938 350.7174682617188 L 549.8784790039062 466.271728515625 C 549.8784790039062 466.271728515625 479.8963623046875 436.9749450683594 468.50390625 380.0122680664062 C 457.1114501953125 323.0496215820312 517.3277587890625 241.6730346679688 517.3277587890625 241.6730346679688 Z" stroke="none" fill="#acd4f7"/>
        </g>
        <path id="Path_81" data-name="Path 81" d="M483.447,264.171s3.5,32.689,36.191,50.2" transform="translate(532.664 291.101)" fill="none" stroke="#2a1e17" stroke-linecap="round" stroke-linejoin="round" stroke-width="1"/>
        <line id="Line_21" data-name="Line 21" x2="32.69" y2="17.512" transform="translate(1069.814 617.149)" fill="none" stroke="#2a1e17" stroke-linecap="round" stroke-linejoin="round" stroke-width="1"/>
        <path id="Path_82" data-name="Path 82" d="M485.668,286.389s10.508,23.348,44.366,38.526" transform="translate(535.111 315.584)" fill="none" stroke="#2a1e17" stroke-linecap="round" stroke-linejoin="round" stroke-width="1"/>
        <path id="Path_83" data-name="Path 83" d="M472.894,288.055s1.167,24.517,17.511,32.689" transform="translate(521.035 317.42)" fill="none" stroke="#2a1e17" stroke-linecap="round" stroke-linejoin="round" stroke-width="1"/>
        <path id="Path_84" data-name="Path 84" d="M490.687,247.508s-3.029,31.487,44.6,72.366" transform="translate(540.599 272.739)" fill="none" stroke="#2a1e17" stroke-linecap="round" stroke-linejoin="round" stroke-width="1"/>
        <path id="Path_85" data-name="Path 85" d="M499,250.295s15.176-1.167,37.36,15.178" transform="translate(549.801 275.79)" fill="none" stroke="#2a1e17" stroke-linecap="round" stroke-linejoin="round" stroke-width="1"/>
        <path id="Path_86" data-name="Path 86" d="M465.116,298.111c-.977,15.615.975,72.216,82.949,108.324" transform="translate(512.311 328.501)" fill="none" stroke="#2a1e17" stroke-linecap="round" stroke-linejoin="round" stroke-width="1"/>
        <path id="Path_87" data-name="Path 87" d="M732.3,283.13l-34.77,69.686s23.584,8.679,5.148,35.712c0,0,43.588,18.077,72.109-28.872S732.3,283.13,732.3,283.13Z" transform="translate(768.571 311.993)" fill="#acd4f7"/>
        <g id="Path_88" data-name="Path 88" transform="translate(713.942 352.111)" fill="#fff" stroke-miterlimit="10">
          <path d="M 707.3512573242188 457.6270446777344 C 698.6377563476562 457.6270446777344 689.6033325195312 455.8901977539062 680.4966430664062 452.4642944335938 C 675.4896240234375 450.5806884765625 670.3660888671875 448.1493530273438 665.2684326171875 445.2378234863281 C 660.2189331054688 442.3538513183594 655.0653076171875 438.9247131347656 649.933837890625 435.0352478027344 L 716.6214599609375 324.5615234375 L 756.5092163085938 349.6786499023438 L 756.61669921875 349.7463684082031 L 756.7340698242188 349.7950134277344 C 756.8226928710938 349.8317260742188 758.9457397460938 350.7046813964844 762.5387573242188 351.5773010253906 C 765.8312377929688 352.3769226074219 771.05224609375 353.3302001953125 777.227783203125 353.3305969238281 C 777.2286987304688 353.3305969238281 777.2308349609375 353.3305969238281 777.2317504882812 353.3305969238281 C 788.6546630859375 353.3305969238281 803.6753540039062 350.1127319335938 817.4625854492188 337.0174560546875 L 765.2532958984375 426.3374328613281 C 765.0802001953125 426.5946655273438 763.7769165039062 428.5039672851562 761.4353637695312 431.2279357910156 C 759.1253662109375 433.9151306152344 755.3023071289062 437.9689331054688 750.2073364257812 442.0205688476562 C 744.499755859375 446.5593566894531 738.3880615234375 450.1734924316406 732.0420532226562 452.7626037597656 C 724.1318969726562 455.9898681640625 715.826171875 457.6264953613281 707.3555297851562 457.6270446777344 C 707.3544921875 457.6270446777344 707.352294921875 457.6270446777344 707.3512573242188 457.6270446777344 Z" stroke="none"/>
          <path d="M 717.1156616210938 326.6453247070312 L 651.9183959960938 434.6501770019531 C 656.6407470703125 438.1675415039062 661.3720703125 441.2849731445312 666.0122680664062 443.9351501464844 C 671.041015625 446.8071594238281 676.0919189453125 449.2043151855469 681.0247192382812 451.0599365234375 C 689.962646484375 454.4222106933594 698.8216552734375 456.1270446777344 707.3556518554688 456.1270446777344 C 715.6102294921875 456.1270446777344 723.7057495117188 454.5361328125 731.4173583984375 451.3984680175781 C 737.6221313476562 448.8739013671875 743.6028442382812 445.3455200195312 749.193359375 440.9112854003906 C 754.2009887695312 436.9393615722656 757.9622192382812 432.9608459472656 760.2357177734375 430.3226928710938 C 762.4754028320312 427.7236938476562 763.7527465820312 425.8773193359375 763.9827880859375 425.5385437011719 L 811.853271484375 343.6414794921875 C 809.4395751953125 345.3931579589844 806.9366455078125 346.9446105957031 804.34814453125 348.2921752929688 C 796.0142822265625 352.6307678222656 786.8896484375 354.8305969238281 777.2278442382812 354.8305969238281 C 765.102294921875 354.8305969238281 756.5189208984375 351.3296203613281 756.1594848632812 351.1805725097656 L 755.9248657226562 351.0833129882812 L 755.7098999023438 350.9479675292969 L 717.1156616210938 326.6453247070312 M 829.417724609375 319.5369873046875 L 766.5255126953125 427.1333312988281 C 766.5255126953125 427.1333312988281 745.442138671875 459.1270446777344 707.3556518554688 459.1270446777344 C 690.6948852539062 459.1270446777344 670.7840576171875 453.0079040527344 647.955078125 435.4107055664062 L 716.1272583007812 322.4776916503906 L 757.3084716796875 348.4093322753906 C 757.3084716796875 348.4093322753906 765.5601196289062 351.8305969238281 777.2278442382812 351.8305969238281 C 792.3826293945312 351.8305969238281 813.3031005859375 346.0632629394531 829.417724609375 319.5369873046875 Z" stroke="none" fill="#acd4f7"/>
        </g>
        <path id="Path_89" data-name="Path 89" d="M697.531,316.283s25.934,9.156,5.148,35.712" transform="translate(768.571 348.525)" fill="none" stroke="#2a1e17" stroke-linecap="round" stroke-linejoin="round" stroke-width="1"/>
        <path id="Path_90" data-name="Path 90" d="M680.005,319.785s35.323,32.357,54.88,32.139,42.487-4.874,56.015-28.2" transform="translate(749.259 352.384)" fill="none" stroke="#2a1e17" stroke-linecap="round" stroke-linejoin="round" stroke-width="1"/>
        <path id="Path_91" data-name="Path 91" d="M682.066,339.7s24.248,21.53,51.361,14.615" transform="translate(751.53 374.329)" fill="none" stroke="#2a1e17" stroke-linecap="round" stroke-linejoin="round" stroke-width="1"/>
        <path id="Path_92" data-name="Path 92" d="M694.182,355.007s12.723,9.534,30.505.517" transform="translate(764.881 391.197)" fill="none" stroke="#2a1e17" stroke-linecap="round" stroke-linejoin="round" stroke-width="1"/>
        <path id="Path_93" data-name="Path 93" d="M666.341,361.319s29.354,29.19,75.56,9.936" transform="translate(734.202 398.152)" fill="none" stroke="#2a1e17" stroke-linecap="round" stroke-linejoin="round" stroke-width="1"/>
        <path id="Path_94" data-name="Path 94" d="M673.94,347.773s11.977,8.563,19.479,11.3" transform="translate(742.575 383.225)" fill="none" stroke="#2a1e17" stroke-linecap="round" stroke-linejoin="round" stroke-width="1"/>
        <path id="Path_95" data-name="Path 95" d="M716.914,292.753s26.8,8.765,30.009,44.126" transform="translate(789.93 322.596)" fill="none" stroke="#2a1e17" stroke-linecap="round" stroke-linejoin="round" stroke-width="1"/>
        <path id="Path_96" data-name="Path 96" d="M727.786,313.543s12.338,19.092-8.515,38.186" transform="translate(792.528 345.506)" fill="none" stroke="#2a1e17" stroke-linecap="round" stroke-linejoin="round" stroke-width="1"/>
        <path id="Path_97" data-name="Path 97" d="M649.137,382.315s67.294,57.633,116.13-9.759" transform="translate(715.244 410.535)" fill="none" stroke="#2a1e17" stroke-linecap="round" stroke-linejoin="round" stroke-width="1"/>
        <line id="Line_22" data-name="Line 22" x2="15.687" transform="translate(878.653 573.372)" fill="none" stroke="#ff6d66" stroke-linecap="round" stroke-linejoin="round" stroke-width="1"/>
        <line id="Line_23" data-name="Line 23" x2="15.687" transform="translate(1752.539 384.688)" fill="none" stroke="#ff6d66" stroke-linecap="round" stroke-linejoin="round" stroke-width="1"/>
        <line id="Line_24" data-name="Line 24" x2="15.687" transform="translate(1331.845 277.054)" fill="none" stroke="#fad8b0" stroke-miterlimit="10" stroke-width="1"/>
        <line id="Line_25" data-name="Line 25" x2="15.44" y2="2.774" transform="translate(1782.489 466.055)" fill="none" stroke="#fad8b0" stroke-miterlimit="10" stroke-width="1"/>
        <line id="Line_26" data-name="Line 26" x2="15.687" transform="translate(1166.255 857.489)" fill="none" stroke="#a0c6f4" stroke-linecap="round" stroke-linejoin="round" stroke-width="1"/>
        <circle id="Ellipse_17" data-name="Ellipse 17" cx="5.199" cy="5.199" r="5.199" transform="translate(1811.088 656.734)" fill="#91ba83"/>
        <circle id="Ellipse_52" data-name="Ellipse 52" cx="11.826" cy="11.826" r="11.826" transform="translate(1258.723 336.667)" fill="#ff6d66"/>
        <circle id="Ellipse_53" data-name="Ellipse 53" cx="5.199" cy="5.199" r="5.199" transform="translate(1073.172 806.811)" fill="#ff6d66"/>
        <circle id="Ellipse_54" data-name="Ellipse 54" cx="7.223" cy="7.223" r="7.223" transform="translate(1509.467 830.541)" fill="#ff6d66"/>
        <rect id="Rectangle_183" data-name="Rectangle 183" width="18.808" height="18.808" transform="translate(1628.93 463.241)" fill="#ffe1c0"/>
        <path id="Path_1315" data-name="Path 1315" d="M782.07,341.086l5.59,9.683,5.59,9.683H770.89l5.59-9.683Z" transform="translate(849.408 375.856)" fill="#a0c6f4"/>
      </g>
      <path id="Path_1305" data-name="Path 1305" d="M334.818,209.844a2.61,2.61,0,0,1-3.307,1.529,2.5,2.5,0,0,1-1.644-3.175,2.613,2.613,0,0,1,3.3-1.533A2.5,2.5,0,0,1,334.818,209.844Z" transform="translate(-18226.002 -10844.488)"/>
      <path id="Path_1306" data-name="Path 1306" d="M322.1,205.563a2.611,2.611,0,0,1-3.307,1.531,2.5,2.5,0,0,1-1.644-3.177,2.613,2.613,0,0,1,3.307-1.531A2.5,2.5,0,0,1,322.1,205.563Z" transform="translate(-18232.68 -10846.278)"/>
      <path id="Path_1307" data-name="Path 1307" d="M321.524,220.741c.044-.145,1.69.194,4.311.857.659.184,1.308.293,1.584-.1a3.463,3.463,0,0,0,.315-2.042q.01-2.647.024-5.555c.1-7.885.436-14.266.753-14.259s.5,6.4.4,14.287q-.061,2.908-.114,5.553a3.937,3.937,0,0,1-.649,2.613,1.7,1.7,0,0,1-1.4.516,4.64,4.64,0,0,1-1.134-.273C323.042,221.487,321.48,220.886,321.524,220.741Z" transform="translate(-18178.867 -10904.817) rotate(13)"/>
      <path id="Path_1308" data-name="Path 1308" d="M225.392,95.343a10.869,10.869,0,0,1-8.836-4.588A1.194,1.194,0,1,1,218.52,89.4a8.526,8.526,0,0,0,8.066,3.466,1.193,1.193,0,1,1,.369,2.358A10.046,10.046,0,0,1,225.392,95.343Z" transform="translate(-18143.629 -10700.951)"/>
    </g>
  </g>
</svg>
