<svg xmlns="http://www.w3.org/2000/svg" width="113.718" height="95.247" viewBox="0 0 113.718 95.247">
  <g id="icon_analytics" transform="translate(-119.017 -670.912)">
    <g id="Group_1314" data-name="Group 1314" transform="translate(115.154 667.534)">
      <g id="Group_1266" data-name="Group 1266" transform="translate(0 0)">
        <g id="Group_1263" data-name="Group 1263" transform="translate(4.863 4.378)">
          <g id="Group_1262" data-name="Group 1262">
            <rect id="Rectangle_158" data-name="Rectangle 158" width="111.718" height="93.247" fill="#fff" stroke="#000" stroke-width="2"/>
          </g>
        </g>
      </g>
      <g id="Group_1281" data-name="Group 1281" transform="translate(19.067 54.975)">
        <g id="Group_1276" data-name="Group 1276" transform="translate(1.43 1.431)">
          <g id="Group_1275" data-name="Group 1275">
            <rect id="Rectangle_159" data-name="Rectangle 159" width="9.567" height="29.333" fill="#fff" stroke="#000" stroke-width="1"/>
          </g>
        </g>
        <g id="Group_1280" data-name="Group 1280">
          <g id="Group_1279" data-name="Group 1279">
            <path id="Path_873" data-name="Path 873" d="M130.12,725.352h-9.567a1.431,1.431,0,0,1-1.43-1.43V694.588a1.431,1.431,0,0,1,1.43-1.43h9.567a1.431,1.431,0,0,1,1.43,1.43v29.333A1.431,1.431,0,0,1,130.12,725.352Zm-8.137-2.86h6.706V696.018h-6.706Z" transform="translate(-119.123 -693.158)" fill="none"/>
          </g>
        </g>
      </g>
      <g id="Group_1288" data-name="Group 1288" transform="translate(35.819 48.756)">
        <g id="Group_1283" data-name="Group 1283" transform="translate(1.431 1.431)">
          <g id="Group_1282" data-name="Group 1282">
            <rect id="Rectangle_161" data-name="Rectangle 161" width="9.577" height="35.551" fill="#fff" stroke="#000" stroke-width="1"/>
          </g>
        </g>
        <g id="Group_1287" data-name="Group 1287">
          <g id="Group_1286" data-name="Group 1286">
            <path id="Path_874" data-name="Path 874" d="M138.916,728.309h-9.578a1.431,1.431,0,0,1-1.43-1.43V691.327a1.431,1.431,0,0,1,1.43-1.43h9.578a1.431,1.431,0,0,1,1.43,1.43v35.552A1.431,1.431,0,0,1,138.916,728.309Zm-8.148-2.86h6.718V692.757h-6.718Z" transform="translate(-127.908 -689.897)" fill="none"/>
          </g>
        </g>
      </g>
      <g id="Group_1295" data-name="Group 1295" transform="translate(52.578 42.597)">
        <g id="Group_1290" data-name="Group 1290" transform="translate(1.431 1.43)">
          <g id="Group_1289" data-name="Group 1289">
            <rect id="Rectangle_163" data-name="Rectangle 163" width="9.579" height="41.711" fill="#fff" stroke="#000" stroke-width="1"/>
          </g>
        </g>
        <g id="Group_1294" data-name="Group 1294">
          <g id="Group_1293" data-name="Group 1293">
            <path id="Path_875" data-name="Path 875" d="M147.707,731.238h-9.58a1.431,1.431,0,0,1-1.43-1.43V688.1a1.431,1.431,0,0,1,1.43-1.43h9.58a1.431,1.431,0,0,1,1.43,1.43v41.711A1.431,1.431,0,0,1,147.707,731.238Zm-8.15-2.86h6.72v-38.85h-6.72Z" transform="translate(-136.697 -686.667)" fill="none"/>
          </g>
        </g>
      </g>
      <g id="Group_1302" data-name="Group 1302" transform="translate(69.33 36.205)">
        <g id="Group_1297" data-name="Group 1297" transform="translate(1.431 1.431)">
          <g id="Group_1296" data-name="Group 1296">
            <rect id="Rectangle_165" data-name="Rectangle 165" width="9.579" height="48.102" fill="#fff" stroke="#000" stroke-width="1"/>
          </g>
        </g>
        <g id="Group_1301" data-name="Group 1301">
          <g id="Group_1300" data-name="Group 1300">
            <path id="Path_876" data-name="Path 876" d="M156.492,734.278h-9.58a1.431,1.431,0,0,1-1.43-1.43v-48.1a1.431,1.431,0,0,1,1.43-1.43h9.58a1.431,1.431,0,0,1,1.43,1.43v48.1A1.431,1.431,0,0,1,156.492,734.278Zm-8.15-2.86h6.72V686.175h-6.72Z" transform="translate(-145.482 -683.315)" fill="none"/>
          </g>
        </g>
      </g>
      <g id="Group_1309" data-name="Group 1309" transform="translate(86.093 28.944)">
        <g id="Group_1304" data-name="Group 1304" transform="translate(1.431 1.43)">
          <g id="Group_1303" data-name="Group 1303">
            <rect id="Rectangle_167" data-name="Rectangle 167" width="9.576" height="55.364" fill="#fff" stroke="#000" stroke-width="1"/>
          </g>
        </g>
        <g id="Group_1308" data-name="Group 1308">
          <g id="Group_1307" data-name="Group 1307">
            <path id="Path_877" data-name="Path 877" d="M165.279,737.731H155.7a1.431,1.431,0,0,1-1.43-1.43V680.937a1.431,1.431,0,0,1,1.43-1.43h9.576a1.431,1.431,0,0,1,1.43,1.43V736.3A1.431,1.431,0,0,1,165.279,737.731Zm-8.146-2.86h6.716v-52.5h-6.716Z" transform="translate(-154.273 -679.507)" fill="none"/>
          </g>
        </g>
      </g>
      <g id="Group_1311" data-name="Group 1311" transform="translate(18.226 16.453)">
        <g id="Group_1310" data-name="Group 1310">
          <path id="Path_878" data-name="Path 878" d="M120.112,702.905a1.43,1.43,0,0,1-.37-2.811c.54-.145,54.01-14.578,68.26-26.793a1.43,1.43,0,1,1,1.863,2.17c-14.742,12.639-67.158,26.789-69.381,27.386A1.463,1.463,0,0,1,120.112,702.905Z" transform="translate(-118.682 -672.956)"/>
        </g>
      </g>
      <g id="Group_1313" data-name="Group 1313" transform="translate(80.05 13.709)">
        <g id="Group_1312" data-name="Group 1312">
          <path id="Path_879" data-name="Path 879" d="M159.33,683.82a1.525,1.525,0,0,1-.4-.055,1.432,1.432,0,0,1-.974-1.773l2.048-7.059-7.128,1.758a1.431,1.431,0,0,1-.686-2.778l9.538-2.353a1.432,1.432,0,0,1,1.716,1.789l-2.742,9.441A1.429,1.429,0,0,1,159.33,683.82Z" transform="translate(-151.104 -671.517)" fill="#231f20"/>
        </g>
      </g>
    </g>
  </g>
</svg>
