<svg xmlns="http://www.w3.org/2000/svg" width="43.722" height="43.723" viewBox="0 0 43.722 43.723">
  <path id="icon_instagram" d="M21.861,12.889A11.21,11.21,0,1,0,33.068,24.1,11.191,11.191,0,0,0,21.861,12.889Zm0,18.5A7.288,7.288,0,1,1,29.147,24.1a7.3,7.3,0,0,1-7.286,7.288ZM36.14,12.43a2.614,2.614,0,1,1-2.614-2.615A2.608,2.608,0,0,1,36.14,12.43Zm7.423,2.654c-.166-3.5-.966-6.6-3.531-9.161s-5.657-3.356-9.159-3.532c-3.609-.2-14.426-.2-18.035,0-3.492.166-6.594.966-9.159,3.522S.324,11.572.148,15.074c-.2,3.61-.2,14.429,0,18.039.166,3.5.966,6.6,3.531,9.161s5.657,3.356,9.159,3.532c3.609.2,14.426.2,18.035,0,3.5-.166,6.6-.966,9.159-3.532s3.355-5.659,3.531-9.161c.2-3.61.2-14.42,0-18.029ZM38.9,36.987a7.377,7.377,0,0,1-4.155,4.156c-2.877,1.141-9.705.878-12.885.878s-10.017.254-12.885-.878A7.377,7.377,0,0,1,4.82,36.987c-1.141-2.878-.878-9.707-.878-12.888s-.254-10.02.878-12.888A7.377,7.377,0,0,1,8.976,7.055c2.877-1.141,9.705-.878,12.885-.878s10.017-.254,12.885.878A7.377,7.377,0,0,1,38.9,11.211c1.141,2.878.878,9.707.878,12.888S40.042,34.118,38.9,36.987Z" transform="translate(0.005 -2.237)" fill="#fff"/>
</svg>
