<svg xmlns="http://www.w3.org/2000/svg" width="43.722" height="43.722" viewBox="0 0 43.722 43.722">
  <path id="icon_linkedin" d="M40.6,2.25H3.113A3.136,3.136,0,0,0,0,5.4V42.82a3.136,3.136,0,0,0,3.113,3.152H40.6a3.145,3.145,0,0,0,3.123-3.152V5.4A3.145,3.145,0,0,0,40.6,2.25ZM13.214,39.726H6.734V18.86h6.49V39.726ZM9.974,16.011a3.757,3.757,0,1,1,3.757-3.757,3.759,3.759,0,0,1-3.757,3.757ZM37.505,39.726h-6.48V29.576c0-2.42-.049-5.534-3.367-5.534-3.377,0-3.894,2.635-3.894,5.358V39.726h-6.48V18.86H23.5v2.85h.088a6.825,6.825,0,0,1,6.139-3.367c6.558,0,7.778,4.323,7.778,9.945Z" transform="translate(0 -2.25)" fill="#fff"/>
</svg>
