<svg xmlns="http://www.w3.org/2000/svg" width="43.722" height="43.722" viewBox="0 0 43.722 43.722">
  <path id="Icon_facebook" d="M39.038,2.25H4.685A4.685,4.685,0,0,0,0,6.935V41.288a4.685,4.685,0,0,0,4.685,4.685H18.079V31.108H11.931v-7h6.148V18.778c0-6.065,3.611-9.416,9.142-9.416a37.248,37.248,0,0,1,5.418.472v5.953H29.588c-3.007,0-3.945,1.866-3.945,3.78v4.543h6.713l-1.074,7H25.643V45.972H39.038a4.685,4.685,0,0,0,4.685-4.685V6.935A4.685,4.685,0,0,0,39.038,2.25Z" transform="translate(0 -2.25)" fill="#fff"/>
</svg>
