<svg xmlns="http://www.w3.org/2000/svg" width="113.999" height="118.267" viewBox="0 0 113.999 118.267">
  <g id="icon_mobile" transform="translate(-1075.772 -199.57)">
    <g id="Group_1258" data-name="Group 1258" transform="translate(1075.772 199.57)">
      <g id="Group_1257" data-name="Group 1257" transform="translate(0)">
        <g id="_595_Api_interface_mobile_phone_smartphone" data-name="595, Api, interface, mobile, phone, smartphone" transform="translate(0)">
          <g id="Group_1256" data-name="Group 1256">
            <g id="Group_1255" data-name="Group 1255">
              <g id="Group_1216" data-name="Group 1216" transform="translate(0 34.603)">
                <rect id="Rectangle_154" data-name="Rectangle 154" width="5.451" height="5.451" fill="#fff"/>
              </g>
              <g id="Group_1217" data-name="Group 1217" transform="translate(108.548 78.212)">
                <rect id="Rectangle_155" data-name="Rectangle 155" width="5.451" height="5.688" fill="#fff"/>
              </g>
              <g id="Group_1218" data-name="Group 1218" transform="translate(108.548 34.603)">
                <rect id="Rectangle_156" data-name="Rectangle 156" width="5.451" height="5.451" fill="#fff"/>
              </g>
              <g id="Group_1219" data-name="Group 1219" transform="translate(54.037 103.098)">
                <path id="Path_836" data-name="Path 836" d="M102.645,246.477a3.9,3.9,0,0,1,3.792,3.792,3.818,3.818,0,1,1-7.584,0A3.9,3.9,0,0,1,102.645,246.477Z" transform="translate(-98.853 -246.477)" fill="#fff"/>
              </g>
              <g id="Group_1220" data-name="Group 1220" transform="translate(22.042 0.949)">
                <path id="Path_837" data-name="Path 837" d="M151.587,202.974a5.364,5.364,0,0,1,5.452,5.45V219.8H85.227V208.424a5.362,5.362,0,0,1,5.45-5.45Z" transform="translate(-85.227 -202.974)" fill="#fff"/>
              </g>
              <g id="Group_1221" data-name="Group 1221" transform="translate(21.805 96.937)">
                <path id="Path_838" data-name="Path 838" d="M156.938,243.853v15.166a5.363,5.363,0,0,1-5.452,5.452H90.576a5.362,5.362,0,0,1-5.45-5.452V243.853Zm-32,9.954a3.9,3.9,0,0,0-3.792-3.792,4.076,4.076,0,0,0-3.792,3.792,3.818,3.818,0,1,0,7.584,0Z" transform="translate(-85.126 -243.853)" fill="#fff"/>
              </g>
              <g id="Group_1222" data-name="Group 1222" transform="translate(52.614 63.756)">
                <path id="Path_839" data-name="Path 839" d="M102.514,229.722l4.267,4.264a9.3,9.3,0,0,1-4.267.949,8.68,8.68,0,0,1-4.267-.949Z" transform="translate(-98.247 -229.722)" fill="#fff"/>
              </g>
              <g id="Group_1223" data-name="Group 1223" transform="translate(52.377 49.059)">
                <path id="Path_840" data-name="Path 840" d="M107.391,224.412l-4.741,4.5-4.5-4.5a9.614,9.614,0,0,1,4.5-.949A10.607,10.607,0,0,1,107.391,224.412Z" transform="translate(-98.146 -223.463)" fill="#fff"/>
              </g>
              <g id="Group_1224" data-name="Group 1224" transform="translate(47.164 50.008)">
                <path id="Path_841" data-name="Path 841" d="M110.383,223.867a10.069,10.069,0,0,1-.237,18.012l-4.267-4.264-4.267,4.264a10.048,10.048,0,0,1-5.687-9,9.847,9.847,0,0,1,5.45-9.007l4.5,4.5Z" transform="translate(-95.926 -223.867)" fill="#fff" stroke="#000" stroke-width="1"/>
              </g>
              <g id="Group_1229" data-name="Group 1229" transform="translate(22.042 45.506)">
                <path id="Path_846" data-name="Path 846" d="M103.714,249.442H85.227V221.95h18.25A21.682,21.682,0,0,0,98.5,235.7,21.1,21.1,0,0,0,103.714,249.442Z" transform="translate(-85.227 -221.95)" fill="#fff"/>
              </g>
              <g id="Group_1230" data-name="Group 1230" transform="translate(22.042 72.998)">
                <path id="Path_847" data-name="Path 847" d="M156.8,233.658V257.6H85.227V233.658h18.487a21.506,21.506,0,0,0,33.181,0Z" transform="translate(-85.227 -233.658)" fill="#fff"/>
              </g>
              <g id="Group_1231" data-name="Group 1231" transform="translate(73.47 45.032)">
                <path id="Path_848" data-name="Path 848" d="M127.276,221.985v27.492H107.129a20.8,20.8,0,0,0,5.215-13.983,21.7,21.7,0,0,0-4.976-13.746h19.907Z" transform="translate(-107.129 -221.748)" fill="#fff"/>
              </g>
              <g id="Group_1232" data-name="Group 1232" transform="translate(21.805 17.538)">
                <path id="Path_849" data-name="Path 849" d="M156.938,210.039v27.968H137.031a21.6,21.6,0,0,0-33.655,0H85.126V210.039Z" transform="translate(-85.126 -210.039)" fill="#fff"/>
              </g>
              <g id="Group_1233" data-name="Group 1233" transform="translate(21.093 16.592)">
                <path id="Path_850" data-name="Path 850" d="M85.772,290.928a1.02,1.02,0,0,1-.949-.946v-79.4a.947.947,0,0,1,1.895,0v79.4A1.018,1.018,0,0,1,85.772,290.928Z" transform="translate(-84.823 -209.636)" fill="#091b40"/>
              </g>
              <g id="Group_1234" data-name="Group 1234" transform="translate(92.668 16.592)">
                <path id="Path_851" data-name="Path 851" d="M116.254,290.928a1.02,1.02,0,0,1-.949-.946v-79.4a.949.949,0,0,1,1.9,0v79.4A1.02,1.02,0,0,1,116.254,290.928Z" transform="translate(-115.305 -209.636)"/>
              </g>
              <g id="Group_1235" data-name="Group 1235" transform="translate(21.093)">
                <path id="Path_852" data-name="Path 852" d="M157.347,221.057H85.772a1.02,1.02,0,0,1-.949-.949V208.731a6.274,6.274,0,0,1,6.161-6.161h61.147a6.276,6.276,0,0,1,6.164,6.161v11.377A1.02,1.02,0,0,1,157.347,221.057Zm-70.629-1.895h69.917v-10.43a4.356,4.356,0,0,0-4.5-4.5H90.984a4.358,4.358,0,0,0-4.5,4.5v10.43Z" transform="translate(-84.823 -202.57)"/>
              </g>
              <g id="Group_1236" data-name="Group 1236" transform="translate(21.093 95.988)">
                <path id="Path_853" data-name="Path 853" d="M152.132,265.728H90.984a6.276,6.276,0,0,1-6.161-6.164V244.4a1.018,1.018,0,0,1,.949-.949h71.812a1.016,1.016,0,0,1,.946.949v15.166A6.659,6.659,0,0,1,152.132,265.728ZM86.718,245.344v14.22a4.36,4.36,0,0,0,4.5,4.5h61.147a4.358,4.358,0,0,0,4.5-4.5v-14.22Z" transform="translate(-84.823 -243.449)"/>
              </g>
              <g id="Group_1237" data-name="Group 1237" transform="translate(53.089 102.387)">
                <path id="Path_854" data-name="Path 854" d="M103.19,255.89a4.962,4.962,0,0,1-4.741-4.978,4.74,4.74,0,0,1,9.479,0A4.962,4.962,0,0,1,103.19,255.89Zm0-8.059a3.137,3.137,0,0,0-3.081,3.081,3.089,3.089,0,1,0,6.161,0A3.138,3.138,0,0,0,103.19,247.832Z" transform="translate(-98.449 -246.174)"/>
              </g>
              <g id="Group_1238" data-name="Group 1238" transform="translate(51.666 7.347)">
                <path id="Path_855" data-name="Path 855" d="M109.457,207.594H98.792a.947.947,0,1,1,0-1.895h10.665a.947.947,0,1,1,0,1.895Z" transform="translate(-97.843 -205.699)"/>
              </g>
            </g>
          </g>
        </g>
      </g>
    </g>
  </g>
</svg>
