<svg xmlns="http://www.w3.org/2000/svg" width="133.976" height="104.843" viewBox="0 0 133.976 104.843">
  <g id="icon_project" transform="translate(17521.67 11411.052)">
    <g id="Group_1587" data-name="Group 1587" transform="translate(-17519.076 -11370.779)">
      <path id="Path_1061" data-name="Path 1061" d="M140.538,202.43l-19.492-5.91-22,22.691,32.413-5.571Z" transform="translate(-98.784 -196.261)" fill="#fff" stroke="#000" stroke-width="2"/>
      <path id="Path_1062" data-name="Path 1062" d="M98.819,219.246a.258.258,0,0,1-.185-.438l22-22.692a.257.257,0,0,1,.261-.067l19.492,5.91a.259.259,0,0,1,.126.41l-9.082,11.21a.262.262,0,0,1-.157.092l-32.413,5.571A.242.242,0,0,1,98.819,219.246ZM120.9,196.59,99.556,218.6l31.536-5.42,8.779-10.836Z" transform="translate(-98.56 -196.038)"/>
    </g>
    <g id="Group_1588" data-name="Group 1588" transform="translate(-17488.633 -11340.378)">
      <path id="Path_1063" data-name="Path 1063" d="M187.279,253.232,185.242,273.5l-29.406,11.59,17.6-27.781Z" transform="translate(-155.578 -252.974)" fill="#fff" stroke="#000" stroke-width="2"/>
      <path id="Path_1064" data-name="Path 1064" d="M155.612,285.123a.258.258,0,0,1-.218-.4l17.6-27.78a.258.258,0,0,1,.145-.11l13.839-4.075a.258.258,0,0,1,.33.274L185.276,273.3a.258.258,0,0,1-.162.214l-29.406,11.59A.264.264,0,0,1,155.612,285.123ZM173.382,257.3l-17.127,27.029,28.522-11.241,1.983-19.727Z" transform="translate(-155.354 -252.75)"/>
    </g>
    <g id="Group_1589" data-name="Group 1589" transform="translate(-17503.775 -11345.969)">
      <path id="Path_1065" data-name="Path 1065" d="M149.355,255.981c-5.269,4.66-6.515,7.557-8.484,10.344a49,49,0,0,1-13.283-19.29,44.256,44.256,0,0,0,12.6-4.233C143.043,247.542,146.58,251.769,149.355,255.981Z" transform="translate(-127.329 -242.543)" fill="#fff" stroke="#000" stroke-width="2"/>
      <path id="Path_1066" data-name="Path 1066" d="M140.647,266.36a.259.259,0,0,1-.174-.068A49.189,49.189,0,0,1,127.121,246.9a.258.258,0,0,1,.2-.344,43.974,43.974,0,0,0,12.531-4.212.258.258,0,0,1,.332.1c1.664,2.759,3.565,5.353,5.4,7.862,1.339,1.827,2.6,3.552,3.76,5.308a.259.259,0,0,1-.045.336,35.6,35.6,0,0,0-7.217,8.455c-.411.637-.8,1.239-1.228,1.844a.258.258,0,0,1-.183.108Zm-12.933-19.348a48.681,48.681,0,0,0,12.89,18.7c.358-.517.694-1.039,1.047-1.586a35.94,35.94,0,0,1,7.141-8.413c-1.117-1.682-2.335-3.344-3.622-5.1-1.8-2.458-3.663-5-5.308-7.7A44.121,44.121,0,0,1,127.714,247.012Z" transform="translate(-127.105 -242.319)"/>
    </g>
    <g id="Group_1590" data-name="Group 1590" transform="translate(-17494.855 -11410.248)">
      <path id="Path_1067" data-name="Path 1067" d="M146.807,190.229a30.231,30.231,0,0,0,5.767,8.384,32.091,32.091,0,0,0,7.654,5.8c.759.413.712.072,1.511.427,9.455-2.438,47.849-27.191,58.833-35.027,22.9-16.339,29.354-46.562,29.354-46.562s-30.678-3.734-53.58,12.6c-11.458,8.175-46.806,37.578-52.117,46.008A32.822,32.822,0,0,0,146.807,190.229Z" transform="translate(-143.971 -122.625)" fill="#fff" stroke="#000" stroke-width="2"/>
      <path id="Path_1068" data-name="Path 1068" d="M161.515,204.874a.255.255,0,0,1-.1-.023,1.586,1.586,0,0,0-.655-.168,1.762,1.762,0,0,1-.874-.267,32.268,32.268,0,0,1-7.716-5.844,30.414,30.414,0,0,1-5.816-8.456,33.082,33.082,0,0,1-2.6-8.435.257.257,0,0,1,.036-.18c5.312-8.432,40.4-37.676,52.185-46.081,11.876-8.473,25.861-11.461,35.5-12.476a90.388,90.388,0,0,1,18.26-.174.258.258,0,0,1,.221.31,90.4,90.4,0,0,1-6.107,17.209c-4.1,8.786-11.473,21.037-23.349,29.509-10.518,7.5-49.217,32.565-58.919,35.066A.243.243,0,0,1,161.515,204.874Zm-17.238-23.18a32.551,32.551,0,0,0,2.541,8.206h0a29.894,29.894,0,0,0,5.717,8.312,31.751,31.751,0,0,0,7.592,5.75,1.283,1.283,0,0,0,.656.206,2.008,2.008,0,0,1,.751.175c9.378-2.508,47.5-27,58.663-34.964,11.78-8.4,19.1-20.569,23.175-29.294a91.892,91.892,0,0,0,6.012-16.832,91.925,91.925,0,0,0-17.872.208c-9.575,1.009-23.461,3.977-35.242,12.381C184.554,144.2,149.737,173.2,144.277,181.694Z" transform="translate(-143.747 -122.405)"/>
    </g>
    <g id="Group_1591" data-name="Group 1591" transform="translate(-17494.855 -11354.774)">
      <path id="Path_1069" data-name="Path 1069" d="M160.822,247.8a35.915,35.915,0,0,1-9.161-10.152,37.5,37.5,0,0,1-3.337-6.839,32.489,32.489,0,0,1-1.159-3.772c-.053-.22-.1-.443-.151-.665a28.235,28.235,0,0,0-2.784,3.5,32.822,32.822,0,0,0,2.578,8.369,30.232,30.232,0,0,0,5.767,8.384,32.092,32.092,0,0,0,7.654,5.8c.759.413.712.072,1.511.427a30.9,30.9,0,0,0,4.926-1.947A23.283,23.283,0,0,1,160.822,247.8Z" transform="translate(-143.971 -226.118)" fill="#fff"/>
      <path id="Path_1070" data-name="Path 1070" d="M161.515,252.889a.255.255,0,0,1-.1-.022,1.586,1.586,0,0,0-.655-.168,1.761,1.761,0,0,1-.874-.267,32.269,32.269,0,0,1-7.716-5.844,30.414,30.414,0,0,1-5.816-8.456,33.081,33.081,0,0,1-2.6-8.435.257.257,0,0,1,.036-.18,28.4,28.4,0,0,1,2.811-3.537.258.258,0,0,1,.445.118c.048.221.1.441.15.66a31.915,31.915,0,0,0,1.15,3.742,37.451,37.451,0,0,0,3.314,6.792,35.384,35.384,0,0,0,9.093,10.079,23.024,23.024,0,0,0,5.779,3.069.259.259,0,0,1,.024.478,30.938,30.938,0,0,1-4.972,1.963A.243.243,0,0,1,161.515,252.889Zm-17.238-23.18a32.551,32.551,0,0,0,2.541,8.206,29.894,29.894,0,0,0,5.717,8.312,31.751,31.751,0,0,0,7.592,5.75,1.284,1.284,0,0,0,.656.206,2.009,2.009,0,0,1,.751.175,28.739,28.739,0,0,0,4.236-1.647,23.763,23.763,0,0,1-5.324-2.921h0a35.9,35.9,0,0,1-9.229-10.224,37.891,37.891,0,0,1-3.36-6.886,32.409,32.409,0,0,1-1.168-3.8c-.014-.059-.028-.118-.041-.177A26.562,26.562,0,0,0,144.277,229.709Z" transform="translate(-143.747 -225.894)" stroke="#000" stroke-width="1"/>
    </g>
    <g id="Group_1592" data-name="Group 1592" transform="translate(-17430.855 -11410.251)">
      <path id="Path_1071" data-name="Path 1071" d="M267.192,136.166c1.47,2.706,3.017,5.369,4.686,7.951a79.278,79.278,0,0,0,5.4,7.434,57.617,57.617,0,0,0,6.3,6.555q1.348,1.188,2.787,2.274c14.528-16.4,18.953-37.132,18.953-37.132s-21.331-2.6-41.7,6.014C264.775,131.584,265.957,133.891,267.192,136.166Z" transform="translate(-263.362 -122.624)" fill="#fff"/>
      <path id="Path_1072" data-name="Path 1072" d="M286.141,160.416a.257.257,0,0,1-.156-.053c-.993-.753-1.936-1.522-2.8-2.286a58.161,58.161,0,0,1-6.326-6.584,78.938,78.938,0,0,1-5.42-7.459c-1.551-2.4-3.087-5-4.7-7.967h0c-1.121-2.065-2.258-4.262-3.575-6.912a.259.259,0,0,1,.131-.353,87.084,87.084,0,0,1,28.573-6.256,84.51,84.51,0,0,1,13.256.224.258.258,0,0,1,.221.31,84.29,84.29,0,0,1-4.041,12.457,87.462,87.462,0,0,1-14.971,24.792A.255.255,0,0,1,286.141,160.416ZM267.2,135.82c1.6,2.951,3.133,5.546,4.676,7.934a78.421,78.421,0,0,0,5.385,7.41,57.592,57.592,0,0,0,6.269,6.526c.8.707,1.669,1.418,2.582,2.116a91.673,91.673,0,0,0,18.671-36.555,91.543,91.543,0,0,0-41.027,5.92c1.263,2.535,2.36,4.653,3.444,6.649Z" transform="translate(-263.139 -122.401)"/>
    </g>
    <g id="Group_1593" data-name="Group 1593" transform="translate(-17430.855 -11406.178)">
      <path id="Path_1073" data-name="Path 1073" d="M286.371,156.388q-2.694-2.881-5.111-6.007c-1.619-2.093-3.145-4.258-4.56-6.495-1.4-2.219-2.7-4.5-3.88-6.849q-1.607-3.211-2.936-6.553c-2.082.661-4.178,1.424-6.264,2.306,1.154,2.322,2.336,4.628,3.571,6.9,1.47,2.706,3.017,5.369,4.686,7.951a79.274,79.274,0,0,0,5.4,7.434,57.623,57.623,0,0,0,6.3,6.555q1.348,1.188,2.787,2.274c1.192-1.345,2.311-2.72,3.37-4.109C288.578,158.7,287.459,157.552,286.371,156.388Z" transform="translate(-263.362 -130.225)" fill="#fff"/>
      <path id="Path_1074" data-name="Path 1074" d="M286.141,163.942a.257.257,0,0,1-.156-.053c-.993-.753-1.936-1.522-2.8-2.286a58.158,58.158,0,0,1-6.326-6.584,78.939,78.939,0,0,1-5.42-7.459c-1.551-2.4-3.087-5-4.7-7.967-1.121-2.065-2.258-4.262-3.575-6.912a.259.259,0,0,1,.131-.353c2-.847,4.12-1.626,6.286-2.315a.258.258,0,0,1,.318.151c.879,2.211,1.863,4.408,2.927,6.533,1.131,2.259,2.433,4.556,3.868,6.826,1.371,2.17,2.9,4.348,4.545,6.475,1.6,2.071,3.316,4.086,5.1,5.989h0c1.178,1.26,2.275,2.372,3.354,3.4a.26.26,0,0,1,.027.344c-1.106,1.452-2.244,2.839-3.382,4.124A.256.256,0,0,1,286.141,163.942ZM263.751,132.7c1.263,2.535,2.36,4.653,3.444,6.649,1.6,2.951,3.133,5.546,4.676,7.934a78.421,78.421,0,0,0,5.385,7.41,57.592,57.592,0,0,0,6.269,6.526c.8.707,1.669,1.418,2.582,2.116,1.028-1.17,2.055-2.423,3.058-3.731-1.032-.99-2.083-2.059-3.207-3.261h0c-1.79-1.914-3.515-3.941-5.127-6.026-1.654-2.14-3.193-4.332-4.573-6.515-1.444-2.285-2.754-4.6-3.893-6.871-1.034-2.066-1.994-4.2-2.856-6.349C267.53,131.215,265.595,131.927,263.751,132.7Z" transform="translate(-263.139 -130.001)" stroke="#000" stroke-width="1"/>
    </g>
    <g id="Group_1594" data-name="Group 1594" transform="translate(-17452.066 -11383.876)">
      <circle id="Ellipse_48" data-name="Ellipse 48" cx="10.263" cy="10.263" r="10.263" transform="matrix(0.171, -0.985, 0.985, 0.171, 0, 20.225)" fill="#fff"/>
      <path id="Path_1075" data-name="Path 1075" d="M236.613,195.15a10.661,10.661,0,0,1-1.758-.146,10.48,10.48,0,1,1,1.758.146Zm-.044-20.53a10.031,10.031,0,1,0,1.672.139A10.143,10.143,0,0,0,236.569,174.619Z" transform="translate(-224.727 -172.763)"/>
    </g>
    <g id="Group_1595" data-name="Group 1595" transform="translate(-17447.809 -11379.615)">
      <path id="Path_1076" data-name="Path 1076" d="M235.074,181.4a7.346,7.346,0,1,1-1.714,10.246A7.347,7.347,0,0,1,235.074,181.4Z" transform="translate(-231.735 -179.775)" fill="#fff"/>
      <path id="Path_1077" data-name="Path 1077" d="M239.132,194.761a7.658,7.658,0,0,1-1.27-.106,7.6,7.6,0,0,1-3.162-13.69h0a7.6,7.6,0,1,1,4.433,13.8ZM235,181.385h0a7.087,7.087,0,1,0,9.886,1.654A7.042,7.042,0,0,0,235,181.385Z" transform="translate(-231.51 -179.554)"/>
    </g>
    <g id="Group_1596" data-name="Group 1596" transform="translate(-17479.162 -11362.097)">
      <circle id="Ellipse_49" data-name="Ellipse 49" cx="8.683" cy="8.683" r="8.683" transform="translate(0 2.021) rotate(-6.682)" fill="#fff"/>
      <path id="Path_1078" data-name="Path 1078" d="M183.266,231.4a8.939,8.939,0,0,1-5.2-16.217h0a8.941,8.941,0,1,1,5.2,16.217Zm-.03-17.365a8.362,8.362,0,0,0-4.875,1.568h0a8.424,8.424,0,1,0,6.282-1.451A8.568,8.568,0,0,0,183.236,214.037Zm-5.025,1.358h0Z" transform="translate(-173.62 -212.83)"/>
    </g>
    <g id="Group_1597" data-name="Group 1597" transform="translate(-17476 -11358.938)">
      <path id="Path_1079" data-name="Path 1079" d="M182.006,219.766a6.215,6.215,0,1,1-1.45,8.669A6.215,6.215,0,0,1,182.006,219.766Z" transform="translate(-179.144 -218.35)" fill="#fff"/>
      <path id="Path_1080" data-name="Path 1080" d="M185.408,231.075a6.6,6.6,0,0,1-1.082-.09,6.473,6.473,0,0,1-2.691-11.654h0a6.473,6.473,0,1,1,3.773,11.744Zm-.026-12.432a5.912,5.912,0,0,0-3.447,1.109h0a5.928,5.928,0,1,0,3.447-1.109Zm-3.6.9h0Z" transform="translate(-178.923 -218.126)"/>
    </g>
    <g id="Group_1653" data-name="Group 1653" transform="translate(-17428.686 -11403.783)">
      <path id="Path_1142" data-name="Path 1142" d="M267.274,136.581l-.018,0a.087.087,0,0,1-.066-.1l.411-1.942a.086.086,0,0,1,.169.035l-.412,1.942A.086.086,0,0,1,267.274,136.581Z" transform="translate(-267.188 -134.468)"/>
    </g>
    <g id="Group_1654" data-name="Group 1654" transform="translate(-17427.594 -11404.334)">
      <path id="Path_1143" data-name="Path 1143" d="M269.3,138.511h-.011a.086.086,0,0,1-.075-.1,45.888,45.888,0,0,1,.893-4.907.086.086,0,1,1,.167.04,45.717,45.717,0,0,0-.889,4.889A.086.086,0,0,1,269.3,138.511Z" transform="translate(-269.217 -133.44)"/>
    </g>
    <g id="Group_1655" data-name="Group 1655" transform="translate(-17426.482 -11404.869)">
      <path id="Path_1144" data-name="Path 1144" d="M271.381,140.16h-.01a.087.087,0,0,1-.076-.1c.287-2.516.642-5.057,1.056-7.552a.084.084,0,0,1,.1-.071.086.086,0,0,1,.071.1c-.413,2.492-.768,5.03-1.054,7.543A.087.087,0,0,1,271.381,140.16Z" transform="translate(-271.295 -132.44)"/>
    </g>
    <g id="Group_1656" data-name="Group 1656" transform="translate(-17425.271 -11404.12)">
      <path id="Path_1145" data-name="Path 1145" d="M273.642,143.107h-.008a.087.087,0,0,1-.078-.093c.259-3.023.576-6.085.941-9.1a.086.086,0,1,1,.171.021c-.366,3.013-.682,6.073-.941,9.094A.086.086,0,0,1,273.642,143.107Z" transform="translate(-273.556 -133.838)"/>
    </g>
    <g id="Group_1657" data-name="Group 1657" transform="translate(-17424.096 -11401.186)">
      <path id="Path_1146" data-name="Path 1146" d="M275.833,147.259h-.009a.086.086,0,0,1-.077-.094l.762-7.777a.088.088,0,0,1,.094-.077.086.086,0,0,1,.077.094l-.762,7.777A.086.086,0,0,1,275.833,147.259Z" transform="translate(-275.747 -139.309)"/>
    </g>
    <g id="Group_1658" data-name="Group 1658" transform="translate(-17423.023 -11398.892)">
      <path id="Path_1147" data-name="Path 1147" d="M277.835,151.5h-.01a.086.086,0,0,1-.076-.095l.854-7.74a.086.086,0,1,1,.171.019l-.854,7.74A.086.086,0,0,1,277.835,151.5Z" transform="translate(-277.749 -143.591)"/>
    </g>
    <g id="Group_1659" data-name="Group 1659" transform="translate(-17421.777 -11396.775)">
      <path id="Path_1148" data-name="Path 1148" d="M280.161,155.288h-.011a.086.086,0,0,1-.075-.1c.31-2.507.564-5.054.752-7.571a.087.087,0,0,1,.093-.08.086.086,0,0,1,.079.092c-.189,2.519-.442,5.069-.753,7.58A.086.086,0,0,1,280.161,155.288Z" transform="translate(-280.075 -147.541)"/>
    </g>
    <g id="Group_1660" data-name="Group 1660" transform="translate(-17420.428 -11394.541)">
      <path id="Path_1149" data-name="Path 1149" d="M282.679,159.211h-.006a.086.086,0,0,1-.08-.092l.541-7.33a.086.086,0,0,1,.172.013l-.541,7.33A.086.086,0,0,1,282.679,159.211Z" transform="translate(-282.593 -151.708)"/>
    </g>
    <g id="Group_1661" data-name="Group 1661" transform="translate(-17419.047 -11392.595)">
      <path id="Path_1150" data-name="Path 1150" d="M285.254,162.8h0a.086.086,0,0,1-.084-.088c.052-2.425.168-4.878.345-7.292a.086.086,0,1,1,.172.013c-.177,2.411-.293,4.862-.345,7.283A.086.086,0,0,1,285.254,162.8Z" transform="translate(-285.168 -155.34)"/>
    </g>
    <g id="Group_1662" data-name="Group 1662" transform="translate(-17417.771 -11390.59)">
      <path id="Path_1151" data-name="Path 1151" d="M287.631,166.216h0a.086.086,0,0,1-.081-.091l.369-6.963a.088.088,0,0,1,.091-.082.086.086,0,0,1,.081.091l-.368,6.964A.087.087,0,0,1,287.631,166.216Z" transform="translate(-287.545 -159.08)"/>
    </g>
    <g id="Group_1663" data-name="Group 1663" transform="translate(-17416.684 -11388.819)">
      <path id="Path_1152" data-name="Path 1152" d="M289.665,169.043h-.007a.086.086,0,0,1-.079-.093l.518-6.489a.087.087,0,0,1,.093-.079.086.086,0,0,1,.079.093l-.518,6.489A.086.086,0,0,1,289.665,169.043Z" transform="translate(-289.578 -162.382)"/>
    </g>
    <g id="Group_1664" data-name="Group 1664" transform="translate(-17415.393 -11387.146)">
      <path id="Path_1153" data-name="Path 1153" d="M292.07,172.091h-.007a.087.087,0,0,1-.079-.093c.161-2.124.277-4.281.344-6.412a.086.086,0,0,1,.173.005c-.068,2.133-.183,4.293-.344,6.42A.086.086,0,0,1,292.07,172.091Z" transform="translate(-291.984 -165.503)"/>
    </g>
    <g id="Group_1665" data-name="Group 1665" transform="translate(-17414.119 -11385.698)">
      <path id="Path_1154" data-name="Path 1154" d="M294.448,174.766h-.006a.086.086,0,0,1-.08-.092l.44-6.386a.085.085,0,0,1,.092-.08.086.086,0,0,1,.08.092l-.44,6.386A.086.086,0,0,1,294.448,174.766Z" transform="translate(-294.362 -168.207)"/>
    </g>
    <g id="Group_1666" data-name="Group 1666" transform="translate(-17412.971 -11383.969)">
      <path id="Path_1155" data-name="Path 1155" d="M296.587,177.45h-.012a.085.085,0,0,1-.073-.1c.274-1.929.473-3.893.59-5.839a.081.081,0,0,1,.091-.081.087.087,0,0,1,.081.092c-.117,1.95-.316,3.918-.592,5.852A.087.087,0,0,1,296.587,177.45Z" transform="translate(-296.501 -171.432)"/>
    </g>
    <g id="Group_1667" data-name="Group 1667" transform="translate(-17411.408 -11382.418)">
      <path id="Path_1156" data-name="Path 1156" d="M299.506,180.644h0a.086.086,0,0,1-.082-.09l.3-6.146a.084.084,0,0,1,.09-.082.087.087,0,0,1,.082.091l-.3,6.146A.086.086,0,0,1,299.506,180.644Z" transform="translate(-299.42 -174.325)"/>
    </g>
    <g id="Group_1668" data-name="Group 1668" transform="translate(-17409.814 -11381.015)">
      <path id="Path_1157" data-name="Path 1157" d="M302.5,183.161a.086.086,0,0,1-.086-.086l-.019-6.046a.086.086,0,0,1,.086-.086h0a.086.086,0,0,1,.086.086l.019,6.046a.087.087,0,0,1-.086.087Z" transform="translate(-302.392 -176.942)"/>
    </g>
    <g id="Group_1669" data-name="Group 1669" transform="translate(-17408.482 -11379.558)">
      <path id="Path_1158" data-name="Path 1158" d="M305.085,185.333a.087.087,0,0,1-.086-.084l-.124-5.5a.087.087,0,0,1,.084-.088.089.089,0,0,1,.088.084l.124,5.5a.087.087,0,0,1-.084.088Z" transform="translate(-304.874 -179.659)"/>
    </g>
    <g id="Group_1670" data-name="Group 1670" transform="translate(-17407.113 -11378.148)">
      <path id="Path_1159" data-name="Path 1159" d="M307.611,185.423a.086.086,0,0,1-.085-.077,16.989,16.989,0,0,1-.055-2.978.085.085,0,0,1,.092-.08.086.086,0,0,1,.08.092,16.862,16.862,0,0,0,.054,2.947.086.086,0,0,1-.077.095Z" transform="translate(-307.43 -182.289)"/>
    </g>
    <g id="Group_1671" data-name="Group 1671" transform="translate(-17494.016 -11351.727)">
      <path id="Path_1160" data-name="Path 1160" d="M145.4,233.469a.081.081,0,0,1-.025,0,.085.085,0,0,1-.058-.107l.5-1.716a.086.086,0,1,1,.165.048l-.5,1.716A.087.087,0,0,1,145.4,233.469Z" transform="translate(-145.31 -231.58)"/>
    </g>
    <g id="Group_1672" data-name="Group 1672" transform="translate(-17493.279 -11352.48)">
      <path id="Path_1161" data-name="Path 1161" d="M146.768,234.868l-.016,0a.086.086,0,0,1-.069-.1c.29-1.519.649-3.043,1.065-4.53a.086.086,0,1,1,.166.047c-.415,1.482-.772,3-1.061,4.515A.087.087,0,0,1,146.768,234.868Z" transform="translate(-146.682 -230.174)"/>
    </g>
    <g id="Group_1673" data-name="Group 1673" transform="translate(-17492.377 -11350.453)">
      <path id="Path_1162" data-name="Path 1162" d="M148.455,239.147h-.012a.086.086,0,0,1-.074-.1c.221-1.68.516-3.371.878-5.026a.086.086,0,0,1,.168.036c-.361,1.651-.655,3.337-.875,5.013A.086.086,0,0,1,148.455,239.147Z" transform="translate(-148.368 -233.956)"/>
    </g>
    <g id="Group_1674" data-name="Group 1674" transform="translate(-17491.342 -11348.243)">
      <path id="Path_1163" data-name="Path 1163" d="M150.386,243.21h-.009a.087.087,0,0,1-.077-.095c.176-1.654.394-3.325.648-4.966a.088.088,0,0,1,.1-.072.087.087,0,0,1,.072.1c-.253,1.638-.471,3.306-.646,4.958A.087.087,0,0,1,150.386,243.21Z" transform="translate(-150.3 -238.076)"/>
    </g>
    <g id="Group_1675" data-name="Group 1675" transform="translate(-17490.348 -11346.359)">
      <path id="Path_1164" data-name="Path 1164" d="M152.242,247.038h-.009a.086.086,0,0,1-.077-.094l.517-5.273a.088.088,0,0,1,.094-.077.086.086,0,0,1,.077.094l-.517,5.273A.086.086,0,0,1,152.242,247.038Z" transform="translate(-152.156 -241.593)"/>
    </g>
    <g id="Group_1676" data-name="Group 1676" transform="translate(-17489.201 -11344.16)">
      <path id="Path_1165" data-name="Path 1165" d="M154.378,250.889h-.009a.086.086,0,0,1-.077-.094l.53-5.021a.084.084,0,0,1,.094-.076.085.085,0,0,1,.077.094l-.529,5.021A.086.086,0,0,1,154.378,250.889Z" transform="translate(-154.292 -245.696)"/>
    </g>
    <g id="Group_1677" data-name="Group 1677" transform="translate(-17487.813 -11342.037)">
      <path id="Path_1166" data-name="Path 1166" d="M156.97,254.6h-.007a.086.086,0,0,1-.079-.093l.363-4.769a.091.091,0,0,1,.092-.079.087.087,0,0,1,.08.093l-.363,4.769A.086.086,0,0,1,156.97,254.6Z" transform="translate(-156.883 -249.657)"/>
    </g>
    <g id="Group_1678" data-name="Group 1678" transform="translate(-17486.359 -11340.156)">
      <path id="Path_1167" data-name="Path 1167" d="M159.68,258.043h0a.086.086,0,0,1-.085-.087c.016-1.562.071-3.147.165-4.709a.082.082,0,0,1,.091-.081.086.086,0,0,1,.081.091c-.094,1.559-.15,3.141-.165,4.7A.086.086,0,0,1,159.68,258.043Z" transform="translate(-159.594 -253.166)"/>
    </g>
    <g id="Group_1679" data-name="Group 1679" transform="translate(-17484.844 -11338.486)">
      <path id="Path_1168" data-name="Path 1168" d="M162.6,260.967a.086.086,0,0,1-.086-.082c-.068-1.5-.1-3.021-.088-4.522a.086.086,0,0,1,.086-.086h0a.086.086,0,0,1,.085.087c-.009,1.5.02,3.016.088,4.513a.086.086,0,0,1-.082.09Z" transform="translate(-162.42 -256.278)"/>
    </g>
    <g id="Group_1680" data-name="Group 1680" transform="translate(-17483.41 -11336.723)">
      <path id="Path_1169" data-name="Path 1169" d="M165.4,264.06a.085.085,0,0,1-.085-.077,39.17,39.17,0,0,1-.223-4.329.086.086,0,0,1,.086-.086.093.093,0,0,1,.086.086,39.221,39.221,0,0,0,.222,4.31.085.085,0,0,1-.076.095Z" transform="translate(-165.092 -259.568)"/>
    </g>
    <g id="Group_1681" data-name="Group 1681" transform="translate(-17481.992 -11335.092)">
      <path id="Path_1170" data-name="Path 1170" d="M168.255,266.657a.086.086,0,0,1-.085-.074c-.186-1.281-.329-2.586-.425-3.88a.086.086,0,1,1,.172-.013c.1,1.29.239,2.591.424,3.868a.086.086,0,0,1-.073.1Z" transform="translate(-167.744 -262.611)"/>
    </g>
    <g id="Group_1682" data-name="Group 1682" transform="translate(-17480.539 -11334.007)">
      <path id="Path_1171" data-name="Path 1171" d="M171.239,268.834a.085.085,0,0,1-.084-.068c-.293-1.328-.529-2.685-.7-4.033a.086.086,0,0,1,.171-.021c.171,1.343.406,2.694.7,4.018a.086.086,0,0,1-.065.1Z" transform="translate(-170.454 -264.636)"/>
    </g>
    <g id="Group_1683" data-name="Group 1683" transform="translate(-17479.012 -11332.8)">
      <path id="Path_1172" data-name="Path 1172" d="M174.157,270.736a.086.086,0,0,1-.084-.066c-.289-1.214-.549-2.453-.772-3.682a.086.086,0,0,1,.07-.1.088.088,0,0,1,.1.07c.222,1.225.481,2.461.769,3.672a.086.086,0,0,1-.064.1Z" transform="translate(-173.3 -266.887)"/>
    </g>
    <g id="Group_1684" data-name="Group 1684" transform="translate(-17477.471 -11331.798)">
      <path id="Path_1173" data-name="Path 1173" d="M176.889,271.641a.086.086,0,0,1-.084-.066l-.624-2.711a.087.087,0,0,1,.065-.1.086.086,0,0,1,.1.065l.623,2.711a.086.086,0,0,1-.064.1Z" transform="translate(-176.179 -268.758)"/>
    </g>
    <g id="Group_1685" data-name="Group 1685" transform="translate(-17475.896 -11330.839)">
      <path id="Path_1174" data-name="Path 1174" d="M179.627,272.043h0a.121.121,0,0,1-.106-.1l-.4-1.289a.086.086,0,0,1,.165-.051l.386,1.244a.079.079,0,0,1,.033.021.1.1,0,0,1,.017.114A.11.11,0,0,1,179.627,272.043Z" transform="translate(-179.113 -270.547)"/>
    </g>
    <g id="Group_1691" data-name="Group 1691" transform="translate(-17446.104 -11349.452)">
      <g id="Group_1689" data-name="Group 1689" transform="translate(0 0)" opacity="0.129">
        <path id="Path_1178" data-name="Path 1178" d="M234.7,235.823a.432.432,0,0,1,.02.049C234.74,235.928,234.751,235.955,234.7,235.823Z" transform="translate(-234.695 -235.823)"/>
      </g>
    </g>
    <g id="Group_1695" data-name="Group 1695" transform="translate(-17467.344 -11346.828)">
      <g id="Group_1693" data-name="Group 1693" transform="translate(0 0)" opacity="0.129">
        <path id="Path_1181" data-name="Path 1181" d="M195.107,240.752l-.036.017C195.248,240.7,195.2,240.713,195.107,240.752Z" transform="translate(-195.071 -240.718)"/>
      </g>
    </g>
  </g>
</svg>
