<svg xmlns="http://www.w3.org/2000/svg" width="85.747" height="116.938" viewBox="0 0 85.747 116.938">
  <g id="icon_data" transform="translate(20303.158 15681.166)">
    <g id="Group_3474" data-name="Group 3474" transform="translate(-20302.158 -15680.166)">
      <g id="Group_3473" data-name="Group 3473" transform="translate(0 0)">
        <g id="Group_3470" data-name="Group 3470" transform="translate(0.013 69.469)" style="isolation: isolate">
          <path id="Path_2028" data-name="Path 2028" d="M286.827,340.89v24.734c0,9.4-12.616,17.337-29.972,19.879a83.1,83.1,0,0,1-27.831-.686c-15.215-3.111-25.919-10.539-25.919-19.193V340.89c0,8.655,10.7,16.052,25.919,19.165a83.1,83.1,0,0,0,27.831.686C274.211,358.227,286.827,350.288,286.827,340.89Z" transform="translate(-203.105 -340.89)" fill="#fff" stroke="#000" stroke-width="2"/>
        </g>
        <g id="Group_3471" data-name="Group 3471" transform="translate(0.013 45.091)" style="isolation: isolate">
          <path id="Path_2030" data-name="Path 2030" d="M286.827,325.412v24.762c0,9.4-12.616,17.337-29.972,19.849a83.016,83.016,0,0,1-27.831-.684c-15.215-3.114-25.919-10.511-25.919-19.166V325.412c0,8.655,10.7,16.08,25.919,19.193a83.105,83.105,0,0,0,27.831.686C274.211,342.749,286.827,334.808,286.827,325.412Z" transform="translate(-203.105 -325.412)" fill="#fff" stroke="#000" stroke-width="2"/>
        </g>
        <g id="Group_3472" data-name="Group 3472" style="isolation: isolate">
          <path id="Path_2032" data-name="Path 2032" d="M286.827,309.933V334.7c0,9.4-12.616,17.337-29.972,19.877a83.02,83.02,0,0,1-27.831-.684C213.809,350.777,203.1,343.349,203.1,334.7V309.933c0,8.655,10.7,16.082,25.919,19.193a82.955,82.955,0,0,0,27.831.686C274.211,327.27,286.827,319.331,286.827,309.933Z" transform="translate(-203.092 -289.221)" fill="#fff" stroke="#000" stroke-width="2"/>
          <path id="Path_2033" data-name="Path 2033" d="M244.966,300.181c-23.116,0-41.867,9.281-41.867,20.722s18.751,20.729,41.867,20.729,41.88-9.281,41.88-20.729S268.095,300.181,244.966,300.181Z" transform="translate(-203.099 -300.181)" fill="#fff" stroke="#000" stroke-width="2"/>
          <path id="Path_2034" data-name="Path 2034" d="M237.793,303.341c-15.631,0-28.309,6.276-28.309,14.013s12.677,14.015,28.309,14.015,28.319-6.276,28.319-14.015S253.433,303.341,237.793,303.341Z" transform="translate(-195.923 -296.63)" fill="#fff"/>
        </g>
      </g>
    </g>
  </g>
</svg>
