<svg xmlns="http://www.w3.org/2000/svg" width="883.864" height="1004.684" viewBox="0 0 883.864 1004.684">
  <g id="inset_rocket" transform="translate(-919.963 -5327.92)">
    <g id="Group_2300" data-name="Group 2300" transform="translate(920.692 5327.92)">
      <g id="Group_2295" data-name="Group 2295" transform="translate(0 0)">
        <g id="Group_1699" data-name="Group 1699" transform="translate(66.517 0)">
          <g id="Group_1582" data-name="Group 1582" transform="translate(0 597.476)">
            <g id="Group_1578" data-name="Group 1578" transform="translate(167.859 60.348)">
              <path id="Path_1049" data-name="Path 1049" d="M96.55,432.886a1.355,1.355,0,0,1-1.2-1.989,750.047,750.047,0,0,1,95.74-140.029,1.354,1.354,0,0,1,2.048,1.772A747.585,747.585,0,0,0,97.747,432.164,1.353,1.353,0,0,1,96.55,432.886Z" transform="translate(-95.196 -290.4)"/>
            </g>
            <g id="Group_1579" data-name="Group 1579" transform="translate(129.328 68.917)">
              <path id="Path_1050" data-name="Path 1050" d="M84.55,407.07a1.354,1.354,0,0,1-1.112-2.126,805.334,805.334,0,0,1,96.341-114.6,1.355,1.355,0,0,1,1.9,1.93A802.864,802.864,0,0,0,85.662,406.486,1.348,1.348,0,0,1,84.55,407.07Z" transform="translate(-83.196 -289.955)"/>
            </g>
            <g id="Group_1580" data-name="Group 1580">
              <path id="Path_1051" data-name="Path 1051" d="M23.766,355.076a1.266,1.266,0,0,1-1.2-1.149,1.342,1.342,0,0,1,1.015-1.545c79.025-13.653,154.845-41.915,225.354-84a1.153,1.153,0,0,1,1.644.553,1.436,1.436,0,0,1-.5,1.834C179.331,313,103.25,341.36,23.953,355.059A1.067,1.067,0,0,1,23.766,355.076Z" transform="translate(-22.553 -268.216)"/>
            </g>
            <g id="Group_1581" data-name="Group 1581" transform="translate(40.053 30.462)">
              <path id="Path_1052" data-name="Path 1052" d="M26.687,410.889a1.021,1.021,0,0,1-.888-.563,1.289,1.289,0,0,1,.338-1.638L211.556,277.842a.971.971,0,0,1,1.438.385,1.293,1.293,0,0,1-.338,1.639L27.237,410.712A.947.947,0,0,1,26.687,410.889Z" transform="translate(-25.642 -277.662)"/>
            </g>
          </g>
          <g id="Group_1698" data-name="Group 1698" transform="translate(133.158)">
            <g id="Group_1583" data-name="Group 1583" transform="translate(86.265)">
              <path id="Path_1053" data-name="Path 1053" d="M132.094,87.722c-2.118.573-3.269-2.567-1.39-3.7l.132-.079c5.6-3.216,23.512-5.834,26.026-6.059,2.885-.256,5.766-.514,8.255-.815-7.019-2.9-17.976-10.089-25.678-10.26h0a1.84,1.84,0,0,1-1.031-3.415,5.493,5.493,0,0,1,.576-.286,12.571,12.571,0,0,1,5.078-.683c9.061.1,17.794,5.547,26.568,7.786,1.668.427,7.106,2.073,8.974,2.23.135-7.7.865-13.676,3.567-20.041a2.751,2.751,0,0,1,5.123.166l.028.081c.081,5.289-1.174,7.314,1.272,18.192.716,3.191,4.825,6.629,6.193,9.6,1.932,4.21,2.357,8.923,3.584,13.384a38.451,38.451,0,0,0,11.69,18.594c-.427,1.887-4.278,5.351-8.761,6.28-4.764-7.485-12.875-12.69-20.934-16.445-3.559-1.66-7.353-3.171-11.286-2.986a40.462,40.462,0,0,0-7.586,1.59c-7.064,1.727-18.167,4.685-18.167,4.685-2.887-.551-1.1-2.946-.025-3.23l9.749-4.632c2.89-.764,6.82-2.345,8.679-4.837-5.488-2.584-16.993,2.048-27.512,3.952-3.441.624-2.966-1.986-2.036-3.373,2.975-3.272,26.032-6.938,30.627-8.527C163.81,84.9,140.764,85.377,132.094,87.722Z" transform="translate(-128.401 -49.381)" fill="#fff"/>
              <path id="Path_1054" data-name="Path 1054" d="M203.174,120.935a1.357,1.357,0,0,1-1.143-.629c-3.924-6.171-10.586-11.387-20.361-15.945-3.932-1.834-7.261-3.025-10.651-2.859a25.944,25.944,0,0,0-5.455,1.065c-.624.169-1.25.334-1.876.489-6.969,1.7-18.027,4.646-18.139,4.677a1.356,1.356,0,0,1-.6.022c-2.34-.447-2.643-1.927-2.666-2.545a3.689,3.689,0,0,1,2.4-3.281l9.662-4.592a1.382,1.382,0,0,1,.236-.084,19.308,19.308,0,0,0,6.4-2.854c-3.651-.458-9.148.93-14.912,2.385-3.2.806-6.5,1.64-9.732,2.225-2.3.418-3.373-.385-3.862-1.132-.89-1.359-.309-3.182.461-4.328.036-.053.079-.107.121-.157,1.758-1.932,8.084-3.66,16.611-5.567-6.129.421-12.631,1.076-16.344,2.081a3.138,3.138,0,0,1-3.753-1.887,3.382,3.382,0,0,1,1.309-4.281l.16-.093c6.118-3.514,24.765-6.07,26.579-6.23,1.121-.1,2.255-.2,3.368-.306-.893-.447-1.814-.916-2.755-1.4-6.025-3.076-12.853-6.558-17.945-6.671a3.195,3.195,0,0,1-1.677-5.946,7.17,7.17,0,0,1,.722-.357,13.743,13.743,0,0,1,5.62-.789c5.952.065,11.715,2.323,17.291,4.5a83.994,83.994,0,0,0,9.6,3.326c.427.11,1.1.3,1.9.52,1.531.43,3.814,1.07,5.424,1.421.2-6.775.975-12.693,3.64-18.97a4.106,4.106,0,0,1,7.648.247,2,2,0,0,1,.107.511c.02,1.455-.056,2.674-.129,3.854-.2,3.219-.388,6.258,1.365,14.061.343,1.528,1.778,3.32,3.163,5.053a22.348,22.348,0,0,1,2.941,4.281,41.556,41.556,0,0,1,2.6,8.971c.32,1.531.649,3.115,1.064,4.623a37.24,37.24,0,0,0,11.277,17.931,1.36,1.36,0,0,1,.43,1.32c-.581,2.559-4.991,6.309-9.808,7.308A1.552,1.552,0,0,1,203.174,120.935ZM171.609,98.78c3.929,0,7.7,1.491,11.2,3.126,9.833,4.584,16.7,9.867,20.965,16.128a12.963,12.963,0,0,0,6.519-4.387,40,40,0,0,1-11.356-18.58c-.438-1.59-.778-3.216-1.107-4.789a38.8,38.8,0,0,0-2.407-8.393,20.481,20.481,0,0,0-2.593-3.719c-1.579-1.975-3.21-4.017-3.691-6.151-1.837-8.179-1.626-11.558-1.424-14.825.067-1.107.132-2.154.124-3.4a1.4,1.4,0,0,0-1.23-.831,1.368,1.368,0,0,0-1.323.843c-2.7,6.356-3.337,12.406-3.46,19.535a1.352,1.352,0,0,1-1.469,1.326A55.586,55.586,0,0,1,173,72.905c-.77-.216-1.421-.4-1.837-.506a86.043,86.043,0,0,1-9.915-3.427c-5.348-2.093-10.876-4.255-16.333-4.317a11.448,11.448,0,0,0-4.533.576,4.119,4.119,0,0,0-.433.213.4.4,0,0,0-.194.514.451.451,0,0,0,.5.374c5.8.126,12.92,3.758,19.2,6.966,2.573,1.312,5.005,2.55,7.05,3.4a1.356,1.356,0,0,1-.357,2.6c-2.508.3-5.446.565-8.289.817-2.578.23-20.181,2.842-25.481,5.884l-.11.065a.709.709,0,0,0-.214.9c.185.435.452.362.553.334h0c8.732-2.362,31.1-2.848,32.042-2.868h.028a1.355,1.355,0,0,1,.444,2.635c-1.567.542-4.9,1.256-9.129,2.157-7.106,1.52-18.94,4.05-20.875,5.932a2.123,2.123,0,0,0-.379,1.253c.011-.011.118.02.362.02a4.235,4.235,0,0,0,.744-.076c3.143-.567,6.4-1.39,9.553-2.185,7.789-1.966,14.518-3.665,18.779-1.657a1.358,1.358,0,0,1,.508,2.036c-2.345,3.137-7.19,4.733-9.3,5.3l-9.64,4.581a1.286,1.286,0,0,1-.233.087,1.384,1.384,0,0,0-.469.477,1.35,1.35,0,0,0,.129.045c1.9-.5,11.547-3.059,17.864-4.6.607-.149,1.213-.312,1.817-.475a28.65,28.65,0,0,1,6.028-1.154C171.129,98.785,171.371,98.78,171.609,98.78Z" transform="translate(-129.273 -50.253)"/>
            </g>
            <g id="Group_1584" data-name="Group 1584" transform="translate(308.283 309.072)">
              <path id="Path_1055" data-name="Path 1055" d="M210.079,161.485c3.18-.989,6.592-.739,9.912-.478l27.166,2.123c5.266.413,11.2,1.177,14.344,5.421a11.574,11.574,0,0,1,1.388,10.1,21.045,21.045,0,0,1-5.735,8.744,20.8,20.8,0,0,1-9.443,5.682c-7.533,1.792-15.077-2.584-21.215-7.3a132.71,132.71,0,0,1-13.808-12.229c-1.531-1.559-3.078-3.25-3.64-5.362A9.154,9.154,0,0,1,210.079,161.485Z" transform="translate(-207.446 -159.419)" fill="#acd4f7"/>
              <path id="Path_1056" data-name="Path 1056" d="M245.041,195.715c-7.162,0-13.839-4.41-18.5-7.991a133.82,133.82,0,0,1-13.948-12.353c-1.663-1.694-3.34-3.55-3.983-5.963a10.388,10.388,0,0,1,1.3-7.915,1.347,1.347,0,0,1,.638-.427c3.474-1.081,7.165-.792,10.421-.536l27.169,2.123c5.6.438,11.87,1.3,15.325,5.966a12.827,12.827,0,0,1,1.6,11.3,25.461,25.461,0,0,1-16.164,15.353A16.523,16.523,0,0,1,245.041,195.715Zm-33.214-32.2a8.159,8.159,0,0,0-.6,5.2c.472,1.778,1.828,3.267,3.3,4.761a131.537,131.537,0,0,0,13.667,12.106c5.045,3.876,12.614,8.831,20.074,7.056a22.828,22.828,0,0,0,14.2-13.5,10.259,10.259,0,0,0-1.18-8.9c-2.778-3.753-8.353-4.486-13.359-4.876l-27.169-2.126C217.762,163,214.672,162.754,211.827,163.515Z" transform="translate(-208.318 -160.291)"/>
            </g>
            <g id="Group_1585" data-name="Group 1585" transform="translate(144.826 49.438)">
              <path id="Path_1057" data-name="Path 1057" d="M245.6,332.432c12.693-41.941,22.158-84.856,25.959-130.411-25.273-19.032-76.972-24.891-88.01-48.769-14.558-31.492-28.293-55.869-32.944-77.783,0,0,21.307-6.963,20.574-7.131,5.668,16.648,24.889,44.724,41.182,68.012,7.831,11.2,46.724,10.465,70.6,17.482,45.086,14.33,68.455,5.831,91.134,43.974,14.474,24.341,13.187,65.22,56.153,123.859a118.508,118.508,0,0,1-20.782,17.26q-11.009-15.028-22.024-30.059c-5.513-7.525-11.052-15.089-15.308-23.391-4.581-8.935-7.6-18.572-10.595-28.155-2.725-8.707-5.446-17.414-9.115-26.888-11.682,40.9-17.3,86.859-41.6,120.564C288.26,346.394,264.464,341.187,245.6,332.432Z" transform="translate(-149.25 -66.982)" fill="#fff"/>
              <path id="Path_1058" data-name="Path 1058" d="M311.7,353.219a1.256,1.256,0,0,1-.27-.028c-22.835-4.649-46.7-9.924-65.526-18.659a1.351,1.351,0,0,1-.725-1.621c13.895-45.918,22.349-88.249,25.841-129.381-10.173-7.452-24.728-12.951-38.812-18.271-21.734-8.21-42.266-15.968-49.013-30.565-3.618-7.822-7.154-15.145-10.572-22.226-10.165-21.046-18.942-39.222-22.47-55.847a1.358,1.358,0,0,1,.9-1.57c7-2.286,18.316-6.064,20.1-6.859a1.351,1.351,0,0,1,1.2-.3,1.39,1.39,0,0,1,1.045,1.073c5.62,16.3,24.077,43.37,40.946,67.484,4.539,6.488,21.92,8.9,38.725,11.227,10.839,1.5,22.049,3.056,31.152,5.73a301.988,301.988,0,0,0,33.391,8.221c25.262,5.109,41.952,8.483,58.527,36.36,5.109,8.595,8.311,19.3,12.019,31.686,7.193,24.046,16.148,53.973,44.061,92.066a1.356,1.356,0,0,1-.126,1.753,119.277,119.277,0,0,1-21.024,17.454,1.354,1.354,0,0,1-1.814-.345l-22.026-30.06c-5.457-7.449-11.1-15.153-15.42-23.574-4.643-9.058-7.716-18.875-10.685-28.369-2.309-7.387-4.679-14.965-7.629-22.953-2.486,9.061-4.747,18.445-6.94,27.557-7.578,31.478-15.415,64.023-33.756,89.46A1.356,1.356,0,0,1,311.7,353.219Zm-63.588-20.653c18.156,8.213,41.016,13.308,63,17.8,17.667-24.9,25.366-56.872,32.812-87.8,2.522-10.477,5.129-21.31,8.078-31.635a1.356,1.356,0,0,1,2.567-.118c3.68,9.5,6.452,18.367,9.131,26.939,2.946,9.418,5.98,19.122,10.519,27.975,4.219,8.23,9.8,15.844,15.2,23.209l21.274,29.031A117.153,117.153,0,0,0,429.35,322.4c-27.658-38.045-36.972-69.174-43.789-91.956-3.657-12.218-6.814-22.771-11.752-31.076-15.962-26.843-32.183-30.124-56.734-35.087a305.19,305.19,0,0,1-33.646-8.286c-8.881-2.612-19.99-4.151-30.731-5.64-18.184-2.519-35.357-4.9-40.573-12.356-16.572-23.686-34.669-50.229-40.856-66.95-2.418,1.008-7.511,2.7-18.206,6.2,3.623,15.99,12.156,33.66,22,54.044,3.427,7.092,6.966,14.423,10.592,22.265,6.283,13.594,26.31,21.158,47.513,29.169,14.541,5.494,29.573,11.173,40.081,19.086a1.35,1.35,0,0,1,.534,1.194C270.342,244.227,261.944,286.617,248.111,332.566Z" transform="translate(-150.123 -67.855)"/>
            </g>
            <g id="Group_1586" data-name="Group 1586" transform="translate(304.431 117.23)">
              <path id="Path_1059" data-name="Path 1059" d="M223.543,92.743a178.42,178.42,0,0,1-16.114,28.124,65.159,65.159,0,0,0,8.123,17.813c1,1.536,2.2,3.149,4,3.755,2.087.711,4.244-.171,6.134-1.034,4.806-2.2,9.9-4.657,12.255-9.143a22.6,22.6,0,0,0,1.865-6.328q2.368-12.361,4.733-24.723l-14.381-7.1C228.009,93.046,225.728,91.953,223.543,92.743Z" transform="translate(-206.072 -91.118)" fill="#fff"/>
              <path id="Path_1060" data-name="Path 1060" d="M222.026,144.921a6.252,6.252,0,0,1-2.036-.329c-2.146-.727-3.528-2.5-4.7-4.3A66.382,66.382,0,0,1,207,122.108a1.345,1.345,0,0,1,.2-1.143,178.111,178.111,0,0,0,15.993-27.916,1.349,1.349,0,0,1,.772-.708c2.764-1,5.485.346,7.671,1.424l14.384,7.1a1.351,1.351,0,0,1,.73,1.469l-4.733,24.723a23.583,23.583,0,0,1-2,6.7c-2.46,4.679-7.292,7.182-12.889,9.741A12.518,12.518,0,0,1,222.026,144.921ZM209.78,121.987a63.7,63.7,0,0,0,7.78,16.827c.907,1.4,1.935,2.75,3.3,3.213,1.584.534,3.407-.194,5.137-.986,5.137-2.348,9.555-4.615,11.62-8.539a21.587,21.587,0,0,0,1.736-5.955l4.539-23.709-13.46-6.648c-1.637-.806-3.477-1.711-5.05-1.435A180.426,180.426,0,0,1,209.78,121.987Z" transform="translate(-206.946 -91.99)"/>
            </g>
            <g id="Group_1587" data-name="Group 1587" transform="translate(0 409.476)">
              <path id="Path_1061" data-name="Path 1061" d="M316.47,227.489,214.334,196.52,99.043,315.419,268.88,286.227Z" transform="translate(-97.688 -195.166)" fill="#fff"/>
              <path id="Path_1062" data-name="Path 1062" d="M99.913,317.644a1.353,1.353,0,0,1-.972-2.295l115.292-118.9a1.347,1.347,0,0,1,1.365-.351l102.135,30.967a1.355,1.355,0,0,1,.66,2.149L270.8,287.953a1.371,1.371,0,0,1-.823.48L100.143,317.625A1.282,1.282,0,0,1,99.913,317.644ZM215.6,198.929,103.778,314.251l165.243-28.4,46-56.777Z" transform="translate(-98.56 -196.038)"/>
            </g>
            <g id="Group_1588" data-name="Group 1588" transform="translate(159.521 568.768)">
              <path id="Path_1063" data-name="Path 1063" d="M320.591,253.232,309.919,359.425,155.837,420.152l92.236-145.566Z" transform="translate(-154.482 -251.879)" fill="#fff"/>
              <path id="Path_1064" data-name="Path 1064" d="M156.708,422.377a1.353,1.353,0,0,1-1.143-2.078L247.8,274.734a1.348,1.348,0,0,1,.761-.576l72.517-21.352a1.354,1.354,0,0,1,1.73,1.435L312.14,360.432a1.354,1.354,0,0,1-.851,1.124L157.2,422.284A1.38,1.38,0,0,1,156.708,422.377Zm93.108-145.764L160.075,418.24l149.449-58.9,10.39-103.369Z" transform="translate(-155.354 -252.75)"/>
            </g>
            <g id="Group_1589" data-name="Group 1589" transform="translate(80.176 539.47)">
              <path id="Path_1065" data-name="Path 1065" d="M241.644,311.859c-27.607,24.419-34.138,39.6-44.454,54.2-32.18-29.335-55.751-63.4-69.6-101.079,27.388-4.7,45.056-12.257,66.009-22.178C208.571,267.637,227.1,289.79,241.644,311.859Z" transform="translate(-126.233 -241.446)" fill="#fff"/>
              <path id="Path_1066" data-name="Path 1066" d="M198.062,368.286a1.357,1.357,0,0,1-.913-.354c-32.545-29.669-56.083-63.855-69.961-101.613a1.353,1.353,0,0,1,1.042-1.8c27.7-4.755,45.4-12.474,65.658-22.069a1.35,1.35,0,0,1,1.739.525c8.718,14.457,18.681,28.051,28.318,41.2,7.014,9.572,13.639,18.611,19.7,27.815a1.356,1.356,0,0,1-.236,1.758c-21.512,19.029-30.175,32.455-37.815,44.3-2.154,3.337-4.188,6.491-6.432,9.665a1.359,1.359,0,0,1-1.1.573ZM130.3,266.906c13.634,36.3,36.346,69.253,67.54,97.984,1.873-2.711,3.635-5.443,5.486-8.311,7.631-11.831,16.268-25.217,37.418-44.081-5.851-8.811-12.235-17.521-18.979-26.723-9.44-12.878-19.192-26.183-27.815-40.356C174.339,254.677,156.914,262.162,130.3,266.906Z" transform="translate(-127.105 -242.319)"/>
            </g>
            <g id="Group_1590" data-name="Group 1590" transform="translate(126.919 202.656)">
              <path id="Path_1067" data-name="Path 1067" d="M157.739,475.776a158.413,158.413,0,0,0,30.22,43.929,168.156,168.156,0,0,0,40.1,30.377c3.977,2.163,3.73.379,7.915,2.236C285.522,539.541,486.7,409.843,544.252,368.785c120-85.611,153.811-243.979,153.811-243.979S537.314,105.24,417.312,190.849c-60.04,42.834-245.254,196.9-273.083,241.077A171.986,171.986,0,0,0,157.739,475.776Z" transform="translate(-142.875 -121.544)" fill="#fff"/>
              <path id="Path_1068" data-name="Path 1068" d="M236.847,554.533a1.335,1.335,0,0,1-.548-.118,8.308,8.308,0,0,0-3.432-.882,9.231,9.231,0,0,1-4.578-1.4,169.083,169.083,0,0,1-40.429-30.621,159.357,159.357,0,0,1-30.475-44.306,173.333,173.333,0,0,1-13.617-44.2,1.345,1.345,0,0,1,.188-.944C171.787,387.883,355.669,234.647,417.4,190.609c62.229-44.4,135.507-60.052,186.02-65.371,54.709-5.758,95.276-.963,95.681-.913a1.352,1.352,0,0,1,1.16,1.626c-.084.4-8.752,40.317-32,90.173-21.467,46.036-60.116,110.23-122.345,154.623C490.8,410.064,288.022,541.38,237.186,554.488A1.265,1.265,0,0,1,236.847,554.533Zm-90.322-121.46a170.561,170.561,0,0,0,13.316,43h0A156.637,156.637,0,0,0,189.8,519.623a166.37,166.37,0,0,0,39.781,30.13,6.725,6.725,0,0,0,3.438,1.079,10.515,10.515,0,0,1,3.935.919c49.139-13.14,248.9-141.487,307.387-183.208,61.726-44.036,100.1-107.778,121.432-153.5,20.633-44.233,29.723-80.578,31.5-88.2-7.78-.792-45.106-4.028-93.645,1.09-50.17,5.289-122.932,20.838-184.66,64.874C357.568,236.619,175.135,388.56,146.525,433.073Z" transform="translate(-143.747 -122.405)"/>
            </g>
            <g id="Group_1591" data-name="Group 1591" transform="translate(126.919 493.335)">
              <path id="Path_1069" data-name="Path 1069" d="M231.172,338.654c-19.389-14.041-35.385-32.958-48-53.193a196.455,196.455,0,0,1-17.487-35.834,170.264,170.264,0,0,1-6.073-19.765c-.275-1.154-.536-2.32-.792-3.486-6.525,7.258-11.516,13.474-14.589,18.35a171.985,171.985,0,0,0,13.51,43.851,158.41,158.41,0,0,0,30.22,43.929,168.155,168.155,0,0,0,40.1,30.377c3.977,2.163,3.73.379,7.915,2.236,6.331-1.635,15.142-5.179,25.81-10.2A122,122,0,0,1,231.172,338.654Z" transform="translate(-142.875 -225.022)" fill="#fff"/>
              <path id="Path_1070" data-name="Path 1070" d="M236.847,367.344a1.336,1.336,0,0,1-.548-.118,8.309,8.309,0,0,0-3.432-.882,9.232,9.232,0,0,1-4.578-1.4,169.075,169.075,0,0,1-40.429-30.621,159.354,159.354,0,0,1-30.475-44.306,173.334,173.334,0,0,1-13.617-44.2,1.345,1.345,0,0,1,.188-.944c3.011-4.778,7.966-11.013,14.729-18.532a1.354,1.354,0,0,1,2.331.618c.253,1.157.511,2.312.784,3.46a167.261,167.261,0,0,0,6.025,19.605,196.241,196.241,0,0,0,17.367,35.59c13.808,22.147,29.84,39.916,47.645,52.813a120.641,120.641,0,0,0,30.279,16.08,1.355,1.355,0,0,1,.124,2.5c-11.12,5.236-19.883,8.7-26.051,10.286A1.271,1.271,0,0,1,236.847,367.344Zm-90.322-121.46a170.563,170.563,0,0,0,13.316,43A156.637,156.637,0,0,0,189.8,332.434a166.37,166.37,0,0,0,39.781,30.13,6.726,6.726,0,0,0,3.438,1.079,10.517,10.517,0,0,1,3.935.918c5.424-1.449,12.878-4.348,22.195-8.631a124.5,124.5,0,0,1-27.9-15.305h0c-18.091-13.106-34.36-31.13-48.356-53.575a198.545,198.545,0,0,1-17.608-36.082,169.8,169.8,0,0,1-6.12-19.92c-.073-.309-.146-.621-.216-.93A139.207,139.207,0,0,0,146.525,245.884Z" transform="translate(-143.747 -225.894)"/>
            </g>
            <g id="Group_1592" data-name="Group 1592" transform="translate(462.263 202.647)">
              <path id="Path_1071" data-name="Path 1071" d="M282.333,192.491c7.7,14.182,15.808,28.133,24.554,41.663a415.389,415.389,0,0,0,28.31,38.955,301.876,301.876,0,0,0,33,34.348q7.061,6.227,14.6,11.915c76.126-85.954,99.313-194.567,99.313-194.567S370.338,111.2,263.621,156.32C269.668,168.484,275.859,180.571,282.333,192.491Z" transform="translate(-262.266 -121.533)" fill="#fff"/>
              <path id="Path_1072" data-name="Path 1072" d="M383.67,321.594a1.346,1.346,0,0,1-.817-.275c-5.2-3.943-10.143-7.974-14.682-11.979a304.74,304.74,0,0,1-33.146-34.5,413.684,413.684,0,0,1-28.4-39.084c-8.126-12.566-16.173-26.223-24.608-41.747h0c-5.876-10.822-11.831-22.33-18.735-36.216a1.358,1.358,0,0,1,.685-1.851c55.308-23.383,111.944-30.731,149.719-32.781,40.924-2.219,69.18,1.135,69.461,1.171a1.352,1.352,0,0,1,1.16,1.626c-.056.272-6,27.7-21.175,65.273-14.013,34.677-38.994,85.362-78.446,129.906A1.338,1.338,0,0,1,383.67,321.594ZM284.4,192.713c8.4,15.465,16.414,29.062,24.5,41.573a410.844,410.844,0,0,0,28.217,38.829,301.717,301.717,0,0,0,32.848,34.194c4.2,3.7,8.744,7.429,13.527,11.089,38.7-44.011,63.273-93.906,77.1-128.122,13.12-32.455,19.3-57.279,20.732-63.419-6.32-.646-32.161-2.913-67.559-.986-37.239,2.022-92.917,9.227-147.416,32.006,6.617,13.283,12.367,24.383,18.046,34.837Z" transform="translate(-263.139 -122.401)"/>
            </g>
            <g id="Group_1593" data-name="Group 1593" transform="translate(462.263 223.994)">
              <path id="Path_1073" data-name="Path 1073" d="M382.825,266.215q-14.118-15.1-26.779-31.475c-8.483-10.968-16.482-22.31-23.891-34.031-7.348-11.626-14.173-23.591-20.33-35.888Q303.4,148,296.442,130.484c-10.909,3.466-21.892,7.463-32.82,12.083,6.047,12.165,12.238,24.251,18.712,36.171,7.7,14.182,15.808,28.133,24.554,41.663a415.376,415.376,0,0,0,28.31,38.955,301.875,301.875,0,0,0,33,34.349q7.061,6.227,14.6,11.915c6.244-7.05,12.111-14.255,17.656-21.532C394.392,278.31,388.53,272.316,382.825,266.215Z" transform="translate(-262.266 -129.128)" fill="#fff"/>
              <path id="Path_1074" data-name="Path 1074" d="M383.67,307.847a1.346,1.346,0,0,1-.817-.275c-5.2-3.944-10.143-7.974-14.682-11.979a304.76,304.76,0,0,1-33.146-34.5,413.689,413.689,0,0,1-28.4-39.084c-8.126-12.566-16.173-26.223-24.608-41.747-5.876-10.822-11.831-22.33-18.735-36.216a1.358,1.358,0,0,1,.685-1.851c10.5-4.441,21.588-8.522,32.938-12.128a1.352,1.352,0,0,1,1.668.792c4.6,11.583,9.763,23.1,15.336,34.231,5.927,11.839,12.746,23.875,20.265,35.77,7.185,11.37,15.2,22.785,23.816,33.927,8.393,10.853,17.375,21.411,26.7,31.38h0c6.174,6.6,11.923,12.429,17.574,17.813a1.363,1.363,0,0,1,.143,1.8c-5.8,7.609-11.76,14.878-17.721,21.608A1.338,1.338,0,0,1,383.67,307.847ZM266.35,144.129c6.617,13.283,12.367,24.383,18.046,34.837,8.4,15.465,16.414,29.062,24.5,41.573a410.853,410.853,0,0,0,28.217,38.828,301.721,301.721,0,0,0,32.848,34.194c4.2,3.7,8.744,7.429,13.527,11.089,5.384-6.129,10.769-12.7,16.024-19.549-5.407-5.188-10.915-10.788-16.8-17.086h0c-9.381-10.03-18.42-20.653-26.863-31.573-8.668-11.213-16.732-22.7-23.962-34.138-7.567-11.971-14.429-24.085-20.4-36-5.418-10.825-10.449-22.01-14.962-33.27C286.149,136.363,276.01,140.093,266.35,144.129Z" transform="translate(-263.139 -130.001)"/>
            </g>
            <g id="Group_1594" data-name="Group 1594" transform="translate(351.117 340.845)">
              <circle id="Ellipse_48" data-name="Ellipse 48" cx="53.775" cy="53.775" r="53.775" transform="matrix(0.171, -0.985, 0.985, 0.171, 0, 105.974)" fill="#fff"/>
              <path id="Path_1075" data-name="Path 1075" d="M281.328,284.389a55.869,55.869,0,0,1-9.213-.767,54.913,54.913,0,1,1,9.213.767Zm-.23-107.576a52.563,52.563,0,1,0,8.761.73A53.14,53.14,0,0,0,281.1,176.813Z" transform="translate(-219.048 -167.084)"/>
            </g>
            <g id="Group_1595" data-name="Group 1595" transform="translate(373.425 363.175)">
              <path id="Path_1076" data-name="Path 1076" d="M248.133,187.189a38.491,38.491,0,1,1-8.98,53.687A38.494,38.494,0,0,1,248.133,187.189Z" transform="translate(-230.634 -178.691)" fill="#fff"/>
              <path id="Path_1077" data-name="Path 1077" d="M271.448,259.24a40.117,40.117,0,0,1-6.657-.556,39.845,39.845,0,0,1-16.569-71.733h0a39.844,39.844,0,1,1,23.226,72.289ZM249.8,189.152h0a37.137,37.137,0,1,0,51.8,8.665A36.9,36.9,0,0,0,249.8,189.152Z" transform="translate(-231.51 -179.554)"/>
            </g>
            <g id="Group_1596" data-name="Group 1596" transform="translate(209.145 454.961)">
              <circle id="Ellipse_49" data-name="Ellipse 49" cx="45.496" cy="45.496" r="45.496" transform="translate(0 10.588) rotate(-6.682)" fill="#fff"/>
              <path id="Path_1078" data-name="Path 1078" d="M221.236,307.217a46.841,46.841,0,0,1-27.273-84.974h0a46.85,46.85,0,1,1,27.273,84.974Zm-.157-90.987a43.815,43.815,0,0,0-25.543,8.218h0a44.142,44.142,0,1,0,32.919-7.6A44.908,44.908,0,0,0,221.078,216.23Zm-26.329,7.115h0Z" transform="translate(-170.691 -209.901)"/>
            </g>
            <g id="Group_1597" data-name="Group 1597" transform="translate(225.72 471.516)">
              <path id="Path_1079" data-name="Path 1079" d="M193.054,224.666a32.564,32.564,0,1,1-7.6,45.423A32.566,32.566,0,0,1,193.054,224.666Z" transform="translate(-178.06 -217.25)" fill="#fff"/>
              <path id="Path_1080" data-name="Path 1080" d="M212.9,285.978a34.565,34.565,0,0,1-5.668-.472,33.919,33.919,0,0,1-14.1-61.066h0A33.918,33.918,0,1,1,212.9,285.978Zm-.138-65.144a30.979,30.979,0,0,0-18.06,5.811h0a31.064,31.064,0,1,0,18.06-5.811Zm-18.847,4.708h0Z" transform="translate(-178.923 -218.126)"/>
            </g>
            <g id="Group_1598" data-name="Group 1598" transform="translate(182.27 177.012)">
              <path id="Path_1081" data-name="Path 1081" d="M292.259,114.1c-7.134,8.822-14.909,17.3-24.366,23.58S247.1,147.9,235.8,146.918c-12.918-1.124-25.038-8.513-37.972-7.578-11.814.857-22.158,8.544-33.891,10.982q12.189,7.6,24.375,15.187c4.031,2.511,8.117,5.05,12.656,6.449,5.483,1.691,11.353,1.632,17.066,1.087A106.274,106.274,0,0,0,296.515,124.8c1.328-2.1,2.626-4.407,2.564-6.9S297.037,112.812,292.259,114.1Z" transform="translate(-162.582 -112.403)" fill="#fff"/>
              <path id="Path_1082" data-name="Path 1082" d="M212.426,175.617a37.382,37.382,0,0,1-10.988-1.491c-4.736-1.461-8.926-4.07-12.974-6.595L164.09,152.346a1.357,1.357,0,0,1,.441-2.477c5.019-1.042,9.909-3.129,14.636-5.146,6.185-2.637,12.581-5.365,19.431-5.859,7.6-.551,14.948,1.685,22.054,3.848,5.261,1.6,10.7,3.255,16.134,3.727,10.05.868,21.144-2.331,31.231-9.022,9.982-6.626,18.1-15.934,24.057-23.3a1.348,1.348,0,0,1,.7-.458c3.275-.879,5.278-.081,6.379.741a5.522,5.522,0,0,1,2.146,4.345c.07,2.9-1.4,5.469-2.775,7.651-17.125,27.1-47.589,45.822-79.5,48.87C217.038,175.454,214.8,175.617,212.426,175.617Zm-44.185-23.877L189.9,165.233c3.9,2.432,7.938,4.946,12.339,6.3,5.733,1.767,11.85,1.48,16.538,1.034,31.093-2.969,60.779-21.217,77.466-47.62,1.222-1.932,2.41-4,2.357-6.14a2.833,2.833,0,0,0-1.059-2.239,4.435,4.435,0,0,0-3.643-.4c-6.05,7.463-14.249,16.78-24.38,23.5-10.595,7.03-22.29,10.4-32.961,9.466-5.719-.5-11.294-2.194-16.69-3.837-7.185-2.185-13.974-4.25-21.069-3.739-6.4.463-12.308,2.983-18.563,5.651A101.485,101.485,0,0,1,168.241,151.739Z" transform="translate(-163.453 -113.275)"/>
            </g>
            <g id="Group_1599" data-name="Group 1599" transform="translate(335.973 479.368)">
              <path id="Path_1083" data-name="Path 1083" d="M232.624,221.4c-4.516,8.55-9.418,16.895-13.965,27.223q8.068,4.972,16.142,9.943c7.968,4.91,16.024,9.859,25.27,12.274.792-6.2-2.834-12.083-6.87-16.856s-8.758-9.244-10.906-15.114c-1.157-3.16-1.5-6.567-2.576-9.758S236.571,222.777,232.624,221.4Z" transform="translate(-217.302 -220.05)" fill="#fff"/>
              <path id="Path_1084" data-name="Path 1084" d="M260.945,273.068a1.284,1.284,0,0,1-.343-.042c-9.477-2.477-17.692-7.539-25.638-12.432l-16.145-9.943a1.355,1.355,0,0,1-.528-1.7c3.4-7.724,7-14.336,10.471-20.732,1.2-2.2,2.379-4.384,3.539-6.578a1.353,1.353,0,0,1,1.64-.646c3.741,1.3,6.485,4.261,7.935,8.558a45.813,45.813,0,0,1,1.239,4.766,38.1,38.1,0,0,0,1.323,4.958c1.632,4.46,4.96,8.216,8.179,11.847.84.949,1.68,1.9,2.491,2.856,5.536,6.544,7.884,12.4,7.179,17.906a1.348,1.348,0,0,1-1.343,1.18Zm-39.7-24.1,15.136,9.322c7.32,4.508,14.875,9.162,23.316,11.673-.008-4.283-2.2-8.954-6.66-14.229-.8-.944-1.626-1.876-2.452-2.809-3.385-3.823-6.884-7.772-8.693-12.713a41.4,41.4,0,0,1-1.427-5.306,43.593,43.593,0,0,0-1.157-4.486,10.445,10.445,0,0,0-5.2-6.421c-.977,1.834-1.972,3.665-2.974,5.514C227.858,235.557,224.468,241.8,221.249,248.966Z" transform="translate(-218.176 -220.921)"/>
            </g>
            <g id="Group_1600" data-name="Group 1600" transform="translate(237.282 312.915)">
              <path id="Path_1085" data-name="Path 1085" d="M186.1,162.142c-3.382,18.779-5.441,33.217,7.044,47.645,13.058,15.089,34.784,13.968,78.073,13.968,2.758,0,15.67.806,17.973,2.326,3.55,2.34,1.365,70.542-.6,111.07,8.286,1.593,16.575,3.188,24.366,2.118,33.77-148.233,23.591-136.585,12.6-148.528-14.305-15.547-55-20.156-65.006-21.341a206.565,206.565,0,0,0-25.243-1.949C217.636,167.529,197.093,171.178,186.1,162.142Z" transform="translate(-182.164 -160.787)" fill="#acd4f7"/>
              <path id="Path_1086" data-name="Path 1086" d="M308.5,341.841c-6.348,0-12.9-1.258-19.282-2.486a1.357,1.357,0,0,1-1.1-1.4c2.427-50.075,3.618-105.366,1.084-109.947-2.1-1.115-13.339-2.031-17.105-2.031q-4.331,0-8.379.011c-37.475.067-58.125.1-70.717-14.445-13.359-15.437-10.443-31.63-7.353-48.774a1.355,1.355,0,0,1,2.194-.806c8.174,6.727,22.512,6.05,36.379,5.4,3.963-.188,8.058-.379,11.96-.4,8.5-.065,17.111.978,25.408,1.961l.447.053c33.809,4,55.813,11.3,65.4,21.717a39.006,39.006,0,0,0,3.233,3.05c9.949,8.665,14.945,13.019-15.51,146.694a1.356,1.356,0,0,1-1.138,1.042A40.919,40.919,0,0,1,308.5,341.841Zm-17.617-4.924c7.353,1.407,14.892,2.753,21.847,2,29.863-131.2,24.7-135.686,16.159-143.124a40.555,40.555,0,0,1-3.444-3.258c-6.28-6.823-22.434-15.982-63.725-20.864l-.444-.051c-8.216-.975-16.723-1.986-25.077-1.941-3.845.017-7.912.208-11.847.393-13.448.635-27.327,1.289-36.416-4.677-3.292,18.757-4.132,31.385,7.117,44.381,11.783,13.611,30.807,13.569,68.666,13.51q4.049-.008,8.381-.011c1.255,0,15.777.612,18.718,2.548,1.124.741,3.005,1.98,2.379,42.368C292.9,287.238,292.033,312.846,290.879,336.917Zm-1.727-108.989Z" transform="translate(-183.039 -161.66)"/>
            </g>
            <g id="Group_1612" data-name="Group 1612" transform="translate(292.204 8.14)">
              <g id="Group_1601" data-name="Group 1601" transform="translate(4.313 31.649)">
                <path id="Path_1087" data-name="Path 1087" d="M204.611,66.449a304.1,304.1,0,0,0,3.415,34.256,82.754,82.754,0,0,0,6.039,20.47,11.837,11.837,0,0,0,5.553,6.3c.472-2.806,3.556-3.9,4.3-6.662.916-3.393-.989-6.662,1.407-9.508a50.724,50.724,0,0,0,9.859-17.948c1.6-5.275,2.219-10.935.2-16.167a18.153,18.153,0,0,0-13.617-11.064C216.807,65.275,208.858,63.7,204.611,66.449Z" transform="translate(-203.256 -63.551)" fill="#263238"/>
                <path id="Path_1088" data-name="Path 1088" d="M220.491,129.7a1.345,1.345,0,0,1-.7-.194A13.2,13.2,0,0,1,213.7,122.6a83.9,83.9,0,0,1-6.143-20.821,303.755,303.755,0,0,1-3.43-34.4,1.354,1.354,0,0,1,.618-1.2c4.477-2.9,12.221-1.55,17.344-.654l.778.135a19.508,19.508,0,0,1,14.651,11.909c1.885,4.876,1.831,10.451-.163,17.049a51.838,51.838,0,0,1-10.12,18.428c-1.093,1.295-1,2.741-.89,4.573a13.248,13.248,0,0,1-.247,4.415,8.869,8.869,0,0,1-2.472,3.783,5.588,5.588,0,0,0-1.8,2.75,1.36,1.36,0,0,1-.77,1.006A1.377,1.377,0,0,1,220.491,129.7ZM206.877,68.087a300.124,300.124,0,0,0,3.359,33.281,81.2,81.2,0,0,0,5.938,20.122,10.246,10.246,0,0,0,3.634,4.792,11.676,11.676,0,0,1,1.859-2.331,6.455,6.455,0,0,0,1.817-2.621,10.846,10.846,0,0,0,.16-3.542c-.126-2.042-.27-4.359,1.52-6.483a49.141,49.141,0,0,0,9.6-17.471c1.812-5.994,1.888-11,.228-15.285a16.742,16.742,0,0,0-12.583-10.218l-.784-.135C217.191,67.421,210.621,66.275,206.877,68.087Z" transform="translate(-204.129 -64.419)"/>
              </g>
              <g id="Group_1602" data-name="Group 1602" transform="translate(3.648 24.658)">
                <path id="Path_1089" data-name="Path 1089" d="M282.446,95.51c-.93,9.294.5,18.681.1,28.012s-2.91,19.069-10.4,25.846c-6.595,5.969-16.774,8.971-26.459,7.8s-18.617-6.474-23.22-13.791c-4.328-6.881-4.486-21.453-4.851-28.756-4.354.461-9.092-1.109-11.564-4.21a7.29,7.29,0,0,1,.882-10.21c3.118-2.57,6.946-2.812,11.1,1.438a67.661,67.661,0,0,1,1.882-14.471c1.592-7.238,2.25-18.06,7.48-20.928,2.96-1.623,9.1-2.873,12.544-3.6,5.943-1.247,13.934,2.862,20.083,3.137s12.3,3.508,17.105,6.808C282.884,76.542,283.145,88.555,282.446,95.51Z" transform="translate(-203.008 -61.059)" fill="#fff"/>
                <path id="Path_1090" data-name="Path 1090" d="M250.759,159.647a36.3,36.3,0,0,1-4.345-.258c-10.1-1.219-19.378-6.741-24.206-14.415-4.076-6.48-4.6-18.8-4.946-26.956-.017-.374-.031-.739-.048-1.09-4.517.065-8.924-1.775-11.333-4.8a8.6,8.6,0,0,1,1.079-12.1,8.252,8.252,0,0,1,10.7-.388,74.771,74.771,0,0,1,1.786-11.713l.039-.177c.326-1.477.609-3.1.91-4.82,1.185-6.761,2.528-14.423,7.241-17.007,3.028-1.66,8.974-2.907,12.527-3.651l.39-.081c3.826-.8,8.23.376,12.491,1.517a39.756,39.756,0,0,0,7.932,1.6c5.356.239,11.35,2.609,17.81,7.042,7.41,5.087,6.213,21.026,5.9,24.169l-1.345-.135,1.345.135a110.886,110.886,0,0,0-.067,15.606c.171,4.033.351,8.207.177,12.328-.492,11.713-4.143,20.729-10.845,26.8C268.033,156.591,259.444,159.647,250.759,159.647Zm-32.256-45.5a1.355,1.355,0,0,1,1.354,1.286c.037.753.073,1.584.11,2.475.315,7.39.843,19.757,4.533,25.627,4.4,7,12.926,12.047,22.237,13.168,9.336,1.126,19.058-1.733,25.386-7.46,6.148-5.564,9.5-13.94,9.957-24.9.171-4.008-.006-8.123-.177-12.1a112.6,112.6,0,0,1,.081-15.99c.8-7.949.034-18.392-4.736-21.664-6.036-4.146-11.555-6.356-16.4-6.573a42.288,42.288,0,0,1-8.508-1.682c-3.955-1.059-8.047-2.154-11.235-1.483l-.39.081c-3.4.713-9.106,1.907-11.78,3.376-3.573,1.958-4.8,8.94-5.876,15.1-.306,1.747-.6,3.4-.933,4.932l-.039.18a65.566,65.566,0,0,0-1.809,14,1.353,1.353,0,0,1-2.323.949c-3.272-3.345-6.306-3.783-9.272-1.34a5.908,5.908,0,0,0-.685,8.32c2.078,2.609,6.342,4.137,10.364,3.71A1.169,1.169,0,0,1,218.5,114.142Z" transform="translate(-203.892 -61.93)"/>
              </g>
              <g id="Group_1603" data-name="Group 1603">
                <path id="Path_1091" data-name="Path 1091" d="M257.223,94.733c.483,4.2,6.258,10.662,10.224,11.485s5.66-.871,7.668-4.556c3.233,3.525,5.564,7.019,9.053,8.777,5.328,2.685,12.55-.081,14.993-5.744s-.368-13.125-5.831-15.5c3.7,1.3,7.881-2.149,8.379-6.207s-1.972-8.03-5.286-10.179-7.325-2.769-11.193-3.744c1.887-3.789.506-8.727-2.5-11.589s-7.264-3.915-11.339-3.837a14.25,14.25,0,0,0-7.685,2.076,9.425,9.425,0,0,0-4.163,7.112c-3.056-4.806-8.423-8.379-13.909-7.648s-10.2,6.859-11.069,11.325c-2.272-3.472-5.407-6.457-9.44-6.657-8-.4-10.5,6.193-7.82,15.285a9.225,9.225,0,0,0-13.179,4.6c-1.975,4.435-1.048,11.918,1.772,15.839s13.766,8.157,22.229,3.331c4.7-2.682,7.219-6.741,8.907-10.626,1.916,4.252,3.34,7.188,8.98,9.713C250.125,99.828,255.367,98.654,257.223,94.733Z" transform="translate(-201.728 -52.279)" fill="#263238"/>
                <path id="Path_1092" data-name="Path 1092" d="M289.51,113.7a11.262,11.262,0,0,1-5.087-1.177c-2.862-1.441-4.969-3.9-7.2-6.508-.334-.388-.671-.784-1.02-1.182-1.666,2.6-3.834,4.483-8.171,3.587-3.685-.764-8.5-5.542-10.454-9.848a10.341,10.341,0,0,1-11.26,1.525c-4.876-2.18-6.91-4.809-8.443-7.8a21.36,21.36,0,0,1-8.218,8.657c-9.232,5.264-20.951.52-24-3.716-3.146-4.373-4.036-12.4-1.91-17.181a10.955,10.955,0,0,1,6.828-6.2,10.54,10.54,0,0,1,5.629-.135c-.918-4.7-.354-8.595,1.657-11.151,1.244-1.581,3.671-3.424,8.188-3.2,3.261.16,6.244,1.862,8.893,5.064,1.947-4.525,6.429-9.067,11.373-9.724,4.736-.632,9.766,1.612,13.418,5.828a10.826,10.826,0,0,1,4.081-5.075,15.521,15.521,0,0,1,8.41-2.3c4.974-.1,9.35,1.4,12.3,4.21a11.879,11.879,0,0,1,3.387,11.617c.214.051.43.1.643.149,3.227.753,6.567,1.534,9.466,3.413,4.045,2.618,6.412,7.233,5.893,11.479a9.2,9.2,0,0,1-4.227,6.522,8.183,8.183,0,0,1-1.424.705,13.885,13.885,0,0,1,3,14.856A13.016,13.016,0,0,1,289.51,113.7ZM275.98,101.18a1.349,1.349,0,0,1,1,.441c.817.893,1.576,1.775,2.306,2.632,2.135,2.494,3.977,4.651,6.356,5.848a9.287,9.287,0,0,0,7.311.27,10.031,10.031,0,0,0,5.828-5.337c2.146-4.977-.346-11.648-5.126-13.726a1.355,1.355,0,0,1,.992-2.519,4.177,4.177,0,0,0,3.615-.545,6.518,6.518,0,0,0,2.966-4.547c.458-3.744-2.02-7.157-4.677-8.879-2.5-1.623-5.469-2.314-8.609-3.048-.728-.169-1.455-.337-2.18-.52a1.357,1.357,0,0,1-.882-1.918c1.52-3.048.565-7.351-2.222-10-2.432-2.314-6.129-3.533-10.381-3.463a12.86,12.86,0,0,0-6.957,1.851,8.083,8.083,0,0,0-3.561,6.07,1.355,1.355,0,0,1-2.494.64c-3.1-4.876-8.053-7.64-12.589-7.033-4.966.66-9.193,6.505-9.921,10.241a1.353,1.353,0,0,1-2.46.483c-2.531-3.862-5.348-5.9-8.376-6.044-2.685-.132-4.688.6-5.926,2.168-1.795,2.281-1.986,6.429-.528,11.378a1.354,1.354,0,0,1-2.019,1.531,7.476,7.476,0,0,0-6.078-.708,8.3,8.3,0,0,0-5.14,4.71c-1.758,3.952-.98,10.862,1.635,14.5,2.275,3.163,12.361,7.558,20.456,2.944a20.208,20.208,0,0,0,8.336-9.988,1.353,1.353,0,0,1,1.233-.815h.008a1.354,1.354,0,0,1,1.236.8c1.806,4.014,3,6.662,8.294,9.033,3.275,1.463,7.845.77,9.437-2.6a1.354,1.354,0,0,1,2.57.424c.418,3.626,5.721,9.6,9.154,10.314,2.916.607,4.194-.191,6.2-3.879a1.363,1.363,0,0,1,1.025-.694A1.086,1.086,0,0,1,275.98,101.18Z" transform="translate(-202.593 -53.151)"/>
              </g>
              <g id="Group_1604" data-name="Group 1604" transform="translate(68.732 69.099)">
                <path id="Path_1093" data-name="Path 1093" d="M231.421,80.324a2.21,2.21,0,1,0-2.6,1.573A2.152,2.152,0,0,0,231.421,80.324Z" transform="translate(-227.064 -77.753)"/>
              </g>
              <g id="Group_1605" data-name="Group 1605" transform="translate(37.967 67.576)">
                <path id="Path_1094" data-name="Path 1094" d="M220.471,79.782a2.212,2.212,0,1,0-2.606,1.57A2.152,2.152,0,0,0,220.471,79.782Z" transform="translate(-216.11 -77.21)"/>
              </g>
              <g id="Group_1606" data-name="Group 1606" transform="translate(38.62 100.358)">
                <path id="Path_1095" data-name="Path 1095" d="M226.6,96.208a12.324,12.324,0,0,1-10.019-5.2,1.354,1.354,0,1,1,2.227-1.539,9.668,9.668,0,0,0,9.145,3.93,1.353,1.353,0,1,1,.419,2.674A11.393,11.393,0,0,1,226.6,96.208Z" transform="translate(-216.343 -88.882)"/>
              </g>
              <g id="Group_1608" data-name="Group 1608" transform="translate(17.275 62.244)">
                <path id="Path_1097" data-name="Path 1097" d="M210.147,84.441a1.352,1.352,0,0,1-1.351-1.317c-.073-2.587-.056-3.969-.031-6.474a1.355,1.355,0,0,1,1.357-1.337h.014a1.355,1.355,0,0,1,1.34,1.368c-.028,2.553-.042,3.834.028,6.37a1.355,1.355,0,0,1-1.317,1.39Z" transform="translate(-208.743 -75.312)"/>
              </g>
              <g id="Group_1609" data-name="Group 1609" transform="translate(7.053 27.781)">
                <path id="Path_1098" data-name="Path 1098" d="M211.272,76.554a1.352,1.352,0,0,1-.708-.2,11.828,11.828,0,0,1-5.219-12.246,1.354,1.354,0,1,1,2.646.576,9.044,9.044,0,0,0,3.991,9.362,1.355,1.355,0,0,1-.711,2.508Z" transform="translate(-205.104 -63.042)"/>
              </g>
              <g id="Group_1610" data-name="Group 1610" transform="translate(34.292 35.88)" opacity="0.129">
                <path id="Path_1099" data-name="Path 1099" d="M216.588,65.952q.666,1.011,1.4,1.972c.039.138.112.351.287.837a18.423,18.423,0,0,0,.975,1.941,17.415,17.415,0,0,0,4.368,4.6,1.234,1.234,0,0,1,1.59-.407c.093.042.185.079.281.115l.163.045a26.017,26.017,0,0,0,3.365.638l-.371-.025a14.5,14.5,0,0,0,3.5-.256l.379-.081a1.4,1.4,0,0,1,.885.008,1.456,1.456,0,0,1,.219-.051,1.024,1.024,0,0,1,.067-.107l.034-.07a2.193,2.193,0,0,1,0-.385,1.657,1.657,0,0,1,2.081-1.376,1.949,1.949,0,0,1,1.314,2.126,9.663,9.663,0,0,0,.463.935c.739,1.135,1.6,2.2,2.444,3.253.163.2.626.713.7.812l.112.121a13.855,13.855,0,0,0,4.935,3.292l.031.008a7.73,7.73,0,0,0,1.416.166,4.2,4.2,0,0,0,.435-.048c.067-.022.138-.042.205-.067.163-.07.326-.149.483-.233l.124-.081c.059-.039.112-.087.169-.129a3.21,3.21,0,0,0,1.536-.362,2.977,2.977,0,0,0,1.368-.756,3.9,3.9,0,0,0,.556-.691l.067-.1a.9.9,0,0,0,.09-.09c.081-.09.163-.18.242-.27a10.032,10.032,0,0,0,1.362-1.972h.042a1.791,1.791,0,0,1,1.374,1.045,5.058,5.058,0,0,0,.3.736c.034.067.073.132.11.2.011.02.036.059.081.138l-.008-.006.034.056c.427.494.753,1.073,1.2,1.548.174.188.36.365.539.548.051.045.11.1.168.16l.076.073a22.04,22.04,0,0,0,3.031,2.416c.728.581,1.761.882,2.253,1.7a1.856,1.856,0,0,1-2.713,2.418,22.511,22.511,0,0,1-6.03-5.233,12.478,12.478,0,0,1-.767-1.076,12.922,12.922,0,0,1-4.1,3.424c-2.43,1.031-5.224.281-7.365-1.09a16.788,16.788,0,0,1-3.9-3.376A24.259,24.259,0,0,1,235.331,79a8.131,8.131,0,0,1-2.458,1.879,6.8,6.8,0,0,1-4.177.506c.062.014.126.034.174.048-.138-.017-.278-.037-.416-.062a15.179,15.179,0,0,1-4.927-2.076,20.426,20.426,0,0,1-5.839-5.174,14.8,14.8,0,0,1-2.244-4.384c-.087-.4-.025-.045.048.16-.219-.587-.39-1.191-.55-1.795a1.678,1.678,0,0,1-.073-1.084A1.435,1.435,0,0,1,216.588,65.952Z" transform="translate(-214.802 -65.926)"/>
              </g>
              <g id="Group_1611" data-name="Group 1611" transform="translate(6.12 47.071)" opacity="0.129">
                <path id="Path_1100" data-name="Path 1100" d="M205.059,70.458c.73-.977,1.851-.424,2.753-.045,1.34.542,2.744.9,4.1,1.407a29.341,29.341,0,0,0,3.008,1.09l-.031-.008c.323.087.57.16.006.006.542.174,1.132.23,1.66.438a1.519,1.519,0,0,1,.669-.548,1.65,1.65,0,0,1,2.154,2.132,23.709,23.709,0,0,0-1.194,3.011c-.258,1.55-.778,3.994-2.885,3.236a2.015,2.015,0,0,1-.921-.882c.037.135-.823-.913-1.059-1.112-.927-.991-2.739-2.573-4.525-4.143-.932-.781-1.893-1.531-2.893-2.225-.079-.051-.16-.1-.239-.143s-.171-.1-.278-.163A1.457,1.457,0,0,1,205.059,70.458Z" transform="translate(-204.772 -69.91)"/>
              </g>
            </g>
            <g id="Group_1613" data-name="Group 1613" transform="translate(306.635 163.127)">
              <path id="Path_1101" data-name="Path 1101" d="M224.471,111.836a6.5,6.5,0,0,0-9.426-1.713l-3.109,2.309c-1.725,1.281-3.615,2.851-3.719,5-.084,1.753,1.067,3.295,2.163,4.668,1.618,2.031,3.519,4.222,6.1,4.491a9.889,9.889,0,0,0,5.092-1.357,9.065,9.065,0,0,0,2.854-1.814,7.02,7.02,0,0,0,1.6-4.34,12.294,12.294,0,0,0-1.517-7.179Z" transform="translate(-206.86 -107.46)" fill="#fff"/>
              <path id="Path_1102" data-name="Path 1102" d="M217.891,128.841a6.111,6.111,0,0,1-.677-.034c-3.317-.343-5.637-3.255-7.022-4.994-1.022-1.284-2.57-3.222-2.455-5.578.143-2.96,2.823-4.949,4.264-6.019l3.109-2.309a8.026,8.026,0,0,1,6.331-1.424,7.525,7.525,0,0,1,5.061,3.525l.022.039a13.562,13.562,0,0,1,1.725,8.008,8.271,8.271,0,0,1-1.96,5.163,10.222,10.222,0,0,1-3.267,2.112A12.163,12.163,0,0,1,217.891,128.841Zm2-17.8a5.287,5.287,0,0,0-3.163,1.045l-3.112,2.306c-1.494,1.109-3.1,2.424-3.171,3.977-.059,1.233.848,2.48,1.868,3.758,1.517,1.9,3.166,3.778,5.182,3.989,1.34.14,2.716-.449,4.376-1.233a8.043,8.043,0,0,0,2.444-1.514,5.715,5.715,0,0,0,1.239-3.519,11.024,11.024,0,0,0-1.334-6.387l1.126-.753-1.16.7a4.851,4.851,0,0,0-3.267-2.264A5.312,5.312,0,0,0,219.888,111.039Z" transform="translate(-207.731 -108.331)"/>
            </g>
            <g id="Group_1614" data-name="Group 1614" transform="translate(294.756 147.007)">
              <path id="Path_1103" data-name="Path 1103" d="M209.3,117.386a1.35,1.35,0,0,1-1.129-.607,29.284,29.284,0,0,1-4.657-12.673,1.355,1.355,0,1,1,2.691-.32,26.586,26.586,0,0,0,4.222,11.5,1.353,1.353,0,0,1-1.126,2.1Z" transform="translate(-203.501 -102.592)"/>
            </g>
            <g id="Group_1615" data-name="Group 1615" transform="translate(289.97 159.307)">
              <path id="Path_1104" data-name="Path 1104" d="M206.619,113.619a1.353,1.353,0,0,1-1.017-.458l-3.466-3.941a1.354,1.354,0,1,1,2.034-1.789l3.466,3.938a1.354,1.354,0,0,1-1.017,2.25Z" transform="translate(-201.798 -106.971)"/>
            </g>
            <g id="Group_1616" data-name="Group 1616" transform="translate(246.134 304.564)">
              <path id="Path_1105" data-name="Path 1105" d="M211.821,168.1a1.371,1.371,0,0,1-.185-.011,95.4,95.4,0,0,1-24.622-6.806,1.355,1.355,0,0,1,1.065-2.491A92.653,92.653,0,0,0,212,165.407a1.354,1.354,0,0,1-.18,2.7Z" transform="translate(-186.191 -158.686)"/>
            </g>
            <g id="Group_1617" data-name="Group 1617" transform="translate(376.174 264.815)" opacity="0.129">
              <path id="Path_1106" data-name="Path 1106" d="M257.325,144.536c-1.55.037-2.772,1.188-4.073,1.9-2.048,1.365-4.115,2.7-6.134,4.106-4.677,3.441-9.527,6.7-13.71,10.749a3.083,3.083,0,0,0,4.359,4.359,133.764,133.764,0,0,1,13.356-10.429c1.916-1.194,3.795-2.444,5.721-3.623.947-.711,2.253-1.02,2.952-2.008C261.476,147.684,259.828,144.463,257.325,144.536Z" transform="translate(-232.489 -144.535)"/>
            </g>
            <g id="Group_1618" data-name="Group 1618" transform="translate(249.214 485.467)">
              <path id="Path_1107" data-name="Path 1107" d="M187.741,260.824H187.7a.453.453,0,0,1-.41-.492l3.224-36.829a.453.453,0,0,1,.9.079l-3.224,36.832A.454.454,0,0,1,187.741,260.824Z" transform="translate(-187.287 -223.093)"/>
            </g>
            <g id="Group_1619" data-name="Group 1619" transform="translate(263.83 481.426)">
              <path id="Path_1108" data-name="Path 1108" d="M192.941,268.516h-.014a.45.45,0,0,1-.435-.466l1.536-45.96a.45.45,0,0,1,.452-.435h.014a.45.45,0,0,1,.435.466l-1.536,45.96A.45.45,0,0,1,192.941,268.516Z" transform="translate(-192.491 -221.654)"/>
            </g>
            <g id="Group_1620" data-name="Group 1620" transform="translate(403.928 391.874)">
              <path id="Path_1109" data-name="Path 1109" d="M242.822,210.921h-.02a.453.453,0,0,1-.433-.469l.843-20.248a.451.451,0,1,1,.9.039l-.84,20.246A.452.452,0,0,1,242.822,210.921Z" transform="translate(-242.37 -189.771)"/>
            </g>
            <g id="Group_1621" data-name="Group 1621" transform="translate(416.947 373.699)">
              <path id="Path_1110" data-name="Path 1110" d="M247.454,239.256h0a.447.447,0,0,1-.447-.452c.093-18.288.632-36.82,1.6-55.074a.45.45,0,1,1,.9.048c-.966,18.24-1.506,36.756-1.6,55.032A.449.449,0,0,1,247.454,239.256Z" transform="translate(-247.005 -183.301)"/>
            </g>
            <g id="Group_1622" data-name="Group 1622" transform="translate(343.918 493.868)">
              <path id="Path_1111" data-name="Path 1111" d="M221.455,238.306a.391.391,0,0,1-.124-.02.45.45,0,0,1-.309-.559,55.081,55.081,0,0,1,4.778-11.412.451.451,0,1,1,.786.441,54.25,54.25,0,0,0-4.7,11.224A.456.456,0,0,1,221.455,238.306Z" transform="translate(-221.005 -226.084)"/>
            </g>
            <g id="Group_1623" data-name="Group 1623" transform="translate(347.359 499.732)">
              <path id="Path_1112" data-name="Path 1112" d="M222.683,238.3a.513.513,0,0,1-.093-.008.451.451,0,0,1-.351-.534,38.924,38.924,0,0,1,3.2-9.331.451.451,0,0,1,.809.4,38.107,38.107,0,0,0-3.126,9.114A.45.45,0,0,1,222.683,238.3Z" transform="translate(-222.23 -228.172)"/>
            </g>
            <g id="Group_1624" data-name="Group 1624" transform="translate(351.503 502.482)">
              <path id="Path_1113" data-name="Path 1113" d="M224.157,239.775h-.008a.448.448,0,0,1-.444-.458,24.218,24.218,0,0,1,2.32-9.909.451.451,0,0,1,.814.388,23.345,23.345,0,0,0-2.233,9.536A.449.449,0,0,1,224.157,239.775Z" transform="translate(-223.705 -229.15)"/>
            </g>
            <g id="Group_1625" data-name="Group 1625" transform="translate(356.084 505.72)">
              <path id="Path_1114" data-name="Path 1114" d="M225.788,240.186h-.008a.45.45,0,0,1-.444-.458,36.113,36.113,0,0,1,1.329-9.095.45.45,0,1,1,.868.242,35.367,35.367,0,0,0-1.295,8.867A.45.45,0,0,1,225.788,240.186Z" transform="translate(-225.336 -230.303)"/>
            </g>
            <g id="Group_1626" data-name="Group 1626" transform="translate(361.114 508.586)">
              <path id="Path_1115" data-name="Path 1115" d="M227.58,241.711a.451.451,0,0,1-.452-.449,67.494,67.494,0,0,1,.629-9.55.455.455,0,0,1,.508-.385.45.45,0,0,1,.385.508,66.5,66.5,0,0,0-.618,9.423.45.45,0,0,1-.449.452Z" transform="translate(-227.127 -231.324)"/>
            </g>
            <g id="Group_1627" data-name="Group 1627" transform="translate(365.866 512.456)">
              <path id="Path_1116" data-name="Path 1116" d="M229.331,241.345a.451.451,0,0,1-.452-.43,54.066,54.066,0,0,1,.2-7.808.463.463,0,0,1,.494-.4.453.453,0,0,1,.4.494,53.057,53.057,0,0,0-.194,7.676.454.454,0,0,1-.43.472Z" transform="translate(-228.819 -232.702)"/>
            </g>
            <g id="Group_1628" data-name="Group 1628" transform="translate(370.37 517.451)">
              <path id="Path_1117" data-name="Path 1117" d="M231.115,241.761a.451.451,0,0,1-.447-.39,27.808,27.808,0,0,1-.107-6.483.452.452,0,0,1,.9.09,26.92,26.92,0,0,0,.1,6.272.45.45,0,0,1-.385.508Z" transform="translate(-230.422 -234.48)"/>
            </g>
            <g id="Group_1629" data-name="Group 1629" transform="translate(196.311 213.756)">
              <path id="Path_1118" data-name="Path 1118" d="M173.7,133.813a.448.448,0,0,1-.348-.163,72.626,72.626,0,0,1-4.828-6.6.451.451,0,1,1,.756-.492,71.879,71.879,0,0,0,4.769,6.511.451.451,0,0,1-.348.739Z" transform="translate(-168.453 -126.356)"/>
            </g>
            <g id="Group_1630" data-name="Group 1630" transform="translate(200.816 211.609)">
              <path id="Path_1119" data-name="Path 1119" d="M183.962,144.481a.45.45,0,0,1-.351-.169c-4.651-5.845-9.185-11.9-13.471-18.01a.448.448,0,0,1,.11-.629.454.454,0,0,1,.629.11c4.278,6.092,8.8,12.137,13.437,17.965a.451.451,0,0,1-.354.733Z" transform="translate(-170.056 -125.592)"/>
            </g>
            <g id="Group_1631" data-name="Group 1631" transform="translate(206.862 209.411)">
              <path id="Path_1120" data-name="Path 1120" d="M190.05,148.789a.45.45,0,0,1-.348-.166c-6.075-7.446-11.934-15.221-17.412-23.1a.45.45,0,1,1,.739-.514c5.466,7.865,11.311,15.62,17.372,23.049a.451.451,0,0,1-.065.635A.442.442,0,0,1,190.05,148.789Z" transform="translate(-172.209 -124.81)"/>
            </g>
            <g id="Group_1632" data-name="Group 1632" transform="translate(213.13 208.882)">
              <path id="Path_1121" data-name="Path 1121" d="M193.247,150.63a.461.461,0,0,1-.345-.16,220.3,220.3,0,0,1-18.392-25.158.452.452,0,1,1,.767-.48,218.485,218.485,0,0,0,18.316,25.054.452.452,0,0,1-.345.744Z" transform="translate(-174.441 -124.621)"/>
            </g>
            <g id="Group_1633" data-name="Group 1633" transform="translate(219.221 208.242)">
              <path id="Path_1122" data-name="Path 1122" d="M196.172,150.368a.442.442,0,0,1-.343-.16,295.085,295.085,0,0,1-19.142-25.11.452.452,0,0,1,.747-.508,293.874,293.874,0,0,0,19.08,25.035.453.453,0,0,1-.343.744Z" transform="translate(-176.609 -124.393)"/>
            </g>
            <g id="Group_1634" data-name="Group 1634" transform="translate(225.969 208.33)">
              <path id="Path_1123" data-name="Path 1123" d="M198.7,149.6a.457.457,0,0,1-.331-.146,205.78,205.78,0,0,1-19.279-24.327.451.451,0,1,1,.747-.506,205.243,205.243,0,0,0,19.2,24.22.452.452,0,0,1-.025.638A.446.446,0,0,1,198.7,149.6Z" transform="translate(-179.011 -124.424)"/>
            </g>
            <g id="Group_1635" data-name="Group 1635" transform="translate(233.271 210.042)">
              <path id="Path_1124" data-name="Path 1124" d="M199.753,147.131a.454.454,0,0,1-.331-.143A263.992,263.992,0,0,1,181.7,125.756a.452.452,0,0,1,.725-.542,262.713,262.713,0,0,0,17.656,21.159.449.449,0,0,1-.329.758Z" transform="translate(-181.611 -125.034)"/>
            </g>
            <g id="Group_1636" data-name="Group 1636" transform="translate(240.359 211.205)">
              <path id="Path_1125" data-name="Path 1125" d="M201.179,144.73a.451.451,0,0,1-.326-.138c-5.7-5.927-11.294-12.12-16.611-18.4a.45.45,0,0,1,.688-.581c5.306,6.269,10.881,12.446,16.575,18.358a.452.452,0,0,1-.011.638A.459.459,0,0,1,201.179,144.73Z" transform="translate(-184.135 -125.448)"/>
            </g>
            <g id="Group_1637" data-name="Group 1637" transform="translate(250.01 214.362)">
              <path id="Path_1126" data-name="Path 1126" d="M200.781,140.467a.45.45,0,0,1-.309-.124c-4.4-4.163-8.7-8.541-12.783-13.016a.451.451,0,0,1,.666-.61c4.07,4.458,8.353,8.822,12.738,12.968a.452.452,0,0,1,.017.638A.448.448,0,0,1,200.781,140.467Z" transform="translate(-187.571 -126.572)"/>
            </g>
            <g id="Group_1638" data-name="Group 1638" transform="translate(258.08 215.305)">
              <path id="Path_1127" data-name="Path 1127" d="M201.176,137.893a.442.442,0,0,1-.3-.118c-3.556-3.213-7.025-6.615-10.308-10.109a.452.452,0,0,1,.017-.638.458.458,0,0,1,.64.02c3.267,3.474,6.719,6.859,10.255,10.058a.451.451,0,0,1-.3.786Z" transform="translate(-190.444 -126.908)"/>
            </g>
            <g id="Group_1639" data-name="Group 1639" transform="translate(264.513 214.546)">
              <path id="Path_1128" data-name="Path 1128" d="M201.5,135.478a.462.462,0,0,1-.312-.124l-8.314-7.938a.452.452,0,0,1,.624-.654l8.314,7.938a.449.449,0,0,1,.014.638A.444.444,0,0,1,201.5,135.478Z" transform="translate(-192.734 -126.638)"/>
            </g>
            <g id="Group_1640" data-name="Group 1640" transform="translate(270.84 213.186)">
              <path id="Path_1129" data-name="Path 1129" d="M203.139,134.335a.457.457,0,0,1-.312-.124l-7.7-7.278a.452.452,0,0,1,.621-.657l7.7,7.28a.449.449,0,0,1-.309.778Z" transform="translate(-194.987 -126.153)"/>
            </g>
            <g id="Group_1641" data-name="Group 1641" transform="translate(276.298 212.003)">
              <path id="Path_1130" data-name="Path 1130" d="M203.593,132.349a.445.445,0,0,1-.281-.1,58.676,58.676,0,0,1-6.261-5.758.452.452,0,0,1,.66-.618,57.434,57.434,0,0,0,6.162,5.668.452.452,0,0,1-.281.806Z" transform="translate(-196.93 -125.732)"/>
            </g>
            <g id="Group_1642" data-name="Group 1642" transform="translate(280.982 209.804)">
              <path id="Path_1131" data-name="Path 1131" d="M204.413,130.988a.447.447,0,0,1-.312-.126l-5.365-5.134a.452.452,0,1,1,.626-.652l5.362,5.134a.452.452,0,0,1-.312.778Z" transform="translate(-198.598 -124.949)"/>
            </g>
            <g id="Group_1643" data-name="Group 1643" transform="translate(285.072 207.696)">
              <path id="Path_1132" data-name="Path 1132" d="M206.06,129.584a.449.449,0,0,1-.3-.118,61.677,61.677,0,0,0-5.514-4.449.451.451,0,0,1,.525-.733,62.092,62.092,0,0,1,5.6,4.514.452.452,0,0,1-.3.786Z" transform="translate(-200.054 -124.199)"/>
            </g>
            <g id="Group_1644" data-name="Group 1644" transform="translate(289.362 204.818)">
              <path id="Path_1133" data-name="Path 1133" d="M207.083,128.131a.456.456,0,0,1-.256-.079,45.022,45.022,0,0,1-5.1-4.1.451.451,0,1,1,.615-.66,44.086,44.086,0,0,0,5,4.014.451.451,0,0,1-.258.823Z" transform="translate(-201.581 -123.174)"/>
            </g>
            <g id="Group_1645" data-name="Group 1645" transform="translate(293.789 201.557)">
              <path id="Path_1134" data-name="Path 1134" d="M208.091,126.243a.449.449,0,0,1-.267-.09l-4.483-3.326a.451.451,0,1,1,.536-.725l4.483,3.326a.452.452,0,0,1-.27.815Z" transform="translate(-203.157 -122.013)"/>
            </g>
            <g id="Group_1646" data-name="Group 1646" transform="translate(298.65 198.345)">
              <path id="Path_1135" data-name="Path 1135" d="M208.388,124.146a.445.445,0,0,1-.278-.1l-3.048-2.373a.45.45,0,1,1,.553-.711l3.05,2.371a.453.453,0,0,1-.278.809Z" transform="translate(-204.888 -120.87)"/>
            </g>
            <g id="Group_1647" data-name="Group 1647" transform="translate(302.232 195.134)">
              <path id="Path_1136" data-name="Path 1136" d="M209.794,123.369a.447.447,0,0,1-.295-.11l-3.18-2.741a.451.451,0,1,1,.59-.683l3.18,2.739a.452.452,0,0,1-.295.795Z" transform="translate(-206.163 -119.726)"/>
            </g>
            <g id="Group_1648" data-name="Group 1648" transform="translate(305.149 192.03)">
              <path id="Path_1137" data-name="Path 1137" d="M210.815,121.6a.444.444,0,0,1-.233-.065c-1.081-.657-2.154-1.365-3.191-2.1a.451.451,0,0,1,.522-.736c1.019.722,2.076,1.416,3.137,2.062a.451.451,0,0,1-.236.837Z" transform="translate(-207.202 -118.621)"/>
            </g>
            <g id="Group_1649" data-name="Group 1649" transform="translate(308.001 188.286)">
              <path id="Path_1138" data-name="Path 1138" d="M211.994,120.293a.44.44,0,0,1-.242-.07l-3.326-2.1a.451.451,0,1,1,.483-.761l3.326,2.1a.451.451,0,0,1-.242.831Z" transform="translate(-208.217 -117.288)"/>
            </g>
            <g id="Group_1650" data-name="Group 1650" transform="translate(311.014 184.827)">
              <path id="Path_1139" data-name="Path 1139" d="M212.709,118.506a.474.474,0,0,1-.211-.051l-2.966-1.548a.452.452,0,0,1,.418-.8l2.966,1.548a.448.448,0,0,1,.191.607A.443.443,0,0,1,212.709,118.506Z" transform="translate(-209.29 -116.057)"/>
            </g>
            <g id="Group_1651" data-name="Group 1651" transform="translate(312.425 173.511)">
              <path id="Path_1140" data-name="Path 1140" d="M216.552,117.25a.427.427,0,0,1-.225-.059,48.593,48.593,0,0,1-6.368-4.359.451.451,0,1,1,.567-.7,47.718,47.718,0,0,0,6.25,4.278.454.454,0,0,1,.166.618A.449.449,0,0,1,216.552,117.25Z" transform="translate(-209.792 -112.028)"/>
            </g>
            <g id="Group_1652" data-name="Group 1652" transform="translate(317.269 172.162)">
              <path id="Path_1141" data-name="Path 1141" d="M216.579,114.97a.473.473,0,0,1-.194-.042,45.751,45.751,0,0,1-4.654-2.545.452.452,0,0,1,.477-.767,44.851,44.851,0,0,0,4.564,2.5.45.45,0,0,1-.194.857Z" transform="translate(-211.517 -111.548)"/>
            </g>
            <g id="Group_1653" data-name="Group 1653" transform="translate(473.636 236.539)">
              <path id="Path_1142" data-name="Path 1142" d="M267.638,145.544a.515.515,0,0,1-.093-.008A.454.454,0,0,1,267.2,145l2.154-10.173a.455.455,0,0,1,.536-.348.45.45,0,0,1,.348.534l-2.157,10.173A.45.45,0,0,1,267.638,145.544Z" transform="translate(-267.188 -134.468)"/>
            </g>
            <g id="Group_1654" data-name="Group 1654" transform="translate(479.335 233.654)">
              <path id="Path_1143" data-name="Path 1143" d="M269.67,160.008l-.056,0a.452.452,0,0,1-.393-.506,240.466,240.466,0,0,1,4.679-25.712.45.45,0,0,1,.876.208,239.611,239.611,0,0,0-4.66,25.616A.449.449,0,0,1,269.67,160.008Z" transform="translate(-269.217 -133.44)"/>
            </g>
            <g id="Group_1655" data-name="Group 1655" transform="translate(485.172 230.845)">
              <path id="Path_1144" data-name="Path 1144" d="M271.747,172.891l-.051,0a.454.454,0,0,1-.4-.5c1.5-13.184,3.365-26.5,5.533-39.57a.442.442,0,0,1,.517-.371.451.451,0,0,1,.374.517c-2.166,13.058-4.025,26.358-5.525,39.525A.455.455,0,0,1,271.747,172.891Z" transform="translate(-271.295 -132.44)"/>
            </g>
            <g id="Group_1656" data-name="Group 1656" transform="translate(491.522 234.771)">
              <path id="Path_1145" data-name="Path 1145" d="M274.009,182.407h-.042a.454.454,0,0,1-.41-.489c1.357-15.841,3.017-31.885,4.932-47.684a.451.451,0,1,1,.9.109c-1.916,15.788-3.573,31.821-4.929,47.651A.449.449,0,0,1,274.009,182.407Z" transform="translate(-273.556 -133.838)"/>
            </g>
            <g id="Group_1657" data-name="Group 1657" transform="translate(497.678 250.138)">
              <path id="Path_1146" data-name="Path 1146" d="M276.2,180.963l-.045,0a.451.451,0,0,1-.4-.494l3.991-40.75a.46.46,0,0,1,.494-.4.452.452,0,0,1,.4.492l-3.991,40.753A.451.451,0,0,1,276.2,180.963Z" transform="translate(-275.747 -139.309)"/>
            </g>
            <g id="Group_1658" data-name="Group 1658" transform="translate(503.3 262.165)">
              <path id="Path_1147" data-name="Path 1147" d="M278.2,185.051l-.051,0a.451.451,0,0,1-.4-.5l4.477-40.559a.451.451,0,0,1,.9.1l-4.477,40.559A.45.45,0,0,1,278.2,185.051Z" transform="translate(-277.749 -143.591)"/>
            </g>
            <g id="Group_1659" data-name="Group 1659" transform="translate(509.833 273.258)">
              <path id="Path_1148" data-name="Path 1148" d="M280.528,188.137l-.056-.006a.452.452,0,0,1-.393-.5c1.626-13.137,2.952-26.484,3.938-39.668a.459.459,0,0,1,.486-.419.452.452,0,0,1,.416.483c-.989,13.2-2.314,26.563-3.943,39.716A.451.451,0,0,1,280.528,188.137Z" transform="translate(-280.075 -147.541)"/>
            </g>
            <g id="Group_1660" data-name="Group 1660" transform="translate(516.905 284.964)">
              <path id="Path_1149" data-name="Path 1149" d="M283.046,191.019l-.034,0a.45.45,0,0,1-.419-.48l2.837-38.41a.452.452,0,0,1,.9.067L283.5,190.6A.451.451,0,0,1,283.046,191.019Z" transform="translate(-282.593 -151.708)"/>
            </g>
            <g id="Group_1661" data-name="Group 1661" transform="translate(524.138 295.166)">
              <path id="Path_1150" data-name="Path 1150" d="M285.62,194.432h-.011a.451.451,0,0,1-.441-.461c.272-12.7.879-25.56,1.809-38.21a.452.452,0,1,1,.9.067c-.927,12.634-1.536,25.476-1.806,38.163A.451.451,0,0,1,285.62,194.432Z" transform="translate(-285.168 -155.34)"/>
            </g>
            <g id="Group_1662" data-name="Group 1662" transform="translate(530.814 305.669)">
              <path id="Path_1151" data-name="Path 1151" d="M287.995,196.471h-.022a.452.452,0,0,1-.427-.475l1.932-36.486a.46.46,0,0,1,.475-.43.451.451,0,0,1,.424.475l-1.93,36.489A.455.455,0,0,1,287.995,196.471Z" transform="translate(-287.545 -159.08)"/>
            </g>
            <g id="Group_1663" data-name="Group 1663" transform="translate(536.527 314.943)">
              <path id="Path_1152" data-name="Path 1152" d="M290.029,197.287l-.036,0a.45.45,0,0,1-.413-.486l2.713-34a.454.454,0,0,1,.486-.413.448.448,0,0,1,.413.486l-2.713,34A.45.45,0,0,1,290.029,197.287Z" transform="translate(-289.579 -162.382)"/>
            </g>
            <g id="Group_1664" data-name="Group 1664" transform="translate(543.282 323.71)">
              <path id="Path_1153" data-name="Path 1153" d="M292.437,200.026H292.4a.455.455,0,0,1-.416-.486c.842-11.128,1.449-22.434,1.8-33.6a.452.452,0,0,1,.9.028c-.354,11.179-.961,22.5-1.8,33.641A.45.45,0,0,1,292.437,200.026Z" transform="translate(-291.984 -165.503)"/>
            </g>
            <g id="Group_1665" data-name="Group 1665" transform="translate(549.962 331.306)">
              <path id="Path_1154" data-name="Path 1154" d="M294.812,202.575l-.031,0a.452.452,0,0,1-.418-.48l2.3-33.461a.446.446,0,0,1,.48-.421.453.453,0,0,1,.421.483l-2.306,33.461A.453.453,0,0,1,294.812,202.575Z" transform="translate(-294.362 -168.207)"/>
            </g>
            <g id="Group_1666" data-name="Group 1666" transform="translate(555.971 340.364)">
              <path id="Path_1155" data-name="Path 1155" d="M296.953,202.966l-.065-.006a.448.448,0,0,1-.382-.508c1.438-10.106,2.48-20.4,3.092-30.593a.427.427,0,0,1,.477-.424.455.455,0,0,1,.424.48c-.615,10.216-1.657,20.532-3.1,30.663A.455.455,0,0,1,296.953,202.966Z" transform="translate(-296.501 -171.432)"/>
            </g>
            <g id="Group_1667" data-name="Group 1667" transform="translate(564.169 348.489)">
              <path id="Path_1156" data-name="Path 1156" d="M299.873,207.438l-.023,0a.452.452,0,0,1-.43-.472L301,174.758a.438.438,0,0,1,.472-.43.454.454,0,0,1,.43.475l-1.579,32.205A.451.451,0,0,1,299.873,207.438Z" transform="translate(-299.42 -174.325)"/>
            </g>
            <g id="Group_1668" data-name="Group 1668" transform="translate(572.517 355.84)">
              <path id="Path_1157" data-name="Path 1157" d="M302.945,209.527a.452.452,0,0,1-.452-.452l-.1-31.68a.453.453,0,0,1,.449-.452h0a.453.453,0,0,1,.452.449l.1,31.68a.456.456,0,0,1-.452.455Z" transform="translate(-302.392 -176.942)"/>
            </g>
            <g id="Group_1669" data-name="Group 1669" transform="translate(579.488 363.471)">
              <path id="Path_1158" data-name="Path 1158" d="M305.978,209.39a.453.453,0,0,1-.452-.441l-.652-28.826a.456.456,0,0,1,.441-.464.464.464,0,0,1,.463.441l.652,28.826a.454.454,0,0,1-.441.463Z" transform="translate(-304.874 -179.659)"/>
            </g>
            <g id="Group_1670" data-name="Group 1670" transform="translate(586.668 370.857)">
              <path id="Path_1159" data-name="Path 1159" d="M308.379,198.713a.45.45,0,0,1-.447-.4,89.054,89.054,0,0,1-.289-15.6.446.446,0,0,1,.483-.419.451.451,0,0,1,.418.483,88.353,88.353,0,0,0,.284,15.443.451.451,0,0,1-.4.5Z" transform="translate(-307.43 -182.289)"/>
            </g>
            <g id="Group_1671" data-name="Group 1671" transform="translate(131.309 509.307)">
              <path id="Path_1160" data-name="Path 1160" d="M145.762,241.477a.425.425,0,0,1-.129-.02.446.446,0,0,1-.3-.559l2.632-8.994a.451.451,0,0,1,.865.253l-2.632,8.994A.455.455,0,0,1,145.762,241.477Z" transform="translate(-145.31 -231.58)"/>
            </g>
            <g id="Group_1672" data-name="Group 1672" transform="translate(135.163 505.356)">
              <path id="Path_1161" data-name="Path 1161" d="M147.134,254.774a.432.432,0,0,1-.084-.008.45.45,0,0,1-.36-.528c1.52-7.96,3.4-15.945,5.581-23.734a.451.451,0,1,1,.868.244c-2.174,7.764-4.047,15.724-5.561,23.658A.456.456,0,0,1,147.134,254.774Z" transform="translate(-146.682 -230.174)"/>
            </g>
            <g id="Group_1673" data-name="Group 1673" transform="translate(139.9 515.978)">
              <path id="Path_1162" data-name="Path 1162" d="M148.822,261.157l-.062,0a.448.448,0,0,1-.388-.506c1.157-8.8,2.7-17.664,4.6-26.338a.451.451,0,0,1,.882.191c-1.89,8.651-3.432,17.485-4.584,26.265A.453.453,0,0,1,148.822,261.157Z" transform="translate(-148.368 -233.956)"/>
            </g>
            <g id="Group_1674" data-name="Group 1674" transform="translate(145.325 527.553)">
              <path id="Path_1163" data-name="Path 1163" d="M150.752,264.978l-.048,0a.455.455,0,0,1-.4-.5c.924-8.668,2.064-17.423,3.393-26.02a.459.459,0,0,1,.517-.376.454.454,0,0,1,.376.514c-1.326,8.584-2.466,17.325-3.387,25.978A.455.455,0,0,1,150.752,264.978Z" transform="translate(-150.3 -238.077)"/>
            </g>
            <g id="Group_1675" data-name="Group 1675" transform="translate(150.538 537.429)">
              <path id="Path_1164" data-name="Path 1164" d="M152.608,270.125l-.045,0a.451.451,0,0,1-.4-.494L154.866,242a.463.463,0,0,1,.494-.4.453.453,0,0,1,.4.494l-2.708,27.63A.451.451,0,0,1,152.608,270.125Z" transform="translate(-152.156 -241.593)"/>
            </g>
            <g id="Group_1676" data-name="Group 1676" transform="translate(156.538 548.954)">
              <path id="Path_1165" data-name="Path 1165" d="M154.744,272.905l-.048,0a.451.451,0,0,1-.4-.494l2.775-26.31a.439.439,0,0,1,.494-.4.447.447,0,0,1,.4.494L155.193,272.5A.453.453,0,0,1,154.744,272.905Z" transform="translate(-154.292 -245.696)"/>
            </g>
            <g id="Group_1677" data-name="Group 1677" transform="translate(163.816 560.079)">
              <path id="Path_1166" data-name="Path 1166" d="M157.337,275.546H157.3a.453.453,0,0,1-.416-.486l1.9-24.987a.476.476,0,0,1,.483-.416.455.455,0,0,1,.419.486l-1.9,24.987A.452.452,0,0,1,157.337,275.546Z" transform="translate(-156.884 -249.657)"/>
            </g>
            <g id="Group_1678" data-name="Group 1678" transform="translate(171.429 569.936)">
              <path id="Path_1167" data-name="Path 1167" d="M160.043,278.72h0a.45.45,0,0,1-.447-.455c.081-8.185.371-16.487.865-24.672a.428.428,0,0,1,.478-.424.45.45,0,0,1,.424.477c-.494,8.171-.784,16.457-.865,24.627A.452.452,0,0,1,160.043,278.72Z" transform="translate(-159.594 -253.166)"/>
            </g>
            <g id="Group_1679" data-name="Group 1679" transform="translate(179.366 578.677)">
              <path id="Path_1168" data-name="Path 1168" d="M163.345,280.849a.451.451,0,0,1-.452-.43c-.357-7.856-.514-15.827-.463-23.692a.453.453,0,0,1,.452-.449h0a.45.45,0,0,1,.447.455c-.048,7.85.107,15.8.463,23.647a.449.449,0,0,1-.43.469Z" transform="translate(-162.42 -256.278)"/>
            </g>
            <g id="Group_1680" data-name="Group 1680" transform="translate(186.873 587.918)">
              <path id="Path_1169" data-name="Path 1169" d="M166.709,283.1a.448.448,0,0,1-.447-.4,205.289,205.289,0,0,1-1.168-22.684.451.451,0,0,1,.452-.449.488.488,0,0,1,.449.452,205.526,205.526,0,0,0,1.163,22.583.448.448,0,0,1-.4.5Z" transform="translate(-165.092 -259.568)"/>
            </g>
            <g id="Group_1681" data-name="Group 1681" transform="translate(194.322 596.466)">
              <path id="Path_1170" data-name="Path 1170" d="M170.42,283.811a.448.448,0,0,1-.447-.385c-.975-6.71-1.725-13.55-2.227-20.33a.451.451,0,0,1,.9-.067c.5,6.761,1.253,13.578,2.222,20.268a.452.452,0,0,1-.382.511Z" transform="translate(-167.745 -262.611)"/>
            </g>
            <g id="Group_1682" data-name="Group 1682" transform="translate(201.932 602.153)">
              <path id="Path_1171" data-name="Path 1171" d="M174.567,286.631a.447.447,0,0,1-.438-.354c-1.536-6.96-2.772-14.069-3.671-21.133a.451.451,0,0,1,.9-.112c.9,7.036,2.126,14.117,3.654,21.052a.45.45,0,0,1-.343.539A.581.581,0,0,1,174.567,286.631Z" transform="translate(-170.454 -264.636)"/>
            </g>
            <g id="Group_1683" data-name="Group 1683" transform="translate(209.928 608.475)">
              <path id="Path_1172" data-name="Path 1172" d="M177.791,287.054a.45.45,0,0,1-.438-.345c-1.514-6.362-2.876-12.853-4.045-19.291a.452.452,0,0,1,.365-.525.462.462,0,0,1,.525.365c1.166,6.421,2.522,12.9,4.031,19.24a.45.45,0,0,1-.334.545A.428.428,0,0,1,177.791,287.054Z" transform="translate(-173.3 -266.887)"/>
            </g>
            <g id="Group_1684" data-name="Group 1684" transform="translate(218.014 613.73)">
              <path id="Path_1173" data-name="Path 1173" d="M179.9,283.867a.45.45,0,0,1-.441-.348l-3.269-14.207a.456.456,0,0,1,.34-.542.45.45,0,0,1,.542.34l3.267,14.207a.449.449,0,0,1-.337.539A.41.41,0,0,1,179.9,283.867Z" transform="translate(-176.179 -268.758)"/>
            </g>
            <g id="Group_1685" data-name="Group 1685" transform="translate(226.254 618.754)">
              <path id="Path_1174" data-name="Path 1174" d="M181.807,278.387h-.025a.631.631,0,0,1-.553-.5l-2.1-6.755a.452.452,0,0,1,.862-.27l2.022,6.519a.417.417,0,0,1,.174.109.535.535,0,0,1,.09.6A.574.574,0,0,1,181.807,278.387Z" transform="translate(-179.113 -270.547)"/>
            </g>
            <g id="Group_1686" data-name="Group 1686" transform="translate(318.782 121.592)" opacity="0.129">
              <path id="Path_1175" data-name="Path 1175" d="M234.541,102.151c-1.57-1.416-3.884-1.39-5.831-1.946a40.674,40.674,0,0,1-5.73-1.991,25.185,25.185,0,0,1-2.986-1.508c-.112-.076-.219-.163-.331-.239a4.565,4.565,0,0,0-1.7-.837,12.369,12.369,0,0,0-2.309-1.843c-2.517-1.194-4.84,2.286-2.834,4.208,4.146,4,8.218,8.086,12.339,12.123,1.93,1.744,3.4,4.222,5.792,5.348a2.522,2.522,0,0,0,3.008-1.494,9.212,9.212,0,0,0,.3-3.084,13.513,13.513,0,0,1,.6-4.362C235.35,105.084,235.754,103.356,234.541,102.151Z" transform="translate(-212.056 -93.543)"/>
            </g>
            <g id="Group_1687" data-name="Group 1687" transform="translate(258.55 191.748)" opacity="0.129">
              <path id="Path_1176" data-name="Path 1176" d="M247.238,118.521c-3.247,3.868-6.39,7.817-9.918,11.451-1.652,1.7-3.376,3.354-5.123,4.986-.25.275-.5.551-.77.834-1.789,1.98-3.59,3.958-5.438,5.89a2.33,2.33,0,0,0-1.042-.326c-1.174.983-2.357,1.961-3.547,2.913a1.277,1.277,0,0,1-1.64-.034l-.02.014c-7.876,6.112-16.945,10.76-25.964,14.816a1.282,1.282,0,0,1-.4.1c-.289.194-.579.382-.857.587-1.309,1.343-1.435,3.362-1.719,5.126-.36,2.137-.447,5.059,1.949,5.991,1.944.927,3.609-.68,5.208-1.579a87.83,87.83,0,0,0,8.519-5.494c7.837-4.938,12.617-7.612,19.22-13.954a200.561,200.561,0,0,0,14.263-15.33,54.407,54.407,0,0,0,3.267-4.5,60.684,60.684,0,0,0,2.514-6.087c.6-1.77,1.051-3.581,1.534-5.387Z" transform="translate(-190.611 -118.521)"/>
            </g>
            <g id="Group_1688" data-name="Group 1688" transform="translate(269.788 374.169)" opacity="0.129">
              <path id="Path_1177" data-name="Path 1177" d="M270.817,188.044c-1.674-1.59-4.177-1.2-6.295-1.528a113.822,113.822,0,0,0-18.192-.859c-2.629.081-5.258.084-7.887.1-1.16.1-2.438-.23-3.522.267a2.819,2.819,0,0,0-.972.612c-4.05-.194-8.1-.365-12.151-.587-8.463-.6-17.471-1.239-23.858-2.475a2.654,2.654,0,0,0-1.413,5.115c4.233,1,8.595,1.309,12.9,1.9,5.182.722,12.589,1.556,19.827,2.062,7.881.573,15.724,1.564,23.611,2.028a67.148,67.148,0,0,0,15.92-.831A3.441,3.441,0,0,0,270.817,188.044Z" transform="translate(-194.612 -183.468)"/>
            </g>
            <g id="Group_1691" data-name="Group 1691" transform="translate(360.114 414.757)">
              <g id="Group_1689" data-name="Group 1689" transform="translate(22.258 106.467)" opacity="0.129">
                <path id="Path_1178" data-name="Path 1178" d="M234.7,235.823a2.258,2.258,0,0,1,.107.256C234.928,236.374,234.99,236.517,234.7,235.823Z" transform="translate(-234.695 -235.823)"/>
              </g>
              <g id="Group_1690" data-name="Group 1690" opacity="0.129">
                <path id="Path_1179" data-name="Path 1179" d="M254.638,199.1a2.483,2.483,0,0,0-4.5.59c-2.8,9.85-3.483,20.15-5.458,30.175-1.017,5.151-2.362,10.235-3.295,15.4a152.688,152.688,0,0,1-4.8,21.622,51.989,51.989,0,0,1-2.784,7.637c-.09.168-.2.32-.306.477l-.081.022c-.744.045-1.489,0-2.233.017-3.59-.18-5.278,3.18-3.977,6.295,1.674,5.469,8.306,13.434,9.9,15.555,3.626,4.508,7.6,11.946,7.713,13.249.4,1.331.713,2.688,1.017,4.047a2.929,2.929,0,0,0,5.848-.329,38.383,38.383,0,0,0-2.371-8.7,2.592,2.592,0,0,0-.183-.525l-.143-.337c-.4-.978-1.809-4.264-1.188-2.809-1.317-3.019-3.048-7.289-4.8-12.008-1.152-3.008-2.253-6.036-3.474-9.013-.413-.784-.649-1.73-1.076-2.525,3.255-6.3,4.786-13.4,6.429-20.257,1.542-8.57,3.087-17.128,5.028-25.622,1.16-6.7,2.581-18.864,2.82-20.125.43-3.073.961-6.134,1.671-9.154C254.663,201.578,255.373,200.28,254.638,199.1Z" transform="translate(-226.771 -197.918)"/>
              </g>
            </g>
            <g id="Group_1692" data-name="Group 1692" transform="translate(222.369 351.928)" opacity="0.129">
              <path id="Path_1180" data-name="Path 1180" d="M575.029,176.279a2.269,2.269,0,0,0-2.548-.539,2.327,2.327,0,0,0-2.21.683c-3.71,3.938-7.255,7.98-10.69,12.072-2.1-.455-3.275,1.421-4.435,3.182-1.272,1.84-2.548,3.677-3.93,5.438q-.91,1.18-1.851,2.331c-9.909,8.831-20.428,16.99-30.487,25.647C500.487,240,482.022,254.919,464.138,268.8c-.725.5-1.449,1-2.171,1.5-12.052,8.179-24.377,15.951-36.39,24.189-24.9,17.209-49.381,35.037-74.952,51.26-11.437,7.384-23.052,14.485-34.551,21.771-7.612,4.741-15.521,8.974-23.248,13.521-11.685,7.092-23.167,14.516-35.017,21.341-10.373,6.527-21.13,12.4-31.958,18.128q-14.5,8.308-28.641,17.207c-2.786,1.7-5.558,3.438-8.367,5.1-1.171.742-2.64,1.258-3.233,2.542-1.966.927-3.84,1.747-5.587,2.416a3.116,3.116,0,0,0,1.657,6.008q1.222-.459,2.43-.955a3.209,3.209,0,0,0,2.452,5.862c23.181-5.314,46.238-11.277,69.646-15.563,6.056-1.02,8.511-1.337,13.345-1.862,3.533-.18,5.783-.43,7.308-2.989.3-4.008.716-8.008,1.182-11.974q1.18-10.061,2.885-20.049c.059-.478.115-.955.174-1.433a3.228,3.228,0,0,0-1.77-.961c2.643-1.677,5.264-3.39,7.842-5.176,1.8-1.452,4.151-2.4,4.983-3.924q6.952-3.573,13.94-7.067c6.738-3.3,13.021-7.412,19.437-11.288,12.249-7.14,23.838-15.288,35.5-23.33,10.061-6.946,20.352-13.547,30.588-20.234,9.407-6.289,19.549-11.373,28.972-17.631,9.2-6.185,18.268-12.552,27.512-18.667,7.724-5.267,15.7-10.165,23.31-15.6,2.615-1.873,5.112-3.89,7.564-5.963,4.017-2.733,7.938-5.612,11.87-8.463,5.292-3.856,10.6-7.7,15.558-11.991,12.252-10.572,24.372-21.386,35.054-33.579.84-1.1,2.019-2,2.635-3.236a2.352,2.352,0,0,0,.042-1.941c2.57-3.261,5.087-6.486,7.665-9.766q1.487-1.736,2.916-3.519c3.59-3.359,7.07-6.837,10.348-10.51,3.281-3.593,6.342-7.373,9.252-11.269.205-.272.705-.941.823-1.1a2.43,2.43,0,0,0-.115-3.323Zm-381.356,274.2c-2.93.7-5.865,1.385-8.806,2.034,2.845-1.191,5.634-2.511,8.4-3.879a2.992,2.992,0,0,0,.834,1.216A2.824,2.824,0,0,0,193.673,450.477Zm76.817-40.921c-1.812,1.241-10.89,7.665-15.395,10.252-6.2,3.452-12.474,6.57-18.8,9.595,5.005-2.806,9.966-5.693,14.836-8.738,6.938-4.132,13.962-8.123,20.883-12.286C271.527,408.773,271.027,409.166,270.49,409.556Z" transform="translate(-177.73 -175.549)"/>
            </g>
            <g id="Group_1695" data-name="Group 1695" transform="translate(240.098 497.545)">
              <g id="Group_1693" data-name="Group 1693" transform="translate(30.979 37.428)" opacity="0.129">
                <path id="Path_1181" data-name="Path 1181" d="M195.259,240.895c-.065.028-.124.059-.188.087C196,240.6,195.751,240.69,195.259,240.895Z" transform="translate(-195.071 -240.718)"/>
              </g>
              <g id="Group_1694" data-name="Group 1694" opacity="0.129">
                <path id="Path_1182" data-name="Path 1182" d="M233.351,227.441a2.573,2.573,0,0,0-1.865,2.449,15.106,15.106,0,0,1,.025,2.168c-.011.16-.031.317-.051.475-.5,3.674-2.407,10.083-2.986,10.951-7.938,16.19-22.094,19.951-38.373,15.608-1.492-.41-3.07-1.421-4.562-.449a3.113,3.113,0,0,0,0,5.323c5.713,2.449,12.081,3.194,18.251,3.337a31.352,31.352,0,0,0,10.9-2.081c.177-.079.36-.157.517-.225,7.137-3.084,12.8-8.966,16.763-15.561,2.491-3.983,3.522-8.648,4.236-13.235C236.516,233.362,238.114,226.764,233.351,227.441Z" transform="translate(-184.042 -227.393)"/>
              </g>
            </g>
            <g id="Group_1696" data-name="Group 1696" transform="translate(397.292 394.642)" opacity="0.129">
              <path id="Path_1183" data-name="Path 1183" d="M295.809,193.62a2.91,2.91,0,1,0-5.809.306,37.508,37.508,0,0,1-1.809,8.822c-.028.081-.062.16-.093.242-.812,1.8-1.719,3.547-2.623,5.3-3.342,6.3-5.21,8.317-11.083,13.086a30.986,30.986,0,0,1-3.724,2.562,77.19,77.19,0,0,1-7.735,3.977c2.092-.823-2.435.888-3.373,1.051a43.742,43.742,0,0,1-7.033,1.475,37.25,37.25,0,0,1-7.356-.292c-1.244-.166-2.564-.638-3.71.09a3.027,3.027,0,0,0,.716,5.486,56.613,56.613,0,0,0,12.721,1.09c.1-.011.194-.025.292-.034a2.464,2.464,0,0,0,2.3,1.4,35.446,35.446,0,0,0,13.757-2.154,49.574,49.574,0,0,0,7.954-4.693,27.851,27.851,0,0,0,8.834-8.53c.775-1.359,2.4-2.643,1.96-4.354a2.152,2.152,0,0,0-1.076-1.388,46.125,46.125,0,0,0,5.469-11.729,27.2,27.2,0,0,0,.851-4.533c-.135,1.028-.1.744.022-.1A37.182,37.182,0,0,0,295.809,193.62Z" transform="translate(-240.007 -190.757)"/>
            </g>
            <g id="Group_1697" data-name="Group 1697" transform="translate(141.476 613.057)" opacity="0.129">
              <path id="Path_1184" data-name="Path 1184" d="M193.36,268.632a2.962,2.962,0,0,0-2.062.183,8.758,8.758,0,0,0-3.09,1.267c-2.126,1.138-4.241,2.306-6.264,3.621a137.477,137.477,0,0,0-20.97,17.611c-5.12,5.244-7.887,7.634-11.432,12.968a4.106,4.106,0,0,0,.048,4.4,3.583,3.583,0,0,0,1.14,1.432c.323.227,1.017.713,1.278.888l.039.034a9.4,9.4,0,0,1,.927.949c1.3,1.781,1.618,4.275,3.581,5.505A4.3,4.3,0,0,0,161.978,316a6.1,6.1,0,0,0,.511-1.137c.1-.211.258-.57.4-.86a100.114,100.114,0,0,1,4.882-9.227c6.471-10.763,11.39-17.8,20.85-25.973,2.416-2.213,5.62-4.531,6.323-5.379A3.052,3.052,0,0,0,193.36,268.632Z" transform="translate(-148.93 -268.518)"/>
            </g>
          </g>
        </g>
        <path id="Path_1309" data-name="Path 1309" d="M32.874,3.311C6.526-21.127-52.727,91.4,106.587,285.366c91.9,111.888,164.11,121.923,173.89,83,17.549-69.837-45.826-87.491-22.246-60.137C292.522,348,390.058,356.4,462.737,319.285c71.716-36.623,27.589-143.89,23.137-147.208" transform="translate(186.819 454.742) rotate(22)" fill="none" stroke="#2a1e17" stroke-linecap="round" stroke-linejoin="round" stroke-width="1"/>
        <line id="Line_53" data-name="Line 53" y1="74.848" x2="132.795" transform="translate(456.769 865.215) rotate(22)" fill="none" stroke="#2a1e17" stroke-linecap="round" stroke-linejoin="round" stroke-width="1"/>
        <path id="Path_1310" data-name="Path 1310" d="M124.893,20.823C100.462,4.977,77.172-1.457,57.514.274c-77.422,6.818-99.57,139.562,81.242,323.044,17.865,18.128,30.319,20.228,30.319,20.228" transform="translate(128.694 304.312) rotate(22)" fill="none" stroke="#2a1e17" stroke-linecap="round" stroke-linejoin="round" stroke-width="1"/>
      </g>
      <g id="Group_2298" data-name="Group 2298" transform="translate(298.104 262.073)">
        <path id="Path_1313" data-name="Path 1313" d="M466.893,135.46l-45.561-20.567,1.887-5.216,45.823,21.1Z" transform="translate(-421.332 -109.677)" fill="none" stroke="#2a1e17" stroke-linecap="round" stroke-linejoin="round" stroke-width="0.671"/>
        <line id="Line_55" data-name="Line 55" x1="4.04" y1="1.497" transform="translate(45.296 32.403)" fill="none" stroke="#2a1e17" stroke-linecap="round" stroke-linejoin="round" stroke-width="0.671"/>
        <line id="Line_56" data-name="Line 56" x1="7.075" y1="2.809" transform="translate(56.862 18.325)" fill="none" stroke="#2a1e17" stroke-linecap="round" stroke-linejoin="round" stroke-width="0.671"/>
        <line id="Line_57" data-name="Line 57" x1="9.926" y1="3.926" transform="translate(55.815 34.279)" fill="none" stroke="#2a1e17" stroke-linecap="round" stroke-linejoin="round" stroke-width="0.671"/>
      </g>
      <g id="Group_2299" data-name="Group 2299" transform="translate(458.482 770.265)">
        <path id="Path_1314" data-name="Path 1314" d="M423.48,109.677l45.561,20.566-1.887,5.216-45.822-21.1Z" transform="translate(-403.301 -97.255)" fill="none" stroke="#2a1e17" stroke-linecap="round" stroke-linejoin="round" stroke-width="0.671"/>
        <line id="Line_58" data-name="Line 58" x2="4.04" y2="1.497" transform="translate(16.403 4.304)" fill="none" stroke="#2a1e17" stroke-linecap="round" stroke-linejoin="round" stroke-width="0.671"/>
        <line id="Line_59" data-name="Line 59" x2="7.075" y2="2.809" transform="translate(1.803 17.07)" fill="none" stroke="#2a1e17" stroke-linecap="round" stroke-linejoin="round" stroke-width="0.671"/>
        <line id="Line_60" data-name="Line 60" x2="9.926" y2="3.926" fill="none" stroke="#2a1e17" stroke-linecap="round" stroke-linejoin="round" stroke-width="0.671"/>
      </g>
      <circle id="Ellipse_55" data-name="Ellipse 55" cx="13.409" cy="13.409" r="13.409" transform="translate(272.513 354.109)" fill="#ff6d66"/>
      <circle id="Ellipse_56" data-name="Ellipse 56" cx="5.895" cy="5.895" r="5.895" transform="translate(711.82 400.454)" fill="#ff6d66"/>
      <circle id="Ellipse_57" data-name="Ellipse 57" cx="8.19" cy="8.19" r="8.19" transform="translate(606.672 695.642)" fill="#ff6d66"/>
      <path id="Path_1316" data-name="Path 1316" d="M783.567,341.086l6.339,10.979,6.339,10.979H770.89l6.338-10.979Z" transform="translate(-15.841 -246.533)" fill="#a0c6f4"/>
    </g>
    <path id="Path_2053" data-name="Path 2053" d="M321.525,225.532c.054-.178,2.074.238,5.291,1.051.809.226,1.605.36,1.944-.119a4.25,4.25,0,0,0,.387-2.506q.012-3.248.029-6.816c.121-9.676.535-17.506.924-17.5s.608,7.855.487,17.531q-.075,3.568-.14,6.814a4.832,4.832,0,0,1-.8,3.206,2.092,2.092,0,0,1-1.723.633,5.7,5.7,0,0,1-1.392-.334C323.387,226.447,321.47,225.71,321.525,225.532Z" transform="translate(1149.109 5204.855)"/>
  </g>
</svg>
