<svg xmlns="http://www.w3.org/2000/svg" width="797.702" height="876.156" viewBox="0 0 797.702 876.156">
  <g id="inset_blueprints" transform="translate(-27.862 -30.979)">
    <rect id="Rectangle_90" data-name="Rectangle 90" width="797" height="856" transform="translate(28.563 50.219)" fill="#fff"/>
    <g id="Group_3576" data-name="Group 3576" transform="translate(28.573 30.979)">
      <g id="Group_3512" data-name="Group 3512" transform="matrix(0.866, 0.5, -0.5, 0.866, 370.154, 69.259)">
        <rect id="Rectangle_199" data-name="Rectangle 199" width="453.772" height="453.772" transform="translate(41.454 0) rotate(5.242)" fill="#acd4f7"/>
        <g id="Group_3511" data-name="Group 3511" transform="translate(14.034 16.513)">
          <path id="Path_2054" data-name="Path 2054" d="M39.331.063,38.632,0,.065,420.4,0,421.1l420.4,38.566.7.063L459.664,39.331l.064-.7Zm278.97,27L312,95.744l-68.55-6.288,1.659-18.072,52.067,4.776.151-1.659-52.067-4.776.67-7.284,5.323.487.438-4.778-5.323-.487,3.383-36.886ZM143.332,390.632l2.287-24.945c.18.018.359.036.537.055l-2.378,25.929A1.206,1.206,0,0,1,143.332,390.632ZM56.589,322.2a121.591,121.591,0,0,1,9-36.163l17.2,1.577L76.5,356.164l-18.586-1.7A122.78,122.78,0,0,1,56.589,322.2ZM241.946,90.473l-6.3,68.677L217.3,157.467c-6.008-21.368-14.878-40.235-26.2-55.214l8.937-15.625Zm-41.279-4.942,9.9-17.315,33.139,3.04-1.659,18.072ZM301.677,208.27l-31.575-2.9-.416-.036-21.55,25.5-17.51-1.605,6.29-68.55,68.55,6.29ZM93.937,283.55l-.01-.184q-.214-3.463-.337-6.954c-.006-.137-.008-.273-.014-.412q-.116-3.389-.149-6.8c0-.208,0-.418,0-.626q-.024-3.338.028-6.692c0-.224.012-.45.016-.676.044-2.247.107-4.5.2-6.757,0-.113.012-.228.018-.341q.155-3.54.4-7.088l.022-.313c.143-2.051.291-4.1.48-6.157.69-7.5,1.672-14.88,2.905-22.121l44.374,4.07a23.109,23.109,0,0,0,16.426,10.935l-1.53,16.685a4.314,4.314,0,0,0-3.975,3.924L149.277,292.3l-55.049-5.051C94.135,286.017,94.014,284.792,93.937,283.55ZM175.76,89.815c.473.434.943.882,1.411,1.33.375.359.747.723,1.118,1.088a109.785,109.785,0,0,1,10.021,11.551L175.185,126.73c-.2-.1-.4-.2-.61-.293-.1-.044-.206-.089-.309-.131-.38-.155-.769-.293-1.163-.422-.139-.046-.278-.093-.418-.135-.384-.113-.775-.208-1.169-.293-.147-.032-.289-.071-.436-.1-.474-.091-.955-.157-1.441-.208l3.458-37.7C174,88.216,174.88,89.008,175.76,89.815Zm48.669,169.066c.244-2.114.476-4.233.672-6.361.688-7.5,1.066-14.932,1.175-22.279l2.826.26-2.352,25.634Zm2.063.069-.258,2.814c-.339-.436-.676-.874-1.021-1.3Zm4.009-28.323,16.529,1.518-18.7,22.119Zm-1.27-1.528-2.929-.269a256.8,256.8,0,0,0-8.586-69.912l17.8,1.633Zm-5.981-.549-43.3-3.971a23.744,23.744,0,0,0,4.871-12.375A23.471,23.471,0,0,0,164,186.581l2.475-26.988a16.852,16.852,0,0,0,12.548-4.227l35.425,3.25A252.77,252.77,0,0,1,223.249,228.55Zm-81.716-20.316A20.392,20.392,0,0,1,162.314,189.6l-3.034,33.081-14.515-1.332A20.612,20.612,0,0,1,141.533,208.234Zm17.619,15.847-.573,6.254a19.99,19.99,0,0,1-12.732-7.475Zm1.4.129,14.315,1.314a19.982,19.982,0,0,1-14.894,4.994Zm.129-1.4,3.04-33.135a20.38,20.38,0,0,1,18.049,22.248,20.588,20.588,0,0,1-5.562,12.31Zm-6.736-81.734c.042-.472.111-.933.2-1.387l.02-.1c.047-.238.115-.464.172-.7.052-.206.091-.416.151-.618.024-.077.053-.149.079-.224.117-.377.244-.749.39-1.11l.02-.042a14.186,14.186,0,0,1,8.608-8.039l.1-.036c.373-.119.753-.22,1.137-.307.069-.016.137-.036.206-.052.353-.075.711-.129,1.072-.176.1-.014.2-.034.3-.044.347-.038.7-.055,1.052-.065.111,0,.218-.016.329-.018.059,0,.121.008.178.008L165.7,152.733l-8.095-.743A14.241,14.241,0,0,1,153.944,141.077ZM176.2,153.7l-9.105-.834,1.183-12.9.949.541,5.877-10.279a14.182,14.182,0,0,1,6.428,9.115l.01.046c.081.38.137.769.184,1.159.01.079.028.157.036.236.022.21.024.424.038.636.014.238.038.474.042.713v.107c0,.462-.014.927-.057,1.4A14.24,14.24,0,0,1,176.2,153.7Zm-1.926,1.237a13.726,13.726,0,0,1-7.514,1.565l.206-2.237Zm-5.869-16.35.947-10.338c.4.044.8.1,1.185.17.109.022.212.053.321.077.345.075.688.155,1.022.256.1.028.186.065.281.1.347.111.689.23,1.023.369.065.028.129.059.194.087.089.04.174.085.262.127Zm-2.838,15.552-.2,2.184a13.731,13.731,0,0,1-6.1-2.762Zm14.765-.059a17.354,17.354,0,0,0,4.5-10.164c.014-.141.008-.279.018-.42a76.914,76.914,0,0,0,22.42-6.038,194.511,194.511,0,0,1,6.781,19.717Zm4.471-13.689c-.059-.555-.15-1.1-.262-1.639-.008-.044-.022-.085-.03-.129-.109-.511-.242-1.013-.394-1.506l-.026-.077a17.1,17.1,0,0,0-7.445-9.508l12.759-22.309a147.864,147.864,0,0,1,16.6,29.425A73.863,73.863,0,0,1,184.8,140.386Zm-16.568-15.312c-.147,0-.293-.02-.438-.018s-.3.014-.448.018c-.4.014-.8.036-1.2.075-.149.016-.293.038-.44.058-.408.053-.814.119-1.215.2-.113.024-.224.048-.335.073-.456.105-.9.226-1.347.367l-.147.046a17.108,17.108,0,0,0-9.791,8.275l-.04.073q-.359.684-.66,1.409c-.018.04-.038.079-.053.121-.206.509-.4,1.029-.555,1.564a73.862,73.862,0,0,1-19.81-9.5c10.332-15.506,22.291-28.014,34.974-36.654.434-.3.87-.589,1.308-.876.539-.355,1.08-.705,1.621-1.046.654-.408,1.314-.795,1.972-1.189Zm-17.282,15.308c-.016.139-.046.273-.059.414a17.378,17.378,0,0,0,2.576,10.816l-33.719-3.093a194.119,194.119,0,0,1,10.257-18.152A76.9,76.9,0,0,0,150.954,140.382Zm3.567,12.738a16.885,16.885,0,0,0,10.564,6.294L162.6,186.506a23.477,23.477,0,0,0-24.114,21.447,23.723,23.723,0,0,0,2.538,13.055l-43.3-3.973A252.837,252.837,0,0,1,119.1,149.87Zm1.316,101.2a1.213,1.213,0,0,1,.628-.943l-3.6,39.258-.537-.05Zm-3.1,39.714-6.29,68.55-.537-.05,6.29-68.55Zm-4.891,68.677,6.288-68.548.48.043-6.29,68.548Zm6.416-69.947,3.6-39.216a1.22,1.22,0,0,1,.39.995l-3.511,38.265ZM161.3,254.82a4.32,4.32,0,0,0-3.137-4.57l1.528-16.638a23.109,23.109,0,0,0,19.158-7.724l44.372,4.07q-.155,11.019-1.167,22.281-.333,3.623-.761,7.219l-.03.244c-.216,1.831-.466,3.652-.717,5.473-.087.634-.16,1.272-.252,1.9-.242,1.671-.515,3.329-.787,4.99-.125.777-.242,1.557-.375,2.332-.3,1.744-.626,3.478-.959,5.21-.125.654-.24,1.31-.369,1.96-.371,1.867-.769,3.721-1.177,5.572-.107.486-.208.975-.317,1.46q-.669,2.966-1.4,5.9c-.085.337-.164.676-.25,1.013-.232.914-.485,1.813-.725,2.721l-56.143-5.15ZM221.269,279.7c.172-.912.355-1.821.519-2.739.234-1.3.446-2.616.662-3.927.188-1.149.381-2.3.555-3.452.194-1.268.371-2.54.547-3.815.1-.7.21-1.4.3-2.106.674.874,1.316,1.785,1.958,2.695l-3,32.691-5.778-.531Q219.455,289.281,221.269,279.7Zm5.786-11.545A99.656,99.656,0,0,1,240.848,300.7l-16.638-1.526Zm.438-4.778.579-6.3L249,232.325l50.054,4.591-6.29,68.55L244.2,301.012A100.127,100.127,0,0,0,227.494,263.381Zm22.61-32.368,20.278-23.988,31.147,2.858-2.35,25.632ZM190,100.827a112.392,112.392,0,0,0-8-9.236c-.085-.087-.169-.178-.254-.266q-.933-.951-1.881-1.871c-.478-.466-.957-.921-1.441-1.373-.444-.414-.884-.83-1.334-1.235-.989-.892-1.986-1.764-2.994-2.6l24.118,2.213ZM171.977,84.28q-1.549.874-3.089,1.815c-.509.313-1.017.64-1.524.965-.561.359-1.124.723-1.682,1.1q-1.091.728-2.172,1.486c-.109.077-.216.157-.325.234-18.409,13.067-34.4,33.367-46.685,58.341l-19.354-1.776,6.3-68.675L172,84.056Zm-56.143,65.29A256.752,256.752,0,0,0,94.67,216.755l-3.942-.363,6.29-68.548Zm-21.4,68.574c-1.229,7.245-2.21,14.626-2.9,22.123-.178,1.954-.317,3.9-.456,5.856-1.139.911-2.249,1.873-3.345,2.853l2.86-31.183ZM90.81,250.352c-.018.3-.024.606-.042.91a282.185,282.185,0,0,0,.337,35.707l-6.793-.624,3.008-32.8Q89.029,251.89,90.81,250.352Zm-7.9,35.863-16.719-1.534a99.39,99.39,0,0,1,19.57-29.538Zm-6.545,71.35-.86,9.389A43.853,43.853,0,0,0,65.7,380.245,106.929,106.929,0,0,1,58.184,355.9Zm1.4.129,10.475.959a44.736,44.736,0,0,0-11.2,6.92Zm.129-1.4,6.288-68.548,7.039.646q.413,5.237,1.015,10.4l.008.061q.4,3.332.874,6.621l.012.079a230.3,230.3,0,0,0,8.208,36.234c.206.652.4,1.314.614,1.962.38,1.161.783,2.3,1.181,3.448.337.969.67,1.938,1.019,2.9.371,1.011.755,2.007,1.139,3.006.252.654.488,1.32.745,1.968a43.418,43.418,0,0,0-14.856,2.449Zm29.607,1.934.493.147c1.238.369,2.509.682,3.761,1.026l-10.671-.979A39.978,39.978,0,0,1,107.5,358.227Zm2.073-2.626c-.414-1.01-.806-2.045-1.207-3.071-.339-.874-.69-1.736-1.019-2.622-.485-1.306-.943-2.639-1.4-3.969-.25-.719-.509-1.431-.751-2.156-.509-1.532-.995-3.087-1.472-4.647-.161-.527-.331-1.046-.487-1.575q-.782-2.625-1.5-5.3c-.093-.343-.19-.684-.281-1.028q-.767-2.907-1.463-5.872l-.137-.569q-.728-3.142-1.379-6.339c-.014-.075-.03-.149-.045-.222a252.89,252.89,0,0,1-4.094-29.554l54.81,5.027-6.29,68.55-.559-.052A199.294,199.294,0,0,1,109.575,355.6Zm37.978,10.283c.161.012.319.024.477.038l-2.287,24.931a1.207,1.207,0,0,1-.565.907Zm3.817-2.852,6.29-68.548,55.9,5.128c-.182.674-.353,1.355-.539,2.027-.063.226-.125.452-.186.676q-.889,3.145-1.843,6.242l-.143.464q-.981,3.148-2.029,6.244l-.129.375q-1.055,3.1-2.182,6.135l-.154.416q-1.112,2.984-2.291,5.909c-.079.2-.159.39-.238.585q-1.147,2.821-2.352,5.58c-.125.287-.254.569-.379.854q-1.153,2.6-2.354,5.154c-.2.414-.4.824-.6,1.237q-1.124,2.339-2.287,4.629c-.293.573-.6,1.134-.894,1.7-.708,1.355-1.421,2.7-2.152,4.031-.414.747-.842,1.476-1.262,2.215-.648,1.136-1.29,2.275-1.954,3.387-.543.908-1.106,1.789-1.659,2.681-.517.834-1.028,1.675-1.556,2.493a199.28,199.28,0,0,1-34.06.474Zm36.059,2.628.319-.034a41.134,41.134,0,0,1,5.418,1.241l-9.639-.884C184.827,365.872,186.139,365.8,187.429,365.66Zm2.479-2.82c.392-.622.767-1.268,1.153-1.9.539-.88,1.082-1.756,1.611-2.651s1.048-1.815,1.567-2.729c.585-1.025,1.171-2.043,1.74-3.083.3-.553.593-1.121.89-1.68a221.459,221.459,0,0,0,9.946-21.326c.04-.1.081-.2.121-.3q1.139-2.824,2.212-5.707c.067-.18.135-.357.2-.535q1.056-2.845,2.049-5.737c.067-.2.135-.4.2-.6q.987-2.9,1.916-5.85c.055-.174.109-.349.162-.523.626-2.011,1.236-4.031,1.819-6.072l.042-.151c.386-1.359.751-2.733,1.118-4.1l6.026.553L216.395,369l-13.184-1.209A43.724,43.724,0,0,0,189.908,362.84Zm26.358,7.558-.715,7.814a43.917,43.917,0,0,0-9.653-8.765Zm1.4.129,18.126,1.663a107.143,107.143,0,0,1-11.816,22.571,44.056,44.056,0,0,0-7.166-14.894Zm.129-1.4,6.288-68.548,17.109,1.569a121.447,121.447,0,0,1,2.3,37.2,122.694,122.694,0,0,1-7.17,31.478Zm28.743-29.5a125.363,125.363,0,0,0-2.047-37.177l48.143,4.417-6.29,68.548-46.828-4.3A126.128,126.128,0,0,0,246.537,339.628ZM294.032,307l59.458,5.453q-1.338,5.532-2.891,10.96c-.575,2-1.179,3.977-1.8,5.947l-.158.509q-.916,2.889-1.9,5.731l-.2.583c-.654,1.888-1.328,3.757-2.031,5.62l-.194.517q-1.067,2.818-2.186,5.578l-.127.3a215.163,215.163,0,0,1-9.847,20.851l-.88,1.643c-.488.878-.987,1.74-1.488,2.6l-.537.931c-.414.719-.828,1.437-1.255,2.146q-.657,1.1-1.332,2.17l-.337.547-38.582-3.539Zm62.292,5.713,6.387.587-6.288,68.548-26.974-2.475c.319-.517.642-1.032.955-1.558.434-.721.856-1.452,1.28-2.188l.533-.925c.509-.878,1.017-1.754,1.514-2.651l.894-1.663a218.478,218.478,0,0,0,9.974-21.116l.127-.305q1.142-2.8,2.213-5.65l.2-.531c.7-1.877,1.387-3.773,2.047-5.675l.208-.6q.99-2.874,1.92-5.794l.16-.515c.628-1.993,1.238-3.993,1.863-6.161C354.41,320.333,355.4,316.546,356.325,312.709Zm-.03,70.536-1.369,14.931a45.728,45.728,0,0,0-25.7-17.415Zm1.142.1,15.615,1.433a106.441,106.441,0,0,1-12.015,25.063,44.356,44.356,0,0,0-5.093-10.241Zm.127-1.4,6.29-68.548,10.285.943a115.4,115.4,0,0,1,4.451,44.032,118.383,118.383,0,0,1-5.112,25.034ZM363.981,312l1.611-17.569a96.334,96.334,0,0,1,8.085,18.459Zm-1.142-.105-6.19-.567q1.317-5.612,2.419-11.335l.515-2.709c.2-1.088.377-2.182.559-3.274l.176-1.07c.163-.985.327-1.968.48-2.961.125-.826.244-1.651.361-2.479,1.209,1.69,2.34,3.462,3.434,5.271Zm-1.486-28.823-2.065-2.636-.731,5.382c-.174,1.248-.347,2.495-.537,3.735-.149.979-.311,1.952-.474,2.927l-.177,1.07c-.18,1.082-.357,2.162-.551,3.234l-.513,2.683q-1.115,5.844-2.481,11.6L294.161,305.6l6.288-68.55,68.681,6.3-4.116,44.848C363.843,286.433,362.638,284.709,361.354,283.072Zm-60.776-47.428,2.352-25.632,68.679,6.3-2.35,25.632Zm2.5-27.247.608-6.634,39.474,3.62.438-4.778-39.474-3.622,2.743-29.887,68.679,6.3-3.789,41.3Zm2.517-42.831-68.55-6.288,6.3-68.677,68.55,6.288ZM248.352,20.648l-3.385,36.886-24.917-2.287-.438,4.78,24.917,2.285-.668,7.284-33.674-3.089-.533-.048-10.812,18.9L173.5,83.04l6.3-68.679ZM178.4,14.232l-6.3,68.679-68.552-6.288,6.3-68.679ZM39.9,1.526l68.552,6.29-6.3,68.679L33.6,70.207ZM33.5,71.352l68.552,6.288-6.3,68.677L27.2,140.027Zm-6.428,70.076,68.552,6.288-6.288,68.55-68.552-6.29ZM20.65,211.377,89.2,217.665l-3,32.746a101.38,101.38,0,0,0-23.217,33.977l-48.619-4.461Zm-6.416,69.949,48.191,4.421a124.6,124.6,0,0,0-8.884,36.174,126.093,126.093,0,0,0,1.175,32.245l-46.772-4.29ZM1.528,419.826l6.29-68.55L54.966,355.6A109.052,109.052,0,0,0,64.4,384.68L65.95,387.8l1.246-3.266a40.475,40.475,0,0,1,7.867-12.748L70.08,426.115Zm69.949,6.416,5.146-56.084a41.477,41.477,0,0,1,19.3-10.8l24.764,2.273a207.063,207.063,0,0,0,21.891,3.739l-2.293,24.982a4.315,4.315,0,0,0,3.2,4.58l-3.45,37.6Zm69.951,6.418,3.45-37.605a4.318,4.318,0,0,0,3.914-3.922l2.291-24.968a207.8,207.8,0,0,0,23.236.384l23.9,2.194a40.772,40.772,0,0,1,16.911,14.083l-5.148,56.121Zm69.949,6.417,4.986-54.354a41.02,41.02,0,0,1,5.354,13.986l.632,3.44,2.091-2.788a108.97,108.97,0,0,0,14.567-26.877l47.208,4.332-6.288,68.548Zm69.951,6.417,6.288-68.548,37.887,3.476c-.079.129-.158.26-.24.389l-1.116,1.744,2.033.39a42.875,42.875,0,0,1,28.339,19.64L350.005,451.8Zm138.5,12.706-68.681-6.3,4.363-47.567a41.166,41.166,0,0,1,3.684,9.082l.781,2.889,1.724-2.445a108.241,108.241,0,0,0,14.188-28.817l50.228,4.607Zm6.417-69.949-49.917-4.58a121.091,121.091,0,0,0,5.057-25.04,118.374,118.374,0,0,0-4.241-44.012l55.39,5.081Zm6.418-69.949-55.939-5.132a97.923,97.923,0,0,0-10.7-23.433l4.247-46.287,68.681,6.3Zm6.417-69.951-68.681-6.3,2.352-25.632,2.192.2.147-1.611-2.19-.2,3.789-41.3,68.679,6.3ZM445.5,178.4,307,165.7l6.3-68.677.242.022.1-1.145-.24-.022L319.7,27.2,458.2,39.9Z" transform="translate(0 0)" fill="#fff"/>
          <rect id="Rectangle_200" data-name="Rectangle 200" width="6.939" height="111.775" transform="matrix(0.091, -0.996, 0.996, 0.091, 328.863, 56.772)" fill="#fff"/>
          <rect id="Rectangle_201" data-name="Rectangle 201" width="4.799" height="32.356" transform="translate(327.677 69.702) rotate(-84.759)" fill="#fff"/>
          <rect id="Rectangle_202" data-name="Rectangle 202" width="4.799" height="13.306" transform="translate(364.438 73.075) rotate(-84.758)" fill="#fff"/>
          <rect id="Rectangle_203" data-name="Rectangle 203" width="4.799" height="29.741" transform="matrix(0.091, -0.996, 0.996, 0.091, 380.595, 74.557)" fill="#fff"/>
          <rect id="Rectangle_204" data-name="Rectangle 204" width="4.799" height="12.231" transform="translate(414.384 77.657) rotate(-84.759)" fill="#fff"/>
          <rect id="Rectangle_205" data-name="Rectangle 205" width="4.799" height="40.8" transform="translate(326.6 81.437) rotate(-84.758)" fill="#fff"/>
          <rect id="Rectangle_206" data-name="Rectangle 206" width="4.799" height="16.779" transform="matrix(0.091, -0.996, 0.996, 0.091, 372.954, 85.689)" fill="#fff"/>
          <rect id="Rectangle_207" data-name="Rectangle 207" width="4.799" height="37.502" transform="translate(393.328 87.558) rotate(-84.759)" fill="#fff"/>
          <rect id="Rectangle_208" data-name="Rectangle 208" width="4.799" height="34.565" transform="translate(325.474 93.717) rotate(-84.759)" fill="#fff"/>
          <rect id="Rectangle_209" data-name="Rectangle 209" width="4.799" height="14.215" transform="matrix(0.091, -0.996, 0.996, 0.091, 399.486, 100.507)" fill="#fff"/>
          <rect id="Rectangle_210" data-name="Rectangle 210" width="4.799" height="31.771" transform="translate(364.744 97.319) rotate(-84.758)" fill="#fff"/>
          <rect id="Rectangle_211" data-name="Rectangle 211" width="4.799" height="13.066" transform="matrix(0.091, -0.996, 0.996, 0.091, 418.099, 102.214)" fill="#fff"/>
          <rect id="Rectangle_212" data-name="Rectangle 212" width="4.799" height="14.215" transform="translate(254.355 63.214) rotate(-84.758)" fill="#fff"/>
          <rect id="Rectangle_213" data-name="Rectangle 213" width="4.798" height="13.066" transform="matrix(0.091, -0.996, 0.996, 0.091, 272.968, 64.921)" fill="#fff"/>
          <rect id="Rectangle_214" data-name="Rectangle 214" width="4.799" height="43.585" transform="translate(324.398 105.451) rotate(-84.758)" fill="#fff"/>
          <rect id="Rectangle_215" data-name="Rectangle 215" width="4.799" height="20.649" transform="translate(371.202 109.745) rotate(-84.759)" fill="#fff"/>
          <rect id="Rectangle_216" data-name="Rectangle 216" width="4.799" height="40.062" transform="translate(395.68 111.991) rotate(-84.758)" fill="#fff"/>
          <rect id="Rectangle_217" data-name="Rectangle 217" width="4.799" height="20.649" transform="matrix(0.091, -0.996, 0.996, 0.091, 278.789, 199.478)" fill="#fff"/>
          <rect id="Rectangle_218" data-name="Rectangle 218" width="4.798" height="34.565" transform="translate(322.084 130.67) rotate(-84.758)" fill="#fff"/>
          <rect id="Rectangle_219" data-name="Rectangle 219" width="4.798" height="14.215" transform="matrix(0.091, -0.996, 0.996, 0.091, 396.097, 137.46)" fill="#fff"/>
          <rect id="Rectangle_220" data-name="Rectangle 220" width="4.799" height="31.77" transform="translate(361.354 134.273) rotate(-84.759)" fill="#fff"/>
          <rect id="Rectangle_221" data-name="Rectangle 221" width="4.798" height="13.065" transform="matrix(0.091, -0.996, 0.996, 0.091, 414.709, 139.167)" fill="#fff"/>
          <rect id="Rectangle_222" data-name="Rectangle 222" width="4.799" height="43.585" transform="translate(321.007 142.405) rotate(-84.758)" fill="#fff"/>
          <rect id="Rectangle_223" data-name="Rectangle 223" width="4.799" height="20.649" transform="translate(367.812 146.698) rotate(-84.758)" fill="#fff"/>
          <rect id="Rectangle_224" data-name="Rectangle 224" width="4.799" height="40.062" transform="translate(392.29 148.944) rotate(-84.759)" fill="#fff"/>
        </g>
      </g>
      <g id="Group_3457" data-name="Group 3457" transform="translate(98.493 0)">
        <path id="Path_1989" data-name="Path 1989" d="M418.824,329.388a2.489,2.489,0,0,1-2.435,2.541h-52.6a2.5,2.5,0,0,1-2.451-2.541h0a2.509,2.509,0,0,1,2.451-2.535h52.6a2.5,2.5,0,0,1,2.435,2.535Z" transform="translate(-277.038 -110.71)"/>
        <path id="Path_1990" data-name="Path 1990" d="M418.824,339.65a2.485,2.485,0,0,1-2.435,2.532h-52.6a2.5,2.5,0,0,1-2.451-2.532h0a2.507,2.507,0,0,1,2.451-2.547h52.6a2.493,2.493,0,0,1,2.435,2.547Z" transform="translate(-277.038 -113.486)"/>
        <path id="Path_1991" data-name="Path 1991" d="M418.824,349.915c0,1.4-8.383,4-9.728,4H371.083c-1.34,0-9.742-2.6-9.742-4h0a2.5,2.5,0,0,1,2.451-2.537h52.6a2.484,2.484,0,0,1,2.435,2.537Z" transform="translate(-277.038 -116.269)"/>
        <path id="Path_1992" data-name="Path 1992" d="M419.1,319.133a2.519,2.519,0,0,1-2.473,2.552h-53.4a2.523,2.523,0,0,1-2.463-2.552h0a2.509,2.509,0,0,1,2.463-2.541h53.4a2.505,2.505,0,0,1,2.473,2.541Z" transform="translate(-276.881 -107.931)"/>
        <g id="Group_3453" data-name="Group 3453" transform="translate(52.949 57.254)">
          <g id="Group_3452" data-name="Group 3452">
            <path id="Path_1993" data-name="Path 1993" d="M378.311,108.944l-4.5.01a57.157,57.157,0,0,0-38.292,15.806c-4.389,4.063-8.86,8.651-11.887,14.747a50.641,50.641,0,0,0-5.292,21.169v3.832c.575,9.962,2.333,17.694,5.534,24.018,3.218,6.328,6.9,12.414,10.46,18.3l1.447,2.379c.795,1.324,1.647,2.653,2.5,4,3.473,5.49,7.407,11.7,9.484,19.024a73.585,73.585,0,0,1,1.712,9.662c.214,1.633.42,3.267.685,4.853.362,2.027,1.894,3.9,3.767,5.645,5.8-.213,12.03-.306,19.408-.306,4.832,0,9.667.042,14.555.077,4.812.045,9.664.078,14.594.078,1.77-2.327,2.494-6.667,3.192-10.893a53.58,53.58,0,0,1,2.229-9.748c2.455-6.706,6.141-12.99,9.381-18.548.8-1.371,1.595-2.734,2.358-4.073,1.046-1.821,2.112-3.63,3.162-5.442,7.052-12.034,13.719-23.4,14.617-39.668l-.007-1.367c-.517-15.045-6.21-27.482-17.407-37.854C409.7,115.068,395.664,109.791,378.311,108.944Z" transform="translate(-318.341 -108.944)" fill="none" stroke="#f18d87" stroke-miterlimit="10" stroke-width="0.963"/>
          </g>
        </g>
        <g id="Group_3454" data-name="Group 3454" transform="translate(50.033 54.6)">
          <path id="Path_1994" data-name="Path 1994" d="M353.648,252.676l-.114-.106c-2.314-2.16-3.543-4.012-3.867-5.828-.238-1.429-.433-2.917-.621-4.357l-.067-.509a72.981,72.981,0,0,0-1.7-9.623c-2.056-7.252-5.962-13.428-9.409-18.877l-.522-.825c-.69-1.09-1.373-2.168-2.017-3.242l-1.58-2.6c-3.518-5.82-7.155-11.839-10.339-18.1-3.213-6.35-4.982-14.022-5.568-24.144V160.62a50.922,50.922,0,0,1,5.324-21.309c3.05-6.145,7.551-10.767,11.961-14.846a57.378,57.378,0,0,1,38.536-15.905l4.512-.01c17.473.851,31.582,6.166,41.959,15.8,11.262,10.433,16.991,22.89,17.513,38.081l.007,1.377c-.9,16.362-7.586,27.762-14.661,39.832q-.607,1.048-1.219,2.1-.974,1.669-1.941,3.348c-.763,1.337-1.56,2.7-2.36,4.069l-.138.238c-3.191,5.474-6.808,11.678-9.219,18.261a53.917,53.917,0,0,0-2.214,9.691c-.7,4.245-1.426,8.635-3.253,11.037l-.109.143h-.189c-5.222,0-10.31-.041-14.6-.081l-3.7-.025c-3.633-.025-7.243-.05-10.851-.05-7.558,0-13.72.1-19.393.3Zm24.508-143.451-4.479.011a56.646,56.646,0,0,0-38.035,15.707c-4.362,4.036-8.812,8.6-11.814,14.65a50.3,50.3,0,0,0-5.258,21.037v3.822c.579,10.014,2.326,17.606,5.5,23.875,3.172,6.235,6.8,12.242,10.315,18.053l1.58,2.6c.643,1.071,1.323,2.145,2.01,3.229l.487.77c3.506,5.542,7.439,11.76,9.522,19.106a73.6,73.6,0,0,1,1.722,9.71l.066.509c.187,1.435.381,2.918.618,4.332.292,1.638,1.423,3.344,3.552,5.353,5.638-.2,11.765-.3,19.261-.3,3.61,0,7.222.025,10.856.05l3.7.025c4.235.04,9.248.08,14.4.081,1.652-2.307,2.349-6.524,3.024-10.606a54.35,54.35,0,0,1,2.244-9.806c2.43-6.637,6.062-12.868,9.266-18.365l.139-.238c.8-1.368,1.594-2.729,2.357-4.064.642-1.122,1.293-2.238,1.942-3.353q.611-1.048,1.219-2.094c7.036-12,13.68-23.337,14.574-39.527l-.007-1.349c-.516-15-6.174-27.31-17.3-37.616C409.372,115.317,395.423,110.067,378.156,109.225Z" transform="translate(-315.289 -106.183)"/>
          <path id="Path_1995" data-name="Path 1995" d="M351.68,254.2l-.9-.844c-1.7-1.59-4.029-4.056-4.575-7.109-.249-1.492-.446-3-.637-4.46l-.066-.507a71.352,71.352,0,0,0-1.645-9.332c-1.96-6.912-5.773-12.939-9.136-18.257l-.521-.823c-.7-1.106-1.393-2.2-2.047-3.29l-1.577-2.594c-3.539-5.856-7.2-11.911-10.42-18.242-3.361-6.64-5.205-14.591-5.808-25.027l0-.144v-3.915a53.1,53.1,0,0,1,5.555-22.211c3.22-6.487,7.9-11.3,12.479-15.536a59.906,59.906,0,0,1,40.242-16.594l.1,0,4.58-.011.08,0c18.1.883,32.774,6.43,43.61,16.49,11.742,10.877,17.715,23.856,18.259,39.678v.073l.007,1.443,0,.076c-.933,16.88-7.749,28.51-14.966,40.822-.4.69-.809,1.39-1.218,2.09-.645,1.108-1.293,2.217-1.932,3.333-.766,1.341-1.565,2.71-2.37,4.088l-.137.233c-3.143,5.392-6.705,11.5-9.047,17.9a51.445,51.445,0,0,0-2.107,9.286c-.747,4.519-1.518,9.188-3.692,12.046l-.871,1.145H401.4c-5.231,0-10.328-.041-14.624-.081l-3.7-.024c-3.625-.026-7.227-.051-10.827-.051-7.523,0-13.653.1-19.292.3Zm-31.505-90.7c.565,9.682,2.236,16.974,5.257,22.942,3.131,6.156,6.74,12.127,10.23,17.9l1.577,2.593c.641,1.068,1.31,2.125,1.988,3.2l.488.771c3.588,5.673,7.616,12.04,9.788,19.7a76.433,76.433,0,0,1,1.786,10.027l.066.51c.184,1.415.376,2.878.605,4.253a7.121,7.121,0,0,0,2.1,3.311c5.353-.178,11.179-.261,18.2-.261,3.614,0,7.232.025,10.87.05l3.7.025c3.816.036,8.256.071,12.852.079.961-2.117,1.524-5.526,2.031-8.6a56.021,56.021,0,0,1,2.351-10.21c2.5-6.825,6.185-13.149,9.438-18.728l.138-.238c.8-1.364,1.588-2.719,2.347-4.047q.972-1.7,1.956-3.372l1.215-2.087c6.888-11.752,13.388-22.84,14.268-38.454l-.006-1.255c-.5-14.365-5.917-26.138-16.552-35.99-9.771-9.071-23.13-14.086-39.711-14.908l-4.366.009A54.109,54.109,0,0,0,336.5,125.736c-4.2,3.883-8.468,8.261-11.3,13.968a48.1,48.1,0,0,0-5.024,20.08Z" transform="translate(-314.341 -105.304)"/>
        </g>
        <g id="Group_3455" data-name="Group 3455" transform="translate(83.335 121.969)">
          <path id="Path_1996" data-name="Path 1996" d="M423.877,201.363c-4.112-5.058-10.577-.57-13.976,2.733-5.146,5-8.848,11.574-11.526,17.955-.572,1.364-1.1,2.769-1.571,4.2a46.119,46.119,0,0,1-15.155,1.673,37.622,37.622,0,0,0-.955-4.057c-1.663-5.592-6.542-10.474-13.006-10.929-5.251-.37-7.588,4.976-5.312,8.837,2.63,4.462,9.884,6.077,14.807,6.917q1.451.248,2.92.375c.106.821.186,1.633.25,2.421a40.142,40.142,0,0,1-3.033,18.62c-2.142,5.407-5.609,11.167-5.6,17.062,0,.531,1.113.276,1.146-.168.566-7.767,5.62-15.084,7.976-22.462a34.939,34.939,0,0,0,1.01-15.361,48.788,48.788,0,0,0,14.578-1.753c-4.457,14.463-3.512,31.53,9.1,42.092.543.455,2.155-.252,1.547-.795-12.366-11.006-13.168-27.374-8.684-41.861.775-.236,1.544-.481,2.3-.744a45.863,45.863,0,0,0,18.021-11.391C421.4,211.917,427.121,205.353,423.877,201.363Zm-47.1,25.975a31.334,31.334,0,0,1-9.322-3.188c-3.1-1.7-7.3-7.8-1.884-9.9,3.784-1.466,8.62,2.337,10.732,4.793a17.623,17.623,0,0,1,3.6,8.741C378.862,227.671,377.816,227.53,376.782,227.338Zm45.242-19.651c-2.878,6.662-10.065,11.868-16.582,15.2a46.412,46.412,0,0,1-6.664,2.765c.112-.337.223-.674.341-1.01a58.678,58.678,0,0,1,9.649-17.251c2.152-2.675,4.782-5.534,8.189-6.825a4.561,4.561,0,0,1,5.542,1.987C423.427,204.125,422.677,206.175,422.024,207.688Z" transform="translate(-360.418 -198.074)" fill="#53545a"/>
          <path id="Path_1997" data-name="Path 1997" d="M405.613,270.3h0a1.87,1.87,0,0,1-1.223-.408c-10.929-9.156-14.579-24.537-9.917-41.406a49.12,49.12,0,0,1-11.786,1.362,35.538,35.538,0,0,1-1.2,14.6,76.913,76.913,0,0,1-3.375,8.241c-2.072,4.552-4.213,9.259-4.559,14a1.765,1.765,0,0,1-1.846,1.412,1.375,1.375,0,0,1-1.484-1.311c-.008-4.638,1.988-9.079,3.919-13.373.629-1.4,1.224-2.721,1.746-4.041a39.278,39.278,0,0,0,2.969-18.193c-.046-.562-.095-1.083-.149-1.576-.723-.081-1.436-.181-2.128-.3-5.793-.99-12.8-2.729-15.568-7.429a7.1,7.1,0,0,1,.063-7.368,6.642,6.642,0,0,1,6.291-2.967,16.078,16.078,0,0,1,13.977,11.671c.319,1.073.6,2.2.828,3.359a44.858,44.858,0,0,0,13.358-1.523c.44-1.287.917-2.545,1.422-3.749,3.227-7.689,7.181-13.842,11.754-18.286,2.045-1.988,6.091-5.322,10.215-5.322a6.752,6.752,0,0,1,5.426,2.679c2.643,3.251.838,8.314-5.22,14.644a46.759,46.759,0,0,1-18.456,11.667c-.559.195-1.148.388-1.789.588-4.928,16.426-1.827,31.106,8.546,40.337a1.276,1.276,0,0,1,.365,1.493A2.444,2.444,0,0,1,405.613,270.3Zm0-1.493v0Zm-38.631-54.248a3.811,3.811,0,0,0-1.388.249,2.552,2.552,0,0,0-1.934,2.175c-.149,2,2.04,4.874,3.952,5.92a30.215,30.215,0,0,0,8.982,3.066c.507.095,1.032.179,1.581.254a15.334,15.334,0,0,0-3.125-6.927C373.411,217.39,369.91,214.557,366.981,214.557Zm51.167-13.649a3.329,3.329,0,0,0-1.182.219c-3.173,1.2-5.687,3.956-7.727,6.492a57.451,57.451,0,0,0-9.12,15.952,44.629,44.629,0,0,0,4.39-1.949c4.672-2.389,12.977-7.474,16.095-14.689.638-1.476,1.2-3.138.53-4.27A3.51,3.51,0,0,0,418.148,200.908Z" transform="translate(-360.014 -197.697)" fill="#ff6d66"/>
        </g>
        <g id="Group_3456" data-name="Group 3456">
          <path id="Path_1998" data-name="Path 1998" d="M400.7,31.252c-.013-1.256-2.632-.973-2.642.094-.133,13.017-.356,26.174.359,39.172.049.885,1.883.765,1.924.026C401.041,57.5,400.83,44.311,400.7,31.252Z" transform="translate(-286.943 -30.422)" opacity="0.7"/>
          <path id="Path_1999" data-name="Path 1999" d="M318.839,48.242c-.614-1.075-2.373.7-1.869,1.626,6.14,11.289,12.27,22.747,19.133,33.564.467.738,1.628-.478,1.307-1.137C331.752,70.681,325.23,59.424,318.839,48.242Z" transform="translate(-264.996 -35.158)" opacity="0.7"/>
          <path id="Path_2000" data-name="Path 2000" d="M261.128,113.7c-1.1-.467-1.493,2.069-.563,2.487,11.347,5.1,22.782,10.334,34.435,14.595.794.292,1.025-1.418.393-1.738C284.246,123.378,272.614,118.549,261.128,113.7Z" transform="translate(-249.602 -52.962)" opacity="0.7"/>
          <path id="Path_2001" data-name="Path 2001" d="M246.4,187.133c-1.189,0-.651,2.508.36,2.529,12.328.244,24.789.583,37.106-.069.839-.044.448-1.721-.252-1.768C271.27,186.977,258.773,187.094,246.4,187.133Z" transform="translate(-245.723 -72.859)" opacity="0.7"/>
          <path id="Path_2002" data-name="Path 2002" d="M264.366,257.215c-1.031.626.612,2.52,1.5,2.007,10.823-6.239,21.8-12.463,32.2-19.474.708-.478-.418-1.729-1.048-1.4C285.892,244.067,275.092,250.708,264.366,257.215Z" transform="translate(-250.683 -86.723)" opacity="0.7"/>
          <path id="Path_2003" data-name="Path 2003" d="M471.7,48.242c.614-1.075,2.373.7,1.87,1.626C467.43,61.157,461.3,72.614,454.438,83.432c-.468.738-1.629-.478-1.308-1.137C458.788,70.681,465.309,59.424,471.7,48.242Z" transform="translate(-301.884 -35.158)" opacity="0.7"/>
          <path id="Path_2004" data-name="Path 2004" d="M523.794,113.7c1.1-.467,1.493,2.069.563,2.487-11.348,5.1-22.782,10.334-34.436,14.595-.795.292-1.025-1.418-.394-1.738C500.676,123.378,512.308,118.549,523.794,113.7Z" transform="translate(-311.659 -52.962)" opacity="0.7"/>
          <path id="Path_2005" data-name="Path 2005" d="M537.443,187.133c1.189,0,.651,2.508-.36,2.529-12.329.244-24.79.583-37.108-.069-.839-.044-.448-1.721.252-1.768C512.573,186.977,525.07,187.094,537.443,187.133Z" transform="translate(-314.458 -72.859)" opacity="0.7"/>
          <path id="Path_2006" data-name="Path 2006" d="M521.1,257.215c1.03.626-.613,2.52-1.5,2.007-10.822-6.239-21.805-12.463-32.2-19.474-.708-.478.419-1.729,1.049-1.4C499.573,244.067,510.373,250.708,521.1,257.215Z" transform="translate(-311.121 -86.723)" opacity="0.7"/>
        </g>
      </g>
      <circle id="Ellipse_63" data-name="Ellipse 63" cx="16.048" cy="16.048" r="16.048" transform="translate(32.993 310.453)" fill="#ff6d66"/>
      <circle id="Ellipse_62" data-name="Ellipse 62" cx="11.551" cy="11.551" r="11.551" transform="translate(733.627 244.471)" fill="#ff6d66"/>
      <circle id="Ellipse_64" data-name="Ellipse 64" cx="11.551" cy="11.551" r="11.551" transform="translate(550.772 798.034)" fill="#ff6d66"/>
      <path id="Path_2066" data-name="Path 2066" d="M795.731,341.086,808.152,362.6l12.421,21.513H770.89L783.31,362.6Z" transform="translate(-244.96 -341.086)" fill="#a0c6f4"/>
      <path id="Path_2067" data-name="Path 2067" d="M795.731,341.086,808.152,362.6l12.421,21.513H770.89L783.31,362.6Z" transform="translate(-494.739 284.224)" fill="#a0c6f4"/>
      <g id="Group_3575" data-name="Group 3575" transform="translate(0 443.622)">
        <path id="Path_2068" data-name="Path 2068" d="M26.631,4.977C-.325-18.806-44.865,40.5,118.123,229.268c94.021,108.892,167.9,118.658,177.9,80.774,17.954-67.967-46.883-85.148-22.759-58.527,35.083,38.709,134.868,46.887,209.224,10.764,73.37-35.643,28.272-91,23.717-94.224" transform="matrix(0.978, -0.208, 0.208, 0.978, 159.116, 108.962)" fill="none" stroke="#2a1e17" stroke-linecap="round" stroke-linejoin="round" stroke-width="1"/>
        <line id="Line_64" data-name="Line 64" y1="72.843" x2="129.238" transform="matrix(0.978, -0.208, 0.208, 0.978, 616.869, 241.365)" fill="none" stroke="#2a1e17" stroke-linecap="round" stroke-linejoin="round" stroke-width="1"/>
        <path id="Path_2069" data-name="Path 2069" d="M158.679,16.9C5.78-46.477-111.928,75.591,176.291,262.512c22.7,14.719,57.5,19.883,57.5,19.883" transform="matrix(0.978, -0.208, 0.208, 0.978, 0, 54.988)" fill="none" stroke="#2a1e17" stroke-linecap="round" stroke-linejoin="round" stroke-width="1"/>
      </g>
    </g>
  </g>
</svg>
